M48
; DRILL file {KiCad (5.1.6-0-10_14)} date Sunday, July 26, 2020 at 08:14:23 PM
; FORMAT={-:-/ absolute / inch / decimal}
; #@! TF.CreationDate,2020-07-26T20:14:23+09:00
; #@! TF.GenerationSoftware,Kicad,Pcbnew,(5.1.6-0-10_14)
FMAT,2
INCH
T1C0.0157
T2C0.0236
T3C0.0394
T4C0.0472
T5C0.0394
T6C0.0669
T7C0.0748
T8C0.1575
T9C0.1890
%
G90
G05
T1
X4.0Y-4.3
X4.0Y-4.5
X4.0Y-4.7
X4.0Y-4.9
X4.2Y-3.3
X4.2Y-4.3
X4.2Y-4.5
X4.2Y-4.7
X4.2Y-4.9
X4.4Y-3.3
X4.4Y-4.3
X4.4Y-4.9
X4.6Y-3.5
X4.6Y-3.7
X4.6Y-4.9
X4.8Y-3.5
X4.8Y-3.7
X4.8Y-4.1
X4.8Y-4.9
X4.925Y-3.5
X4.925Y-3.7
X4.985Y-3.95
X5.0Y-4.7
X5.0Y-4.9
X5.025Y-3.5
X5.065Y-3.5
X5.105Y-3.5
X5.125Y-4.125
X5.195Y-3.74
X5.2Y-4.9
X5.215Y-3.69
X5.235Y-3.64
X5.245Y-3.98
X5.255Y-3.59
X5.325Y-3.4
X5.4Y-4.13
X5.4Y-4.9
X5.4Y-5.1
X5.495Y-3.95
X5.525Y-3.4
X5.6Y-4.7
X5.6Y-4.9
X5.6Y-5.1
X5.65Y-4.125
X5.65Y-4.3677
X5.725Y-3.4
X5.745Y-3.98
X5.8Y-4.9
X5.8Y-5.1
X5.805Y-3.275
X5.805Y-3.913
X5.845Y-3.73
X5.845Y-3.8815
X5.85Y-3.425
X5.885Y-3.71
X5.885Y-3.85
X5.925Y-3.59
X5.925Y-4.05
X5.9265Y-3.6815
X5.9265Y-3.8185
X5.9423Y-4.3677
X5.965Y-3.4
X5.975Y-3.61
X5.985Y-4.18
X6.0Y-4.9
X6.0Y-5.1
X6.025Y-3.63
X6.025Y-4.22
X6.065Y-4.25
X6.075Y-3.65
X6.1Y-3.6
X6.101Y-3.724
X6.11Y-3.68
X6.135Y-3.25
X6.15Y-4.125
X6.195Y-4.09
X6.2Y-4.9
X6.2Y-5.1
X6.21Y-4.29
X6.255Y-4.17
X6.375Y-3.25
X6.375Y-4.25
X6.385Y-3.52
X6.4Y-4.7
X6.4Y-4.9
X6.4Y-5.1
X6.435Y-3.52
X6.435Y-4.17
X6.485Y-3.52
X6.535Y-3.4
X6.535Y-3.52
X6.6Y-3.39
X6.6Y-4.9
X6.6Y-5.1
X6.605Y-4.13
X6.655Y-4.17
X6.7Y-3.325
X6.71Y-3.425
X6.725Y-3.79
X6.749Y-3.976
X6.8Y-3.7
X6.8Y-4.9
X6.8Y-5.1
X6.825Y-3.425
X6.825Y-4.075
X6.836Y-3.791
X6.845Y-4.17
X6.85Y-3.65
X6.925Y-3.825
X6.95Y-3.65
X7.0Y-4.9
X7.0Y-5.1
X7.02Y-4.2
X7.1Y-3.775
X7.1Y-3.875
X7.1Y-3.975
X7.125Y-3.725
X7.125Y-3.925
X7.125Y-4.1
X7.15Y-3.4
X7.2Y-4.3
X7.2Y-4.5
X7.2Y-4.7
X7.2Y-4.9
X7.2Y-5.1
X7.275Y-3.475
X7.275Y-3.575
X7.4Y-4.3
X7.4Y-4.5
X7.4Y-4.7
X7.4Y-4.9
X7.255Y-3.8463
X7.255Y-3.8778
X7.255Y-3.9093
X7.255Y-3.9407
X7.255Y-3.9722
X7.255Y-4.0037
T3
X4.555Y-3.85
X4.655Y-3.85
X4.755Y-3.85
X4.855Y-3.85
X4.955Y-3.85
X5.055Y-3.85
X5.155Y-3.85
X5.255Y-3.85
X5.355Y-3.85
X5.455Y-3.85
X5.555Y-3.85
X5.655Y-3.85
X4.555Y-3.25
X4.655Y-3.25
X4.755Y-3.25
X4.855Y-3.25
X4.955Y-3.25
X5.055Y-3.25
X5.155Y-3.25
X5.255Y-3.25
X5.355Y-3.25
X5.455Y-3.25
X5.555Y-3.25
X5.655Y-3.25
X6.655Y-3.25
X6.755Y-3.25
X6.855Y-3.25
X6.955Y-3.25
X7.055Y-3.25
X7.155Y-3.25
T4
X4.43Y-4.5
X4.58Y-4.3677
X4.68Y-4.4
X4.7808Y-4.4465
X6.68Y-4.5
X6.83Y-4.3677
X6.93Y-4.4
X7.0308Y-4.4465
X5.18Y-4.5
X5.33Y-4.3677
X5.43Y-4.4
X5.5308Y-4.4465
X5.93Y-4.5
X6.08Y-4.3677
X6.18Y-4.4
X6.2808Y-4.4465
T5
X4.3745Y-4.7654
X4.7855Y-4.7654
X6.6245Y-4.7654
X7.0355Y-4.7654
X5.1245Y-4.7654
X5.5355Y-4.7654
X5.8745Y-4.7654
X6.2855Y-4.7654
T6
X4.38Y-4.6
X4.78Y-4.6
X6.63Y-4.6
X7.03Y-4.6
X5.13Y-4.6
X5.53Y-4.6
X5.88Y-4.6
X6.28Y-4.6
T7
X4.3635Y-4.6
X4.7965Y-4.6
X6.6135Y-4.6
X7.0465Y-4.6
X5.1135Y-4.6
X5.5465Y-4.6
X5.8635Y-4.6
X6.2965Y-4.6
T8
X4.58Y-4.6
X6.83Y-4.6
X5.33Y-4.6
X6.08Y-4.6
T9
X7.355Y-5.15
X4.055Y-5.15
X7.355Y-3.25
X4.055Y-3.25
T2
G00X7.2156Y-3.7065
M15
G01X7.2589Y-3.7065
M16
G05
G00X7.2156Y-4.1435
M15
G01X7.2589Y-4.1435
M16
G05
G00X7.4144Y-3.7065
M15
G01X7.4578Y-3.7065
M16
G05
G00X7.4144Y-4.1435
M15
G01X7.4578Y-4.1435
M16
G05
T0
M30
