G04 #@! TF.GenerationSoftware,KiCad,Pcbnew,(5.1.6-0-10_14)*
G04 #@! TF.CreationDate,2020-07-26T20:14:21+09:00*
G04 #@! TF.ProjectId,name_card_keyboard,6e616d65-5f63-4617-9264-5f6b6579626f,rev?*
G04 #@! TF.SameCoordinates,Original*
G04 #@! TF.FileFunction,Soldermask,Bot*
G04 #@! TF.FilePolarity,Negative*
%FSLAX46Y46*%
G04 Gerber Fmt 4.6, Leading zero omitted, Abs format (unit mm)*
G04 Created by KiCad (PCBNEW (5.1.6-0-10_14)) date 2020-07-26 20:14:21*
%MOMM*%
%LPD*%
G01*
G04 APERTURE LIST*
%ADD10R,0.360000X0.750000*%
%ADD11R,2.400000X0.350000*%
%ADD12O,2.400000X1.300000*%
%ADD13C,0.700000*%
%ADD14C,1.100000*%
%ADD15C,1.800000*%
%ADD16C,2.300000*%
%ADD17C,2.000000*%
%ADD18C,4.100000*%
%ADD19O,1.800000X1.800000*%
%ADD20R,1.800000X1.800000*%
%ADD21C,5.100000*%
G04 APERTURE END LIST*
D10*
G04 #@! TO.C,J1*
X187857000Y-94525000D03*
X189897000Y-94525000D03*
D11*
X188877000Y-94725000D03*
D10*
X189897000Y-104915000D03*
X187857000Y-104915000D03*
D11*
X188877000Y-104665000D03*
D12*
X188877000Y-94145000D03*
X188877000Y-105245000D03*
X183827000Y-94145000D03*
X183827000Y-105245000D03*
D13*
X184277000Y-97695000D03*
X184277000Y-98495000D03*
X184277000Y-99295000D03*
X184277000Y-100095000D03*
X184277000Y-100895000D03*
X184277000Y-101695000D03*
G04 #@! TD*
D14*
G04 #@! TO.C,SW4*
X168262000Y-121040000D03*
X178702000Y-121040000D03*
D15*
X168402000Y-116840000D03*
X178562000Y-116840000D03*
D16*
X169672000Y-114300000D03*
X176022000Y-111760000D03*
X173482000Y-110940000D03*
D17*
X178982000Y-116840000D03*
X167982000Y-116840000D03*
D18*
X173482000Y-116840000D03*
D16*
X178582000Y-112940000D03*
G04 #@! TD*
D14*
G04 #@! TO.C,SW3*
X149212000Y-121040000D03*
X159652000Y-121040000D03*
D15*
X149352000Y-116840000D03*
X159512000Y-116840000D03*
D16*
X150622000Y-114300000D03*
X156972000Y-111760000D03*
X154432000Y-110940000D03*
D17*
X159932000Y-116840000D03*
X148932000Y-116840000D03*
D18*
X154432000Y-116840000D03*
D16*
X159532000Y-112940000D03*
G04 #@! TD*
D19*
G04 #@! TO.C,J3*
X143637000Y-82550000D03*
X141097000Y-82550000D03*
X138557000Y-82550000D03*
X136017000Y-82550000D03*
X133477000Y-82550000D03*
X130937000Y-82550000D03*
X128397000Y-82550000D03*
X125857000Y-82550000D03*
X123317000Y-82550000D03*
X120777000Y-82550000D03*
X118237000Y-82550000D03*
D20*
X115697000Y-82550000D03*
G04 #@! TD*
D14*
G04 #@! TO.C,SW2*
X130162000Y-121040000D03*
X140602000Y-121040000D03*
D15*
X130302000Y-116840000D03*
X140462000Y-116840000D03*
D16*
X131572000Y-114300000D03*
X137922000Y-111760000D03*
X135382000Y-110940000D03*
D17*
X140882000Y-116840000D03*
X129882000Y-116840000D03*
D18*
X135382000Y-116840000D03*
D16*
X140482000Y-112940000D03*
G04 #@! TD*
D21*
G04 #@! TO.C,Ref\u002A\u002A*
X102997000Y-130810000D03*
G04 #@! TD*
G04 #@! TO.C,Ref\u002A\u002A*
X102997000Y-82550000D03*
G04 #@! TD*
G04 #@! TO.C,Ref\u002A\u002A*
X186817000Y-130810000D03*
G04 #@! TD*
G04 #@! TO.C,Ref\u002A\u002A*
X186817000Y-82550000D03*
G04 #@! TD*
D19*
G04 #@! TO.C,J2*
X143637000Y-97790000D03*
X141097000Y-97790000D03*
X138557000Y-97790000D03*
X136017000Y-97790000D03*
X133477000Y-97790000D03*
X130937000Y-97790000D03*
X128397000Y-97790000D03*
X125857000Y-97790000D03*
X123317000Y-97790000D03*
X120777000Y-97790000D03*
X118237000Y-97790000D03*
D20*
X115697000Y-97790000D03*
G04 #@! TD*
D19*
G04 #@! TO.C,J4*
X181737000Y-82550000D03*
X179197000Y-82550000D03*
X176657000Y-82550000D03*
X174117000Y-82550000D03*
X171577000Y-82550000D03*
D20*
X169037000Y-82550000D03*
G04 #@! TD*
D14*
G04 #@! TO.C,SW1*
X111112000Y-121040000D03*
X121552000Y-121040000D03*
D15*
X111252000Y-116840000D03*
X121412000Y-116840000D03*
D16*
X112522000Y-114300000D03*
X118872000Y-111760000D03*
X116332000Y-110940000D03*
D17*
X121832000Y-116840000D03*
X110832000Y-116840000D03*
D18*
X116332000Y-116840000D03*
D16*
X121432000Y-112940000D03*
G04 #@! TD*
M02*
