M48
; DRILL file {KiCad (5.1.6-0-10_14)} date Friday, June 19, 2020 at 09:16:34 PM
; FORMAT={-:-/ absolute / inch / decimal}
; #@! TF.CreationDate,2020-06-19T21:16:34+09:00
; #@! TF.GenerationSoftware,Kicad,Pcbnew,(5.1.6-0-10_14)
; #@! TF.FileFunction,Plated,1,2,PTH
FMAT,2
INCH
T1C0.0157
T2C0.0236
T3C0.0394
T4C0.0472
%
G90
G05
T1
X4.0Y-3.5
X4.0Y-3.7
X4.0Y-3.9
X4.0Y-4.1
X4.0Y-4.3
X4.0Y-4.5
X4.0Y-4.7
X4.0Y-4.9
X4.2Y-3.3
X4.2Y-3.5
X4.2Y-3.7
X4.2Y-3.9
X4.2Y-4.1
X4.2Y-4.3
X4.2Y-4.5
X4.2Y-4.7
X4.2Y-4.9
X4.4Y-4.1
X4.4Y-4.3
X4.4Y-4.9
X4.6Y-4.1
X4.6Y-4.9
X4.7Y-3.5
X4.7Y-3.7
X4.76Y-3.95
X4.8Y-3.5
X4.8Y-4.9
X4.84Y-3.5
X4.88Y-3.5
X4.895Y-4.125
X4.97Y-3.74
X4.99Y-3.69
X5.0Y-4.3
X5.0Y-4.7
X5.0Y-4.9
X5.01Y-3.64
X5.02Y-3.98
X5.03Y-3.59
X5.1Y-3.4
X5.18Y-4.13
X5.2Y-4.9
X5.27Y-3.95
X5.3Y-3.4
X5.4Y-4.9
X5.5Y-3.4
X5.52Y-3.98
X5.58Y-3.253
X5.58Y-3.913
X5.6Y-4.7
X5.6Y-4.9
X5.6Y-5.1
X5.62Y-3.73
X5.62Y-3.8815
X5.64Y-4.15
X5.6423Y-4.3677
X5.66Y-3.71
X5.66Y-3.85
X5.7Y-3.59
X5.7015Y-3.6815
X5.7015Y-3.8185
X5.74Y-3.4
X5.75Y-3.61
X5.76Y-4.18
X5.8Y-3.63
X5.8Y-4.22
X5.8Y-4.9
X5.8Y-5.1
X5.84Y-4.25
X5.85Y-3.65
X5.876Y-3.724
X5.885Y-3.68
X5.91Y-3.25
X5.9423Y-4.3677
X5.97Y-4.09
X6.0Y-4.9
X6.0Y-5.1
X6.03Y-4.17
X6.15Y-4.25
X6.16Y-3.52
X6.2Y-4.9
X6.2Y-5.1
X6.21Y-3.52
X6.21Y-4.17
X6.21Y-4.29
X6.26Y-3.52
X6.31Y-3.25
X6.31Y-3.4
X6.31Y-3.52
X6.38Y-4.13
X6.385Y-3.51
X6.4Y-4.7
X6.4Y-4.9
X6.4Y-5.1
X6.43Y-4.17
X6.48Y-3.88
X6.5Y-3.79
X6.515Y-3.485
X6.524Y-3.976
X6.6Y-3.35
X6.6Y-3.65
X6.6Y-3.72
X6.6Y-4.9
X6.6Y-5.1
X6.611Y-3.791
X6.62Y-4.17
X6.65Y-3.55
X6.67Y-3.39
X6.7Y-3.85
X6.71Y-3.61
X6.71Y-3.75
X6.7241Y-3.55
X6.795Y-4.035
X6.795Y-4.17
X6.796Y-3.976
X6.8Y-4.9
X6.8Y-5.1
X6.84Y-3.55
X6.85Y-3.45
X6.95Y-3.85
X6.95Y-3.95
X6.95Y-4.03
X6.96Y-3.45
X6.96Y-3.55
X6.97Y-3.37
X7.0Y-4.1
X7.0Y-4.9
X7.0Y-5.1
X7.1Y-3.3
X7.1Y-3.37
X7.1Y-3.45
X7.1Y-3.55
X7.1Y-3.61
X7.1Y-3.75
X7.13Y-3.67
X7.13Y-3.85
X7.18Y-3.95
X7.2Y-3.2
X7.2Y-4.1
X7.2Y-4.3
X7.2Y-4.5
X7.2Y-4.7
X7.2Y-4.9
X7.2Y-5.1
X7.4Y-4.1
X7.4Y-4.3
X7.4Y-4.5
X7.4Y-4.7
X7.4Y-4.9
X7.255Y-3.5713
X7.255Y-3.6028
X7.255Y-3.6343
X7.255Y-3.6657
X7.255Y-3.6972
X7.255Y-3.7287
T3
X6.43Y-3.25
X6.53Y-3.25
X6.63Y-3.25
X6.73Y-3.25
X6.83Y-3.25
X6.93Y-3.25
X4.33Y-3.85
X4.43Y-3.85
X4.53Y-3.85
X4.63Y-3.85
X4.73Y-3.85
X4.83Y-3.85
X4.93Y-3.85
X5.03Y-3.85
X5.13Y-3.85
X5.23Y-3.85
X5.33Y-3.85
X5.43Y-3.85
X4.33Y-3.25
X4.43Y-3.25
X4.53Y-3.25
X4.63Y-3.25
X4.73Y-3.25
X4.83Y-3.25
X4.93Y-3.25
X5.03Y-3.25
X5.13Y-3.25
X5.23Y-3.25
X5.33Y-3.25
X5.43Y-3.25
T4
X5.93Y-4.5
X6.08Y-4.3677
X6.18Y-4.4
X6.2808Y-4.4465
X6.68Y-4.5
X6.83Y-4.3677
X6.93Y-4.4
X7.0308Y-4.4465
X4.43Y-4.5
X4.58Y-4.3677
X4.68Y-4.4
X4.7808Y-4.4465
X5.18Y-4.5
X5.33Y-4.3677
X5.43Y-4.4
X5.5308Y-4.4465
T2
G00X7.2156Y-3.4315
M15
G01X7.2589Y-3.4315
M16
G05
G00X7.2156Y-3.8685
M15
G01X7.2589Y-3.8685
M16
G05
G00X7.4144Y-3.4315
M15
G01X7.4578Y-3.4315
M16
G05
G00X7.4144Y-3.8685
M15
G01X7.4578Y-3.8685
M16
G05
T0
M30
