M48
; DRILL file {KiCad (5.1.6-0-10_14)} date Friday, June 19, 2020 at 09:16:34 PM
; FORMAT={-:-/ absolute / inch / decimal}
; #@! TF.CreationDate,2020-06-19T21:16:34+09:00
; #@! TF.GenerationSoftware,Kicad,Pcbnew,(5.1.6-0-10_14)
; #@! TF.FileFunction,NonPlated,1,2,NPTH
FMAT,2
INCH
T1C0.0394
T2C0.0669
T3C0.0748
T4C0.1575
T5C0.1890
%
G90
G05
T1
X6.6245Y-4.7654
X7.0355Y-4.7654
X4.3745Y-4.7654
X4.7855Y-4.7654
X5.1245Y-4.7654
X5.5355Y-4.7654
X5.8745Y-4.7654
X6.2855Y-4.7654
T2
X6.63Y-4.6
X7.03Y-4.6
X4.38Y-4.6
X4.78Y-4.6
X5.13Y-4.6
X5.53Y-4.6
X5.88Y-4.6
X6.28Y-4.6
T3
X5.1135Y-4.6
X5.5465Y-4.6
X5.8635Y-4.6
X6.2965Y-4.6
X6.6135Y-4.6
X7.0465Y-4.6
X4.3635Y-4.6
X4.7965Y-4.6
T4
X5.33Y-4.6
X6.08Y-4.6
X6.83Y-4.6
X4.58Y-4.6
T5
X4.055Y-5.15
X4.055Y-3.25
X7.355Y-5.15
X7.355Y-3.25
T0
M30
