%TF.GenerationSoftware,KiCad,Pcbnew,(5.1.6-0-10_14)*%
%TF.CreationDate,2020-06-18T21:33:12+09:00*%
%TF.ProjectId,name_card_keyboard,6e616d65-5f63-4617-9264-5f6b6579626f,rev?*%
%TF.SameCoordinates,Original*%
%TF.FileFunction,Legend,Top*%
%TF.FilePolarity,Positive*%
%FSLAX46Y46*%
G04 Gerber Fmt 4.6, Leading zero omitted, Abs format (unit mm)*
G04 Created by KiCad (PCBNEW (5.1.6-0-10_14)) date 2020-06-18 21:33:12*
%MOMM*%
%LPD*%
G01*
G04 APERTURE LIST*
%ADD10C,0.200000*%
%ADD11C,0.150000*%
%ADD12C,0.010000*%
%ADD13C,0.120000*%
%ADD14C,0.100000*%
%ADD15C,0.254000*%
%ADD16C,0.203200*%
G04 APERTURE END LIST*
D10*
X170307000Y-86106000D02*
G75*
G03*
X170307000Y-86106000I-127000J0D01*
G01*
X163449000Y-84582000D02*
G75*
G03*
X163449000Y-84582000I-127000J0D01*
G01*
X132969000Y-95758000D02*
G75*
G03*
X132969000Y-95758000I-127000J0D01*
G01*
X110109000Y-95758000D02*
G75*
G03*
X110109000Y-95758000I-127000J0D01*
G01*
X132969000Y-84582000D02*
G75*
G03*
X132969000Y-84582000I-127000J0D01*
G01*
X110109000Y-84582000D02*
G75*
G03*
X110109000Y-84582000I-127000J0D01*
G01*
X139065000Y-101600000D02*
G75*
G03*
X139065000Y-101600000I-127000J0D01*
G01*
X132715000Y-101600000D02*
G75*
G03*
X132715000Y-101600000I-127000J0D01*
G01*
X126365000Y-101600000D02*
G75*
G03*
X126365000Y-101600000I-127000J0D01*
G01*
X120015000Y-101600000D02*
G75*
G03*
X120015000Y-101600000I-127000J0D01*
G01*
X182435500Y-99504500D02*
G75*
G03*
X182435500Y-99504500I-127000J0D01*
G01*
X157924500Y-105156000D02*
G75*
G03*
X157924500Y-105156000I-127000J0D01*
G01*
X149733000Y-99377500D02*
G75*
G03*
X149733000Y-99377500I-127000J0D01*
G01*
X154686000Y-90424000D02*
G75*
G03*
X154686000Y-90424000I-127000J0D01*
G01*
X158623000Y-90424000D02*
G75*
G03*
X158623000Y-90424000I-127000J0D01*
G01*
X164465000Y-94615000D02*
G75*
G03*
X164465000Y-94615000I-127000J0D01*
G01*
D11*
X172021666Y-121689761D02*
X172164523Y-121737380D01*
X172402619Y-121737380D01*
X172497857Y-121689761D01*
X172545476Y-121642142D01*
X172593095Y-121546904D01*
X172593095Y-121451666D01*
X172545476Y-121356428D01*
X172497857Y-121308809D01*
X172402619Y-121261190D01*
X172212142Y-121213571D01*
X172116904Y-121165952D01*
X172069285Y-121118333D01*
X172021666Y-121023095D01*
X172021666Y-120927857D01*
X172069285Y-120832619D01*
X172116904Y-120785000D01*
X172212142Y-120737380D01*
X172450238Y-120737380D01*
X172593095Y-120785000D01*
X172926428Y-120737380D02*
X173164523Y-121737380D01*
X173355000Y-121023095D01*
X173545476Y-121737380D01*
X173783571Y-120737380D01*
X174593095Y-121070714D02*
X174593095Y-121737380D01*
X174355000Y-120689761D02*
X174116904Y-121404047D01*
X174735952Y-121404047D01*
X152971666Y-121689761D02*
X153114523Y-121737380D01*
X153352619Y-121737380D01*
X153447857Y-121689761D01*
X153495476Y-121642142D01*
X153543095Y-121546904D01*
X153543095Y-121451666D01*
X153495476Y-121356428D01*
X153447857Y-121308809D01*
X153352619Y-121261190D01*
X153162142Y-121213571D01*
X153066904Y-121165952D01*
X153019285Y-121118333D01*
X152971666Y-121023095D01*
X152971666Y-120927857D01*
X153019285Y-120832619D01*
X153066904Y-120785000D01*
X153162142Y-120737380D01*
X153400238Y-120737380D01*
X153543095Y-120785000D01*
X153876428Y-120737380D02*
X154114523Y-121737380D01*
X154305000Y-121023095D01*
X154495476Y-121737380D01*
X154733571Y-120737380D01*
X155019285Y-120737380D02*
X155638333Y-120737380D01*
X155305000Y-121118333D01*
X155447857Y-121118333D01*
X155543095Y-121165952D01*
X155590714Y-121213571D01*
X155638333Y-121308809D01*
X155638333Y-121546904D01*
X155590714Y-121642142D01*
X155543095Y-121689761D01*
X155447857Y-121737380D01*
X155162142Y-121737380D01*
X155066904Y-121689761D01*
X155019285Y-121642142D01*
X133921666Y-121689761D02*
X134064523Y-121737380D01*
X134302619Y-121737380D01*
X134397857Y-121689761D01*
X134445476Y-121642142D01*
X134493095Y-121546904D01*
X134493095Y-121451666D01*
X134445476Y-121356428D01*
X134397857Y-121308809D01*
X134302619Y-121261190D01*
X134112142Y-121213571D01*
X134016904Y-121165952D01*
X133969285Y-121118333D01*
X133921666Y-121023095D01*
X133921666Y-120927857D01*
X133969285Y-120832619D01*
X134016904Y-120785000D01*
X134112142Y-120737380D01*
X134350238Y-120737380D01*
X134493095Y-120785000D01*
X134826428Y-120737380D02*
X135064523Y-121737380D01*
X135255000Y-121023095D01*
X135445476Y-121737380D01*
X135683571Y-120737380D01*
X136016904Y-120832619D02*
X136064523Y-120785000D01*
X136159761Y-120737380D01*
X136397857Y-120737380D01*
X136493095Y-120785000D01*
X136540714Y-120832619D01*
X136588333Y-120927857D01*
X136588333Y-121023095D01*
X136540714Y-121165952D01*
X135969285Y-121737380D01*
X136588333Y-121737380D01*
X114871666Y-121689761D02*
X115014523Y-121737380D01*
X115252619Y-121737380D01*
X115347857Y-121689761D01*
X115395476Y-121642142D01*
X115443095Y-121546904D01*
X115443095Y-121451666D01*
X115395476Y-121356428D01*
X115347857Y-121308809D01*
X115252619Y-121261190D01*
X115062142Y-121213571D01*
X114966904Y-121165952D01*
X114919285Y-121118333D01*
X114871666Y-121023095D01*
X114871666Y-120927857D01*
X114919285Y-120832619D01*
X114966904Y-120785000D01*
X115062142Y-120737380D01*
X115300238Y-120737380D01*
X115443095Y-120785000D01*
X115776428Y-120737380D02*
X116014523Y-121737380D01*
X116205000Y-121023095D01*
X116395476Y-121737380D01*
X116633571Y-120737380D01*
X117538333Y-121737380D02*
X116966904Y-121737380D01*
X117252619Y-121737380D02*
X117252619Y-120737380D01*
X117157380Y-120880238D01*
X117062142Y-120975476D01*
X116966904Y-121023095D01*
X135257809Y-132024380D02*
X135257809Y-131024380D01*
X135686380Y-132024380D02*
X135686380Y-131500571D01*
X135638761Y-131405333D01*
X135543523Y-131357714D01*
X135400666Y-131357714D01*
X135305428Y-131405333D01*
X135257809Y-131452952D01*
X136019714Y-131357714D02*
X136400666Y-131357714D01*
X136162571Y-131024380D02*
X136162571Y-131881523D01*
X136210190Y-131976761D01*
X136305428Y-132024380D01*
X136400666Y-132024380D01*
X136591142Y-131357714D02*
X136972095Y-131357714D01*
X136734000Y-131024380D02*
X136734000Y-131881523D01*
X136781619Y-131976761D01*
X136876857Y-132024380D01*
X136972095Y-132024380D01*
X137305428Y-131357714D02*
X137305428Y-132357714D01*
X137305428Y-131405333D02*
X137400666Y-131357714D01*
X137591142Y-131357714D01*
X137686380Y-131405333D01*
X137734000Y-131452952D01*
X137781619Y-131548190D01*
X137781619Y-131833904D01*
X137734000Y-131929142D01*
X137686380Y-131976761D01*
X137591142Y-132024380D01*
X137400666Y-132024380D01*
X137305428Y-131976761D01*
X138162571Y-131976761D02*
X138257809Y-132024380D01*
X138448285Y-132024380D01*
X138543523Y-131976761D01*
X138591142Y-131881523D01*
X138591142Y-131833904D01*
X138543523Y-131738666D01*
X138448285Y-131691047D01*
X138305428Y-131691047D01*
X138210190Y-131643428D01*
X138162571Y-131548190D01*
X138162571Y-131500571D01*
X138210190Y-131405333D01*
X138305428Y-131357714D01*
X138448285Y-131357714D01*
X138543523Y-131405333D01*
X139019714Y-131929142D02*
X139067333Y-131976761D01*
X139019714Y-132024380D01*
X138972095Y-131976761D01*
X139019714Y-131929142D01*
X139019714Y-132024380D01*
X139019714Y-131405333D02*
X139067333Y-131452952D01*
X139019714Y-131500571D01*
X138972095Y-131452952D01*
X139019714Y-131405333D01*
X139019714Y-131500571D01*
X140210190Y-130976761D02*
X139353047Y-132262476D01*
X141257809Y-130976761D02*
X140400666Y-132262476D01*
X142019714Y-131357714D02*
X142019714Y-132167238D01*
X141972095Y-132262476D01*
X141924476Y-132310095D01*
X141829238Y-132357714D01*
X141686380Y-132357714D01*
X141591142Y-132310095D01*
X142019714Y-131976761D02*
X141924476Y-132024380D01*
X141734000Y-132024380D01*
X141638761Y-131976761D01*
X141591142Y-131929142D01*
X141543523Y-131833904D01*
X141543523Y-131548190D01*
X141591142Y-131452952D01*
X141638761Y-131405333D01*
X141734000Y-131357714D01*
X141924476Y-131357714D01*
X142019714Y-131405333D01*
X142495904Y-132024380D02*
X142495904Y-131357714D01*
X142495904Y-131024380D02*
X142448285Y-131072000D01*
X142495904Y-131119619D01*
X142543523Y-131072000D01*
X142495904Y-131024380D01*
X142495904Y-131119619D01*
X142829238Y-131357714D02*
X143210190Y-131357714D01*
X142972095Y-131024380D02*
X142972095Y-131881523D01*
X143019714Y-131976761D01*
X143114952Y-132024380D01*
X143210190Y-132024380D01*
X143543523Y-132024380D02*
X143543523Y-131024380D01*
X143972095Y-132024380D02*
X143972095Y-131500571D01*
X143924476Y-131405333D01*
X143829238Y-131357714D01*
X143686380Y-131357714D01*
X143591142Y-131405333D01*
X143543523Y-131452952D01*
X144876857Y-131357714D02*
X144876857Y-132024380D01*
X144448285Y-131357714D02*
X144448285Y-131881523D01*
X144495904Y-131976761D01*
X144591142Y-132024380D01*
X144734000Y-132024380D01*
X144829238Y-131976761D01*
X144876857Y-131929142D01*
X145353047Y-132024380D02*
X145353047Y-131024380D01*
X145353047Y-131405333D02*
X145448285Y-131357714D01*
X145638761Y-131357714D01*
X145734000Y-131405333D01*
X145781619Y-131452952D01*
X145829238Y-131548190D01*
X145829238Y-131833904D01*
X145781619Y-131929142D01*
X145734000Y-131976761D01*
X145638761Y-132024380D01*
X145448285Y-132024380D01*
X145353047Y-131976761D01*
X146257809Y-131929142D02*
X146305428Y-131976761D01*
X146257809Y-132024380D01*
X146210190Y-131976761D01*
X146257809Y-131929142D01*
X146257809Y-132024380D01*
X147162571Y-131976761D02*
X147067333Y-132024380D01*
X146876857Y-132024380D01*
X146781619Y-131976761D01*
X146734000Y-131929142D01*
X146686380Y-131833904D01*
X146686380Y-131548190D01*
X146734000Y-131452952D01*
X146781619Y-131405333D01*
X146876857Y-131357714D01*
X147067333Y-131357714D01*
X147162571Y-131405333D01*
X147734000Y-132024380D02*
X147638761Y-131976761D01*
X147591142Y-131929142D01*
X147543523Y-131833904D01*
X147543523Y-131548190D01*
X147591142Y-131452952D01*
X147638761Y-131405333D01*
X147734000Y-131357714D01*
X147876857Y-131357714D01*
X147972095Y-131405333D01*
X148019714Y-131452952D01*
X148067333Y-131548190D01*
X148067333Y-131833904D01*
X148019714Y-131929142D01*
X147972095Y-131976761D01*
X147876857Y-132024380D01*
X147734000Y-132024380D01*
X148495904Y-132024380D02*
X148495904Y-131357714D01*
X148495904Y-131452952D02*
X148543523Y-131405333D01*
X148638761Y-131357714D01*
X148781619Y-131357714D01*
X148876857Y-131405333D01*
X148924476Y-131500571D01*
X148924476Y-132024380D01*
X148924476Y-131500571D02*
X148972095Y-131405333D01*
X149067333Y-131357714D01*
X149210190Y-131357714D01*
X149305428Y-131405333D01*
X149353047Y-131500571D01*
X149353047Y-132024380D01*
X150543523Y-130976761D02*
X149686380Y-132262476D01*
X150734000Y-131357714D02*
X151114952Y-131357714D01*
X150876857Y-131024380D02*
X150876857Y-131881523D01*
X150924476Y-131976761D01*
X151019714Y-132024380D01*
X151114952Y-132024380D01*
X151591142Y-132024380D02*
X151495904Y-131976761D01*
X151448285Y-131929142D01*
X151400666Y-131833904D01*
X151400666Y-131548190D01*
X151448285Y-131452952D01*
X151495904Y-131405333D01*
X151591142Y-131357714D01*
X151734000Y-131357714D01*
X151829238Y-131405333D01*
X151876857Y-131452952D01*
X151924476Y-131548190D01*
X151924476Y-131833904D01*
X151876857Y-131929142D01*
X151829238Y-131976761D01*
X151734000Y-132024380D01*
X151591142Y-132024380D01*
X152353047Y-132024380D02*
X152353047Y-131357714D01*
X152353047Y-131452952D02*
X152400666Y-131405333D01*
X152495904Y-131357714D01*
X152638761Y-131357714D01*
X152734000Y-131405333D01*
X152781619Y-131500571D01*
X152781619Y-132024380D01*
X152781619Y-131500571D02*
X152829238Y-131405333D01*
X152924476Y-131357714D01*
X153067333Y-131357714D01*
X153162571Y-131405333D01*
X153210190Y-131500571D01*
X153210190Y-132024380D01*
X153638761Y-131976761D02*
X153734000Y-132024380D01*
X153924476Y-132024380D01*
X154019714Y-131976761D01*
X154067333Y-131881523D01*
X154067333Y-131833904D01*
X154019714Y-131738666D01*
X153924476Y-131691047D01*
X153781619Y-131691047D01*
X153686380Y-131643428D01*
X153638761Y-131548190D01*
X153638761Y-131500571D01*
X153686380Y-131405333D01*
X153781619Y-131357714D01*
X153924476Y-131357714D01*
X154019714Y-131405333D01*
X154400666Y-131024380D02*
X155067333Y-131024380D01*
X154638761Y-132024380D01*
X155876857Y-131357714D02*
X155876857Y-132024380D01*
X155638761Y-130976761D02*
X155400666Y-131691047D01*
X156019714Y-131691047D01*
X156353047Y-131119619D02*
X156400666Y-131072000D01*
X156495904Y-131024380D01*
X156734000Y-131024380D01*
X156829238Y-131072000D01*
X156876857Y-131119619D01*
X156924476Y-131214857D01*
X156924476Y-131310095D01*
X156876857Y-131452952D01*
X156305428Y-132024380D01*
X156924476Y-132024380D01*
X157543523Y-131024380D02*
X157638761Y-131024380D01*
X157734000Y-131072000D01*
X157781619Y-131119619D01*
X157829238Y-131214857D01*
X157876857Y-131405333D01*
X157876857Y-131643428D01*
X157829238Y-131833904D01*
X157781619Y-131929142D01*
X157734000Y-131976761D01*
X157638761Y-132024380D01*
X157543523Y-132024380D01*
X157448285Y-131976761D01*
X157400666Y-131929142D01*
X157353047Y-131833904D01*
X157305428Y-131643428D01*
X157305428Y-131405333D01*
X157353047Y-131214857D01*
X157400666Y-131119619D01*
X157448285Y-131072000D01*
X157543523Y-131024380D01*
X158353047Y-132024380D02*
X158543523Y-132024380D01*
X158638761Y-131976761D01*
X158686380Y-131929142D01*
X158781619Y-131786285D01*
X158829238Y-131595809D01*
X158829238Y-131214857D01*
X158781619Y-131119619D01*
X158734000Y-131072000D01*
X158638761Y-131024380D01*
X158448285Y-131024380D01*
X158353047Y-131072000D01*
X158305428Y-131119619D01*
X158257809Y-131214857D01*
X158257809Y-131452952D01*
X158305428Y-131548190D01*
X158353047Y-131595809D01*
X158448285Y-131643428D01*
X158638761Y-131643428D01*
X158734000Y-131595809D01*
X158781619Y-131548190D01*
X158829238Y-131452952D01*
X159210190Y-131119619D02*
X159257809Y-131072000D01*
X159353047Y-131024380D01*
X159591142Y-131024380D01*
X159686380Y-131072000D01*
X159734000Y-131119619D01*
X159781619Y-131214857D01*
X159781619Y-131310095D01*
X159734000Y-131452952D01*
X159162571Y-132024380D01*
X159781619Y-132024380D01*
X160400666Y-131024380D02*
X160495904Y-131024380D01*
X160591142Y-131072000D01*
X160638761Y-131119619D01*
X160686380Y-131214857D01*
X160734000Y-131405333D01*
X160734000Y-131643428D01*
X160686380Y-131833904D01*
X160638761Y-131929142D01*
X160591142Y-131976761D01*
X160495904Y-132024380D01*
X160400666Y-132024380D01*
X160305428Y-131976761D01*
X160257809Y-131929142D01*
X160210190Y-131833904D01*
X160162571Y-131643428D01*
X160162571Y-131405333D01*
X160210190Y-131214857D01*
X160257809Y-131119619D01*
X160305428Y-131072000D01*
X160400666Y-131024380D01*
X161353047Y-131024380D02*
X161448285Y-131024380D01*
X161543523Y-131072000D01*
X161591142Y-131119619D01*
X161638761Y-131214857D01*
X161686380Y-131405333D01*
X161686380Y-131643428D01*
X161638761Y-131833904D01*
X161591142Y-131929142D01*
X161543523Y-131976761D01*
X161448285Y-132024380D01*
X161353047Y-132024380D01*
X161257809Y-131976761D01*
X161210190Y-131929142D01*
X161162571Y-131833904D01*
X161114952Y-131643428D01*
X161114952Y-131405333D01*
X161162571Y-131214857D01*
X161210190Y-131119619D01*
X161257809Y-131072000D01*
X161353047Y-131024380D01*
X162829238Y-130976761D02*
X161972095Y-132262476D01*
X163162571Y-132024380D02*
X163162571Y-131024380D01*
X163734000Y-132024380D01*
X163734000Y-131024380D01*
X164638761Y-132024380D02*
X164638761Y-131500571D01*
X164591142Y-131405333D01*
X164495904Y-131357714D01*
X164305428Y-131357714D01*
X164210190Y-131405333D01*
X164638761Y-131976761D02*
X164543523Y-132024380D01*
X164305428Y-132024380D01*
X164210190Y-131976761D01*
X164162571Y-131881523D01*
X164162571Y-131786285D01*
X164210190Y-131691047D01*
X164305428Y-131643428D01*
X164543523Y-131643428D01*
X164638761Y-131595809D01*
X165114952Y-132024380D02*
X165114952Y-131357714D01*
X165114952Y-131452952D02*
X165162571Y-131405333D01*
X165257809Y-131357714D01*
X165400666Y-131357714D01*
X165495904Y-131405333D01*
X165543523Y-131500571D01*
X165543523Y-132024380D01*
X165543523Y-131500571D02*
X165591142Y-131405333D01*
X165686380Y-131357714D01*
X165829238Y-131357714D01*
X165924476Y-131405333D01*
X165972095Y-131500571D01*
X165972095Y-132024380D01*
X166829238Y-131976761D02*
X166734000Y-132024380D01*
X166543523Y-132024380D01*
X166448285Y-131976761D01*
X166400666Y-131881523D01*
X166400666Y-131500571D01*
X166448285Y-131405333D01*
X166543523Y-131357714D01*
X166734000Y-131357714D01*
X166829238Y-131405333D01*
X166876857Y-131500571D01*
X166876857Y-131595809D01*
X166400666Y-131691047D01*
X167067333Y-132119619D02*
X167829238Y-132119619D01*
X168495904Y-131976761D02*
X168400666Y-132024380D01*
X168210190Y-132024380D01*
X168114952Y-131976761D01*
X168067333Y-131929142D01*
X168019714Y-131833904D01*
X168019714Y-131548190D01*
X168067333Y-131452952D01*
X168114952Y-131405333D01*
X168210190Y-131357714D01*
X168400666Y-131357714D01*
X168495904Y-131405333D01*
X169353047Y-132024380D02*
X169353047Y-131500571D01*
X169305428Y-131405333D01*
X169210190Y-131357714D01*
X169019714Y-131357714D01*
X168924476Y-131405333D01*
X169353047Y-131976761D02*
X169257809Y-132024380D01*
X169019714Y-132024380D01*
X168924476Y-131976761D01*
X168876857Y-131881523D01*
X168876857Y-131786285D01*
X168924476Y-131691047D01*
X169019714Y-131643428D01*
X169257809Y-131643428D01*
X169353047Y-131595809D01*
X169829238Y-132024380D02*
X169829238Y-131357714D01*
X169829238Y-131548190D02*
X169876857Y-131452952D01*
X169924476Y-131405333D01*
X170019714Y-131357714D01*
X170114952Y-131357714D01*
X170876857Y-132024380D02*
X170876857Y-131024380D01*
X170876857Y-131976761D02*
X170781619Y-132024380D01*
X170591142Y-132024380D01*
X170495904Y-131976761D01*
X170448285Y-131929142D01*
X170400666Y-131833904D01*
X170400666Y-131548190D01*
X170448285Y-131452952D01*
X170495904Y-131405333D01*
X170591142Y-131357714D01*
X170781619Y-131357714D01*
X170876857Y-131405333D01*
X171114952Y-132119619D02*
X171876857Y-132119619D01*
X172114952Y-132024380D02*
X172114952Y-131024380D01*
X172686380Y-132024380D02*
X172257809Y-131452952D01*
X172686380Y-131024380D02*
X172114952Y-131595809D01*
X173495904Y-131976761D02*
X173400666Y-132024380D01*
X173210190Y-132024380D01*
X173114952Y-131976761D01*
X173067333Y-131881523D01*
X173067333Y-131500571D01*
X173114952Y-131405333D01*
X173210190Y-131357714D01*
X173400666Y-131357714D01*
X173495904Y-131405333D01*
X173543523Y-131500571D01*
X173543523Y-131595809D01*
X173067333Y-131691047D01*
X173876857Y-131357714D02*
X174114952Y-132024380D01*
X174353047Y-131357714D02*
X174114952Y-132024380D01*
X174019714Y-132262476D01*
X173972095Y-132310095D01*
X173876857Y-132357714D01*
X174734000Y-132024380D02*
X174734000Y-131024380D01*
X174734000Y-131405333D02*
X174829238Y-131357714D01*
X175019714Y-131357714D01*
X175114952Y-131405333D01*
X175162571Y-131452952D01*
X175210190Y-131548190D01*
X175210190Y-131833904D01*
X175162571Y-131929142D01*
X175114952Y-131976761D01*
X175019714Y-132024380D01*
X174829238Y-132024380D01*
X174734000Y-131976761D01*
X175781619Y-132024380D02*
X175686380Y-131976761D01*
X175638761Y-131929142D01*
X175591142Y-131833904D01*
X175591142Y-131548190D01*
X175638761Y-131452952D01*
X175686380Y-131405333D01*
X175781619Y-131357714D01*
X175924476Y-131357714D01*
X176019714Y-131405333D01*
X176067333Y-131452952D01*
X176114952Y-131548190D01*
X176114952Y-131833904D01*
X176067333Y-131929142D01*
X176019714Y-131976761D01*
X175924476Y-132024380D01*
X175781619Y-132024380D01*
X176972095Y-132024380D02*
X176972095Y-131500571D01*
X176924476Y-131405333D01*
X176829238Y-131357714D01*
X176638761Y-131357714D01*
X176543523Y-131405333D01*
X176972095Y-131976761D02*
X176876857Y-132024380D01*
X176638761Y-132024380D01*
X176543523Y-131976761D01*
X176495904Y-131881523D01*
X176495904Y-131786285D01*
X176543523Y-131691047D01*
X176638761Y-131643428D01*
X176876857Y-131643428D01*
X176972095Y-131595809D01*
X177448285Y-132024380D02*
X177448285Y-131357714D01*
X177448285Y-131548190D02*
X177495904Y-131452952D01*
X177543523Y-131405333D01*
X177638761Y-131357714D01*
X177734000Y-131357714D01*
X178495904Y-132024380D02*
X178495904Y-131024380D01*
X178495904Y-131976761D02*
X178400666Y-132024380D01*
X178210190Y-132024380D01*
X178114952Y-131976761D01*
X178067333Y-131929142D01*
X178019714Y-131833904D01*
X178019714Y-131548190D01*
X178067333Y-131452952D01*
X178114952Y-131405333D01*
X178210190Y-131357714D01*
X178400666Y-131357714D01*
X178495904Y-131405333D01*
X178734000Y-132119619D02*
X179495904Y-132119619D01*
X180162571Y-131357714D02*
X180162571Y-132024380D01*
X179924476Y-130976761D02*
X179686380Y-131691047D01*
X180305428Y-131691047D01*
X121858738Y-128421380D02*
X122430166Y-128421380D01*
X122144452Y-129421380D02*
X122144452Y-128421380D01*
X122763500Y-129421380D02*
X122763500Y-128421380D01*
X122763500Y-128897571D02*
X123334928Y-128897571D01*
X123334928Y-129421380D02*
X123334928Y-128421380D01*
X123811119Y-128897571D02*
X124144452Y-128897571D01*
X124287309Y-129421380D02*
X123811119Y-129421380D01*
X123811119Y-128421380D01*
X124287309Y-128421380D01*
X125430166Y-129373761D02*
X125573023Y-129421380D01*
X125811119Y-129421380D01*
X125906357Y-129373761D01*
X125953976Y-129326142D01*
X126001595Y-129230904D01*
X126001595Y-129135666D01*
X125953976Y-129040428D01*
X125906357Y-128992809D01*
X125811119Y-128945190D01*
X125620642Y-128897571D01*
X125525404Y-128849952D01*
X125477785Y-128802333D01*
X125430166Y-128707095D01*
X125430166Y-128611857D01*
X125477785Y-128516619D01*
X125525404Y-128469000D01*
X125620642Y-128421380D01*
X125858738Y-128421380D01*
X126001595Y-128469000D01*
X126287309Y-128421380D02*
X126858738Y-128421380D01*
X126573023Y-129421380D02*
X126573023Y-128421380D01*
X127192071Y-128421380D02*
X127192071Y-129230904D01*
X127239690Y-129326142D01*
X127287309Y-129373761D01*
X127382547Y-129421380D01*
X127573023Y-129421380D01*
X127668261Y-129373761D01*
X127715880Y-129326142D01*
X127763500Y-129230904D01*
X127763500Y-128421380D01*
X128239690Y-129421380D02*
X128239690Y-128421380D01*
X128477785Y-128421380D01*
X128620642Y-128469000D01*
X128715880Y-128564238D01*
X128763500Y-128659476D01*
X128811119Y-128849952D01*
X128811119Y-128992809D01*
X128763500Y-129183285D01*
X128715880Y-129278523D01*
X128620642Y-129373761D01*
X128477785Y-129421380D01*
X128239690Y-129421380D01*
X129430166Y-128945190D02*
X129430166Y-129421380D01*
X129096833Y-128421380D02*
X129430166Y-128945190D01*
X129763500Y-128421380D01*
X130858738Y-129421380D02*
X130858738Y-128421380D01*
X131334928Y-129421380D02*
X131334928Y-128421380D01*
X131906357Y-129421380D01*
X131906357Y-128421380D01*
X133096833Y-129373761D02*
X133239690Y-129421380D01*
X133477785Y-129421380D01*
X133573023Y-129373761D01*
X133620642Y-129326142D01*
X133668261Y-129230904D01*
X133668261Y-129135666D01*
X133620642Y-129040428D01*
X133573023Y-128992809D01*
X133477785Y-128945190D01*
X133287309Y-128897571D01*
X133192071Y-128849952D01*
X133144452Y-128802333D01*
X133096833Y-128707095D01*
X133096833Y-128611857D01*
X133144452Y-128516619D01*
X133192071Y-128469000D01*
X133287309Y-128421380D01*
X133525404Y-128421380D01*
X133668261Y-128469000D01*
X134668261Y-129326142D02*
X134620642Y-129373761D01*
X134477785Y-129421380D01*
X134382547Y-129421380D01*
X134239690Y-129373761D01*
X134144452Y-129278523D01*
X134096833Y-129183285D01*
X134049214Y-128992809D01*
X134049214Y-128849952D01*
X134096833Y-128659476D01*
X134144452Y-128564238D01*
X134239690Y-128469000D01*
X134382547Y-128421380D01*
X134477785Y-128421380D01*
X134620642Y-128469000D01*
X134668261Y-128516619D01*
X135049214Y-129135666D02*
X135525404Y-129135666D01*
X134953976Y-129421380D02*
X135287309Y-128421380D01*
X135620642Y-129421380D01*
X136525404Y-129421380D02*
X136192071Y-128945190D01*
X135953976Y-129421380D02*
X135953976Y-128421380D01*
X136334928Y-128421380D01*
X136430166Y-128469000D01*
X136477785Y-128516619D01*
X136525404Y-128611857D01*
X136525404Y-128754714D01*
X136477785Y-128849952D01*
X136430166Y-128897571D01*
X136334928Y-128945190D01*
X135953976Y-128945190D01*
X137430166Y-129421380D02*
X136953976Y-129421380D01*
X136953976Y-128421380D01*
X137763500Y-128897571D02*
X138096833Y-128897571D01*
X138239690Y-129421380D02*
X137763500Y-129421380D01*
X137763500Y-128421380D01*
X138239690Y-128421380D01*
X138525404Y-128421380D02*
X139096833Y-128421380D01*
X138811119Y-129421380D02*
X138811119Y-128421380D01*
X122001595Y-131071380D02*
X122001595Y-130071380D01*
X122573023Y-131071380D01*
X122573023Y-130071380D01*
X123620642Y-130976142D02*
X123573023Y-131023761D01*
X123430166Y-131071380D01*
X123334928Y-131071380D01*
X123192071Y-131023761D01*
X123096833Y-130928523D01*
X123049214Y-130833285D01*
X123001595Y-130642809D01*
X123001595Y-130499952D01*
X123049214Y-130309476D01*
X123096833Y-130214238D01*
X123192071Y-130119000D01*
X123334928Y-130071380D01*
X123430166Y-130071380D01*
X123573023Y-130119000D01*
X123620642Y-130166619D01*
X124049214Y-131071380D02*
X124049214Y-130071380D01*
X124620642Y-131071380D02*
X124192071Y-130499952D01*
X124620642Y-130071380D02*
X124049214Y-130642809D01*
X125049214Y-130690428D02*
X125811119Y-130690428D01*
X126715880Y-130404714D02*
X126715880Y-131071380D01*
X126477785Y-130023761D02*
X126239690Y-130738047D01*
X126858738Y-130738047D01*
X127239690Y-130690428D02*
X128001595Y-130690428D01*
X128430166Y-130166619D02*
X128477785Y-130119000D01*
X128573023Y-130071380D01*
X128811119Y-130071380D01*
X128906357Y-130119000D01*
X128953976Y-130166619D01*
X129001595Y-130261857D01*
X129001595Y-130357095D01*
X128953976Y-130499952D01*
X128382547Y-131071380D01*
X129001595Y-131071380D01*
X129620642Y-130071380D02*
X129715880Y-130071380D01*
X129811119Y-130119000D01*
X129858738Y-130166619D01*
X129906357Y-130261857D01*
X129953976Y-130452333D01*
X129953976Y-130690428D01*
X129906357Y-130880904D01*
X129858738Y-130976142D01*
X129811119Y-131023761D01*
X129715880Y-131071380D01*
X129620642Y-131071380D01*
X129525404Y-131023761D01*
X129477785Y-130976142D01*
X129430166Y-130880904D01*
X129382547Y-130690428D01*
X129382547Y-130452333D01*
X129430166Y-130261857D01*
X129477785Y-130166619D01*
X129525404Y-130119000D01*
X129620642Y-130071380D01*
X130382547Y-130690428D02*
X131144452Y-130690428D01*
X132192071Y-130976142D02*
X132144452Y-131023761D01*
X132001595Y-131071380D01*
X131906357Y-131071380D01*
X131763500Y-131023761D01*
X131668261Y-130928523D01*
X131620642Y-130833285D01*
X131573023Y-130642809D01*
X131573023Y-130499952D01*
X131620642Y-130309476D01*
X131668261Y-130214238D01*
X131763500Y-130119000D01*
X131906357Y-130071380D01*
X132001595Y-130071380D01*
X132144452Y-130119000D01*
X132192071Y-130166619D01*
D10*
X164465000Y-101854000D02*
G75*
G03*
X164465000Y-101854000I-127000J0D01*
G01*
D12*
%TO.C,G\u002A\u002A\u002A*%
G36*
X114595031Y-131204677D02*
G01*
X114919370Y-131204677D01*
X114919370Y-129743200D01*
X116548877Y-129743200D01*
X116548877Y-132177693D01*
X115570000Y-132177693D01*
X115570000Y-131695093D01*
X115245662Y-131695093D01*
X115245662Y-132177693D01*
X114268739Y-132177693D01*
X114268739Y-131695093D01*
X113944400Y-131695093D01*
X113944400Y-132177693D01*
X112969431Y-132177693D01*
X112969431Y-129743200D01*
X114595031Y-129743200D01*
X114595031Y-131204677D01*
G37*
X114595031Y-131204677D02*
X114919370Y-131204677D01*
X114919370Y-129743200D01*
X116548877Y-129743200D01*
X116548877Y-132177693D01*
X115570000Y-132177693D01*
X115570000Y-131695093D01*
X115245662Y-131695093D01*
X115245662Y-132177693D01*
X114268739Y-132177693D01*
X114268739Y-131695093D01*
X113944400Y-131695093D01*
X113944400Y-132177693D01*
X112969431Y-132177693D01*
X112969431Y-129743200D01*
X114595031Y-129743200D01*
X114595031Y-131204677D01*
G36*
X112645093Y-132177693D02*
G01*
X110202785Y-132177693D01*
X110202785Y-130880339D01*
X111337970Y-130880339D01*
X111337970Y-131530970D01*
X111988600Y-131530970D01*
X111988600Y-130880339D01*
X111337970Y-130880339D01*
X110202785Y-130880339D01*
X110202785Y-129743200D01*
X112645093Y-129743200D01*
X112645093Y-132177693D01*
G37*
X112645093Y-132177693D02*
X110202785Y-132177693D01*
X110202785Y-130880339D01*
X111337970Y-130880339D01*
X111337970Y-131530970D01*
X111988600Y-131530970D01*
X111988600Y-130880339D01*
X111337970Y-130880339D01*
X110202785Y-130880339D01*
X110202785Y-129743200D01*
X112645093Y-129743200D01*
X112645093Y-132177693D01*
G36*
X116548877Y-129418862D02*
G01*
X109876493Y-129418862D01*
X109876493Y-132177693D01*
X108737400Y-132177693D01*
X108737400Y-129418862D01*
X107922647Y-129418862D01*
X107922647Y-127953477D01*
X116548877Y-127953477D01*
X116548877Y-129418862D01*
G37*
X116548877Y-129418862D02*
X109876493Y-129418862D01*
X109876493Y-132177693D01*
X108737400Y-132177693D01*
X108737400Y-129418862D01*
X107922647Y-129418862D01*
X107922647Y-127953477D01*
X116548877Y-127953477D01*
X116548877Y-129418862D01*
G36*
X119153354Y-131206631D02*
G01*
X118502723Y-131206631D01*
X118502723Y-131530970D01*
X119153354Y-131530970D01*
X119153354Y-133160477D01*
X112965523Y-133160477D01*
X112965523Y-132507893D01*
X118176431Y-132507893D01*
X118176431Y-132183554D01*
X116873216Y-132183554D01*
X116873216Y-129739293D01*
X119153354Y-129739293D01*
X119153354Y-131206631D01*
G37*
X119153354Y-131206631D02*
X118502723Y-131206631D01*
X118502723Y-131530970D01*
X119153354Y-131530970D01*
X119153354Y-133160477D01*
X112965523Y-133160477D01*
X112965523Y-132507893D01*
X118176431Y-132507893D01*
X118176431Y-132183554D01*
X116873216Y-132183554D01*
X116873216Y-129739293D01*
X119153354Y-129739293D01*
X119153354Y-131206631D01*
D13*
%TO.C,J3*%
X108652000Y-83880000D02*
X108652000Y-82550000D01*
X109982000Y-83880000D02*
X108652000Y-83880000D01*
X111252000Y-83880000D02*
X111252000Y-81220000D01*
X111252000Y-81220000D02*
X139252000Y-81220000D01*
X111252000Y-83880000D02*
X139252000Y-83880000D01*
X139252000Y-83880000D02*
X139252000Y-81220000D01*
D14*
%TO.C,J1*%
X185177000Y-86910000D02*
X187577000Y-86910000D01*
X185177000Y-98510000D02*
X187577000Y-98510000D01*
D13*
%TO.C,R4*%
X178399221Y-95760000D02*
X178724779Y-95760000D01*
X178399221Y-94740000D02*
X178724779Y-94740000D01*
%TO.C,R2*%
X178399221Y-93220000D02*
X178724779Y-93220000D01*
X178399221Y-92200000D02*
X178724779Y-92200000D01*
D15*
%TO.C,U1*%
X161254700Y-101790000D02*
G75*
G03*
X161254700Y-101790000I-282700J0D01*
G01*
D16*
X161772000Y-92990000D02*
X161772000Y-102590000D01*
X152172000Y-92990000D02*
X161772000Y-92990000D01*
X152172000Y-102590000D02*
X152172000Y-92990000D01*
X161772000Y-102590000D02*
X152172000Y-102590000D01*
D13*
%TO.C,C1*%
X147919221Y-83060000D02*
X148244779Y-83060000D01*
X147919221Y-82040000D02*
X148244779Y-82040000D01*
%TO.C,C2*%
X172049221Y-90680000D02*
X172374779Y-90680000D01*
X172049221Y-89660000D02*
X172374779Y-89660000D01*
%TO.C,C3*%
X158079221Y-83060000D02*
X158404779Y-83060000D01*
X158079221Y-82040000D02*
X158404779Y-82040000D01*
%TO.C,C4*%
X166969221Y-88140000D02*
X167294779Y-88140000D01*
X166969221Y-87120000D02*
X167294779Y-87120000D01*
%TO.C,C5*%
X163159221Y-88140000D02*
X163484779Y-88140000D01*
X163159221Y-87120000D02*
X163484779Y-87120000D01*
%TO.C,C6*%
X165699221Y-106428000D02*
X166024779Y-106428000D01*
X165699221Y-105408000D02*
X166024779Y-105408000D01*
%TO.C,C7*%
X166969221Y-98300000D02*
X167294779Y-98300000D01*
X166969221Y-97280000D02*
X167294779Y-97280000D01*
%TO.C,D1*%
X169504000Y-86630000D02*
X173354000Y-86630000D01*
X169504000Y-88630000D02*
X173354000Y-88630000D01*
X169504000Y-86630000D02*
X169504000Y-88630000D01*
%TO.C,D2*%
X185077000Y-99595000D02*
X182792000Y-99595000D01*
X182792000Y-99595000D02*
X182792000Y-101065000D01*
X182792000Y-101065000D02*
X185077000Y-101065000D01*
%TO.C,D3*%
X120432000Y-101870000D02*
X124332000Y-101870000D01*
X120432000Y-103870000D02*
X124332000Y-103870000D01*
X120432000Y-101870000D02*
X120432000Y-103870000D01*
%TO.C,D4*%
X126782000Y-101870000D02*
X130682000Y-101870000D01*
X126782000Y-103870000D02*
X130682000Y-103870000D01*
X126782000Y-101870000D02*
X126782000Y-103870000D01*
%TO.C,D5*%
X133132000Y-101870000D02*
X137032000Y-101870000D01*
X133132000Y-103870000D02*
X137032000Y-103870000D01*
X133132000Y-101870000D02*
X133132000Y-103870000D01*
%TO.C,D6*%
X139482000Y-101870000D02*
X143382000Y-101870000D01*
X139482000Y-103870000D02*
X143382000Y-103870000D01*
X139482000Y-101870000D02*
X139482000Y-103870000D01*
%TO.C,F1*%
X178399221Y-88140000D02*
X178724779Y-88140000D01*
X178399221Y-87120000D02*
X178724779Y-87120000D01*
%TO.C,J2*%
X108652000Y-99120000D02*
X108652000Y-97790000D01*
X109982000Y-99120000D02*
X108652000Y-99120000D01*
X111252000Y-99120000D02*
X111252000Y-96460000D01*
X111252000Y-96460000D02*
X139252000Y-96460000D01*
X111252000Y-99120000D02*
X139252000Y-99120000D01*
X139252000Y-99120000D02*
X139252000Y-96460000D01*
%TO.C,J4*%
X161992000Y-83880000D02*
X161992000Y-82550000D01*
X163322000Y-83880000D02*
X161992000Y-83880000D01*
X164592000Y-83880000D02*
X164592000Y-81220000D01*
X164592000Y-81220000D02*
X177352000Y-81220000D01*
X164592000Y-83880000D02*
X177352000Y-83880000D01*
X177352000Y-83880000D02*
X177352000Y-81220000D01*
%TO.C,R1*%
X178399221Y-98300000D02*
X178724779Y-98300000D01*
X178399221Y-97280000D02*
X178724779Y-97280000D01*
%TO.C,R3*%
X178399221Y-90680000D02*
X178724779Y-90680000D01*
X178399221Y-89660000D02*
X178724779Y-89660000D01*
%TO.C,R5*%
X178399221Y-100840000D02*
X178724779Y-100840000D01*
X178399221Y-99820000D02*
X178724779Y-99820000D01*
%TO.C,R6*%
X166969221Y-90680000D02*
X167294779Y-90680000D01*
X166969221Y-89660000D02*
X167294779Y-89660000D01*
%TO.C,Y1*%
X159862000Y-83810000D02*
X147262000Y-83810000D01*
X159862000Y-88910000D02*
X159862000Y-83810000D01*
X147262000Y-88910000D02*
X159862000Y-88910000D01*
%TO.C,J3*%
D11*
X107318666Y-82002380D02*
X107318666Y-82716666D01*
X107271047Y-82859523D01*
X107175809Y-82954761D01*
X107032952Y-83002380D01*
X106937714Y-83002380D01*
X107699619Y-82002380D02*
X108318666Y-82002380D01*
X107985333Y-82383333D01*
X108128190Y-82383333D01*
X108223428Y-82430952D01*
X108271047Y-82478571D01*
X108318666Y-82573809D01*
X108318666Y-82811904D01*
X108271047Y-82907142D01*
X108223428Y-82954761D01*
X108128190Y-83002380D01*
X107842476Y-83002380D01*
X107747238Y-82954761D01*
X107699619Y-82907142D01*
%TO.C,J1*%
X182673666Y-84542380D02*
X182673666Y-85256666D01*
X182626047Y-85399523D01*
X182530809Y-85494761D01*
X182387952Y-85542380D01*
X182292714Y-85542380D01*
X183673666Y-85542380D02*
X183102238Y-85542380D01*
X183387952Y-85542380D02*
X183387952Y-84542380D01*
X183292714Y-84685238D01*
X183197476Y-84780476D01*
X183102238Y-84828095D01*
%TO.C,R4*%
X175372833Y-95702380D02*
X175039500Y-95226190D01*
X174801404Y-95702380D02*
X174801404Y-94702380D01*
X175182357Y-94702380D01*
X175277595Y-94750000D01*
X175325214Y-94797619D01*
X175372833Y-94892857D01*
X175372833Y-95035714D01*
X175325214Y-95130952D01*
X175277595Y-95178571D01*
X175182357Y-95226190D01*
X174801404Y-95226190D01*
X176229976Y-95035714D02*
X176229976Y-95702380D01*
X175991880Y-94654761D02*
X175753785Y-95369047D01*
X176372833Y-95369047D01*
%TO.C,R2*%
X175372833Y-93162380D02*
X175039500Y-92686190D01*
X174801404Y-93162380D02*
X174801404Y-92162380D01*
X175182357Y-92162380D01*
X175277595Y-92210000D01*
X175325214Y-92257619D01*
X175372833Y-92352857D01*
X175372833Y-92495714D01*
X175325214Y-92590952D01*
X175277595Y-92638571D01*
X175182357Y-92686190D01*
X174801404Y-92686190D01*
X175753785Y-92257619D02*
X175801404Y-92210000D01*
X175896642Y-92162380D01*
X176134738Y-92162380D01*
X176229976Y-92210000D01*
X176277595Y-92257619D01*
X176325214Y-92352857D01*
X176325214Y-92448095D01*
X176277595Y-92590952D01*
X175706166Y-93162380D01*
X176325214Y-93162380D01*
%TO.C,U1*%
X150495095Y-91527380D02*
X150495095Y-92336904D01*
X150542714Y-92432142D01*
X150590333Y-92479761D01*
X150685571Y-92527380D01*
X150876047Y-92527380D01*
X150971285Y-92479761D01*
X151018904Y-92432142D01*
X151066523Y-92336904D01*
X151066523Y-91527380D01*
X152066523Y-92527380D02*
X151495095Y-92527380D01*
X151780809Y-92527380D02*
X151780809Y-91527380D01*
X151685571Y-91670238D01*
X151590333Y-91765476D01*
X151495095Y-91813095D01*
%TO.C,C1*%
X145375333Y-82907142D02*
X145327714Y-82954761D01*
X145184857Y-83002380D01*
X145089619Y-83002380D01*
X144946761Y-82954761D01*
X144851523Y-82859523D01*
X144803904Y-82764285D01*
X144756285Y-82573809D01*
X144756285Y-82430952D01*
X144803904Y-82240476D01*
X144851523Y-82145238D01*
X144946761Y-82050000D01*
X145089619Y-82002380D01*
X145184857Y-82002380D01*
X145327714Y-82050000D01*
X145375333Y-82097619D01*
X146327714Y-83002380D02*
X145756285Y-83002380D01*
X146042000Y-83002380D02*
X146042000Y-82002380D01*
X145946761Y-82145238D01*
X145851523Y-82240476D01*
X145756285Y-82288095D01*
%TO.C,C2*%
X172045333Y-91797142D02*
X171997714Y-91844761D01*
X171854857Y-91892380D01*
X171759619Y-91892380D01*
X171616761Y-91844761D01*
X171521523Y-91749523D01*
X171473904Y-91654285D01*
X171426285Y-91463809D01*
X171426285Y-91320952D01*
X171473904Y-91130476D01*
X171521523Y-91035238D01*
X171616761Y-90940000D01*
X171759619Y-90892380D01*
X171854857Y-90892380D01*
X171997714Y-90940000D01*
X172045333Y-90987619D01*
X172426285Y-90987619D02*
X172473904Y-90940000D01*
X172569142Y-90892380D01*
X172807238Y-90892380D01*
X172902476Y-90940000D01*
X172950095Y-90987619D01*
X172997714Y-91082857D01*
X172997714Y-91178095D01*
X172950095Y-91320952D01*
X172378666Y-91892380D01*
X172997714Y-91892380D01*
%TO.C,C3*%
X155535333Y-82907142D02*
X155487714Y-82954761D01*
X155344857Y-83002380D01*
X155249619Y-83002380D01*
X155106761Y-82954761D01*
X155011523Y-82859523D01*
X154963904Y-82764285D01*
X154916285Y-82573809D01*
X154916285Y-82430952D01*
X154963904Y-82240476D01*
X155011523Y-82145238D01*
X155106761Y-82050000D01*
X155249619Y-82002380D01*
X155344857Y-82002380D01*
X155487714Y-82050000D01*
X155535333Y-82097619D01*
X155868666Y-82002380D02*
X156487714Y-82002380D01*
X156154380Y-82383333D01*
X156297238Y-82383333D01*
X156392476Y-82430952D01*
X156440095Y-82478571D01*
X156487714Y-82573809D01*
X156487714Y-82811904D01*
X156440095Y-82907142D01*
X156392476Y-82954761D01*
X156297238Y-83002380D01*
X156011523Y-83002380D01*
X155916285Y-82954761D01*
X155868666Y-82907142D01*
%TO.C,C4*%
X166965333Y-86557142D02*
X166917714Y-86604761D01*
X166774857Y-86652380D01*
X166679619Y-86652380D01*
X166536761Y-86604761D01*
X166441523Y-86509523D01*
X166393904Y-86414285D01*
X166346285Y-86223809D01*
X166346285Y-86080952D01*
X166393904Y-85890476D01*
X166441523Y-85795238D01*
X166536761Y-85700000D01*
X166679619Y-85652380D01*
X166774857Y-85652380D01*
X166917714Y-85700000D01*
X166965333Y-85747619D01*
X167822476Y-85985714D02*
X167822476Y-86652380D01*
X167584380Y-85604761D02*
X167346285Y-86319047D01*
X167965333Y-86319047D01*
%TO.C,C5*%
X163155333Y-86557142D02*
X163107714Y-86604761D01*
X162964857Y-86652380D01*
X162869619Y-86652380D01*
X162726761Y-86604761D01*
X162631523Y-86509523D01*
X162583904Y-86414285D01*
X162536285Y-86223809D01*
X162536285Y-86080952D01*
X162583904Y-85890476D01*
X162631523Y-85795238D01*
X162726761Y-85700000D01*
X162869619Y-85652380D01*
X162964857Y-85652380D01*
X163107714Y-85700000D01*
X163155333Y-85747619D01*
X164060095Y-85652380D02*
X163583904Y-85652380D01*
X163536285Y-86128571D01*
X163583904Y-86080952D01*
X163679142Y-86033333D01*
X163917238Y-86033333D01*
X164012476Y-86080952D01*
X164060095Y-86128571D01*
X164107714Y-86223809D01*
X164107714Y-86461904D01*
X164060095Y-86557142D01*
X164012476Y-86604761D01*
X163917238Y-86652380D01*
X163679142Y-86652380D01*
X163583904Y-86604761D01*
X163536285Y-86557142D01*
%TO.C,C6*%
X165695333Y-104751142D02*
X165647714Y-104798761D01*
X165504857Y-104846380D01*
X165409619Y-104846380D01*
X165266761Y-104798761D01*
X165171523Y-104703523D01*
X165123904Y-104608285D01*
X165076285Y-104417809D01*
X165076285Y-104274952D01*
X165123904Y-104084476D01*
X165171523Y-103989238D01*
X165266761Y-103894000D01*
X165409619Y-103846380D01*
X165504857Y-103846380D01*
X165647714Y-103894000D01*
X165695333Y-103941619D01*
X166552476Y-103846380D02*
X166362000Y-103846380D01*
X166266761Y-103894000D01*
X166219142Y-103941619D01*
X166123904Y-104084476D01*
X166076285Y-104274952D01*
X166076285Y-104655904D01*
X166123904Y-104751142D01*
X166171523Y-104798761D01*
X166266761Y-104846380D01*
X166457238Y-104846380D01*
X166552476Y-104798761D01*
X166600095Y-104751142D01*
X166647714Y-104655904D01*
X166647714Y-104417809D01*
X166600095Y-104322571D01*
X166552476Y-104274952D01*
X166457238Y-104227333D01*
X166266761Y-104227333D01*
X166171523Y-104274952D01*
X166123904Y-104322571D01*
X166076285Y-104417809D01*
%TO.C,C7*%
X169505333Y-98147142D02*
X169457714Y-98194761D01*
X169314857Y-98242380D01*
X169219619Y-98242380D01*
X169076761Y-98194761D01*
X168981523Y-98099523D01*
X168933904Y-98004285D01*
X168886285Y-97813809D01*
X168886285Y-97670952D01*
X168933904Y-97480476D01*
X168981523Y-97385238D01*
X169076761Y-97290000D01*
X169219619Y-97242380D01*
X169314857Y-97242380D01*
X169457714Y-97290000D01*
X169505333Y-97337619D01*
X169838666Y-97242380D02*
X170505333Y-97242380D01*
X170076761Y-98242380D01*
%TO.C,D1*%
X170838904Y-86177380D02*
X170838904Y-85177380D01*
X171077000Y-85177380D01*
X171219857Y-85225000D01*
X171315095Y-85320238D01*
X171362714Y-85415476D01*
X171410333Y-85605952D01*
X171410333Y-85748809D01*
X171362714Y-85939285D01*
X171315095Y-86034523D01*
X171219857Y-86129761D01*
X171077000Y-86177380D01*
X170838904Y-86177380D01*
X172362714Y-86177380D02*
X171791285Y-86177380D01*
X172077000Y-86177380D02*
X172077000Y-85177380D01*
X171981761Y-85320238D01*
X171886523Y-85415476D01*
X171791285Y-85463095D01*
%TO.C,D2*%
X186332904Y-100782380D02*
X186332904Y-99782380D01*
X186571000Y-99782380D01*
X186713857Y-99830000D01*
X186809095Y-99925238D01*
X186856714Y-100020476D01*
X186904333Y-100210952D01*
X186904333Y-100353809D01*
X186856714Y-100544285D01*
X186809095Y-100639523D01*
X186713857Y-100734761D01*
X186571000Y-100782380D01*
X186332904Y-100782380D01*
X187285285Y-99877619D02*
X187332904Y-99830000D01*
X187428142Y-99782380D01*
X187666238Y-99782380D01*
X187761476Y-99830000D01*
X187809095Y-99877619D01*
X187856714Y-99972857D01*
X187856714Y-100068095D01*
X187809095Y-100210952D01*
X187237666Y-100782380D01*
X187856714Y-100782380D01*
%TO.C,D3*%
X121943904Y-101322380D02*
X121943904Y-100322380D01*
X122182000Y-100322380D01*
X122324857Y-100370000D01*
X122420095Y-100465238D01*
X122467714Y-100560476D01*
X122515333Y-100750952D01*
X122515333Y-100893809D01*
X122467714Y-101084285D01*
X122420095Y-101179523D01*
X122324857Y-101274761D01*
X122182000Y-101322380D01*
X121943904Y-101322380D01*
X122848666Y-100322380D02*
X123467714Y-100322380D01*
X123134380Y-100703333D01*
X123277238Y-100703333D01*
X123372476Y-100750952D01*
X123420095Y-100798571D01*
X123467714Y-100893809D01*
X123467714Y-101131904D01*
X123420095Y-101227142D01*
X123372476Y-101274761D01*
X123277238Y-101322380D01*
X122991523Y-101322380D01*
X122896285Y-101274761D01*
X122848666Y-101227142D01*
%TO.C,D4*%
X128293904Y-101322380D02*
X128293904Y-100322380D01*
X128532000Y-100322380D01*
X128674857Y-100370000D01*
X128770095Y-100465238D01*
X128817714Y-100560476D01*
X128865333Y-100750952D01*
X128865333Y-100893809D01*
X128817714Y-101084285D01*
X128770095Y-101179523D01*
X128674857Y-101274761D01*
X128532000Y-101322380D01*
X128293904Y-101322380D01*
X129722476Y-100655714D02*
X129722476Y-101322380D01*
X129484380Y-100274761D02*
X129246285Y-100989047D01*
X129865333Y-100989047D01*
%TO.C,D5*%
X134643904Y-101322380D02*
X134643904Y-100322380D01*
X134882000Y-100322380D01*
X135024857Y-100370000D01*
X135120095Y-100465238D01*
X135167714Y-100560476D01*
X135215333Y-100750952D01*
X135215333Y-100893809D01*
X135167714Y-101084285D01*
X135120095Y-101179523D01*
X135024857Y-101274761D01*
X134882000Y-101322380D01*
X134643904Y-101322380D01*
X136120095Y-100322380D02*
X135643904Y-100322380D01*
X135596285Y-100798571D01*
X135643904Y-100750952D01*
X135739142Y-100703333D01*
X135977238Y-100703333D01*
X136072476Y-100750952D01*
X136120095Y-100798571D01*
X136167714Y-100893809D01*
X136167714Y-101131904D01*
X136120095Y-101227142D01*
X136072476Y-101274761D01*
X135977238Y-101322380D01*
X135739142Y-101322380D01*
X135643904Y-101274761D01*
X135596285Y-101227142D01*
%TO.C,D6*%
X140993904Y-101322380D02*
X140993904Y-100322380D01*
X141232000Y-100322380D01*
X141374857Y-100370000D01*
X141470095Y-100465238D01*
X141517714Y-100560476D01*
X141565333Y-100750952D01*
X141565333Y-100893809D01*
X141517714Y-101084285D01*
X141470095Y-101179523D01*
X141374857Y-101274761D01*
X141232000Y-101322380D01*
X140993904Y-101322380D01*
X142422476Y-100322380D02*
X142232000Y-100322380D01*
X142136761Y-100370000D01*
X142089142Y-100417619D01*
X141993904Y-100560476D01*
X141946285Y-100750952D01*
X141946285Y-101131904D01*
X141993904Y-101227142D01*
X142041523Y-101274761D01*
X142136761Y-101322380D01*
X142327238Y-101322380D01*
X142422476Y-101274761D01*
X142470095Y-101227142D01*
X142517714Y-101131904D01*
X142517714Y-100893809D01*
X142470095Y-100798571D01*
X142422476Y-100750952D01*
X142327238Y-100703333D01*
X142136761Y-100703333D01*
X142041523Y-100750952D01*
X141993904Y-100798571D01*
X141946285Y-100893809D01*
%TO.C,F1*%
X175206166Y-87558571D02*
X174872833Y-87558571D01*
X174872833Y-88082380D02*
X174872833Y-87082380D01*
X175349023Y-87082380D01*
X176253785Y-88082380D02*
X175682357Y-88082380D01*
X175968071Y-88082380D02*
X175968071Y-87082380D01*
X175872833Y-87225238D01*
X175777595Y-87320476D01*
X175682357Y-87368095D01*
%TO.C,J2*%
X107318666Y-97242380D02*
X107318666Y-97956666D01*
X107271047Y-98099523D01*
X107175809Y-98194761D01*
X107032952Y-98242380D01*
X106937714Y-98242380D01*
X107747238Y-97337619D02*
X107794857Y-97290000D01*
X107890095Y-97242380D01*
X108128190Y-97242380D01*
X108223428Y-97290000D01*
X108271047Y-97337619D01*
X108318666Y-97432857D01*
X108318666Y-97528095D01*
X108271047Y-97670952D01*
X107699619Y-98242380D01*
X108318666Y-98242380D01*
%TO.C,J4*%
X160444380Y-82883333D02*
X161158666Y-82883333D01*
X161301523Y-82930952D01*
X161396761Y-83026190D01*
X161444380Y-83169047D01*
X161444380Y-83264285D01*
X160777714Y-81978571D02*
X161444380Y-81978571D01*
X160396761Y-82216666D02*
X161111047Y-82454761D01*
X161111047Y-81835714D01*
%TO.C,R1*%
X175372833Y-98242380D02*
X175039500Y-97766190D01*
X174801404Y-98242380D02*
X174801404Y-97242380D01*
X175182357Y-97242380D01*
X175277595Y-97290000D01*
X175325214Y-97337619D01*
X175372833Y-97432857D01*
X175372833Y-97575714D01*
X175325214Y-97670952D01*
X175277595Y-97718571D01*
X175182357Y-97766190D01*
X174801404Y-97766190D01*
X176325214Y-98242380D02*
X175753785Y-98242380D01*
X176039500Y-98242380D02*
X176039500Y-97242380D01*
X175944261Y-97385238D01*
X175849023Y-97480476D01*
X175753785Y-97528095D01*
%TO.C,R3*%
X175372833Y-90622380D02*
X175039500Y-90146190D01*
X174801404Y-90622380D02*
X174801404Y-89622380D01*
X175182357Y-89622380D01*
X175277595Y-89670000D01*
X175325214Y-89717619D01*
X175372833Y-89812857D01*
X175372833Y-89955714D01*
X175325214Y-90050952D01*
X175277595Y-90098571D01*
X175182357Y-90146190D01*
X174801404Y-90146190D01*
X175706166Y-89622380D02*
X176325214Y-89622380D01*
X175991880Y-90003333D01*
X176134738Y-90003333D01*
X176229976Y-90050952D01*
X176277595Y-90098571D01*
X176325214Y-90193809D01*
X176325214Y-90431904D01*
X176277595Y-90527142D01*
X176229976Y-90574761D01*
X176134738Y-90622380D01*
X175849023Y-90622380D01*
X175753785Y-90574761D01*
X175706166Y-90527142D01*
%TO.C,R5*%
X175347333Y-100782380D02*
X175014000Y-100306190D01*
X174775904Y-100782380D02*
X174775904Y-99782380D01*
X175156857Y-99782380D01*
X175252095Y-99830000D01*
X175299714Y-99877619D01*
X175347333Y-99972857D01*
X175347333Y-100115714D01*
X175299714Y-100210952D01*
X175252095Y-100258571D01*
X175156857Y-100306190D01*
X174775904Y-100306190D01*
X176252095Y-99782380D02*
X175775904Y-99782380D01*
X175728285Y-100258571D01*
X175775904Y-100210952D01*
X175871142Y-100163333D01*
X176109238Y-100163333D01*
X176204476Y-100210952D01*
X176252095Y-100258571D01*
X176299714Y-100353809D01*
X176299714Y-100591904D01*
X176252095Y-100687142D01*
X176204476Y-100734761D01*
X176109238Y-100782380D01*
X175871142Y-100782380D01*
X175775904Y-100734761D01*
X175728285Y-100687142D01*
%TO.C,R6*%
X166965333Y-91892380D02*
X166632000Y-91416190D01*
X166393904Y-91892380D02*
X166393904Y-90892380D01*
X166774857Y-90892380D01*
X166870095Y-90940000D01*
X166917714Y-90987619D01*
X166965333Y-91082857D01*
X166965333Y-91225714D01*
X166917714Y-91320952D01*
X166870095Y-91368571D01*
X166774857Y-91416190D01*
X166393904Y-91416190D01*
X167822476Y-90892380D02*
X167632000Y-90892380D01*
X167536761Y-90940000D01*
X167489142Y-90987619D01*
X167393904Y-91130476D01*
X167346285Y-91320952D01*
X167346285Y-91701904D01*
X167393904Y-91797142D01*
X167441523Y-91844761D01*
X167536761Y-91892380D01*
X167727238Y-91892380D01*
X167822476Y-91844761D01*
X167870095Y-91797142D01*
X167917714Y-91701904D01*
X167917714Y-91463809D01*
X167870095Y-91368571D01*
X167822476Y-91320952D01*
X167727238Y-91273333D01*
X167536761Y-91273333D01*
X167441523Y-91320952D01*
X167393904Y-91368571D01*
X167346285Y-91463809D01*
%TO.C,Y1*%
X152685809Y-89886190D02*
X152685809Y-90362380D01*
X152352476Y-89362380D02*
X152685809Y-89886190D01*
X153019142Y-89362380D01*
X153876285Y-90362380D02*
X153304857Y-90362380D01*
X153590571Y-90362380D02*
X153590571Y-89362380D01*
X153495333Y-89505238D01*
X153400095Y-89600476D01*
X153304857Y-89648095D01*
%TD*%
M02*
