G04 #@! TF.GenerationSoftware,KiCad,Pcbnew,(5.1.6-0-10_14)*
G04 #@! TF.CreationDate,2020-07-26T20:14:21+09:00*
G04 #@! TF.ProjectId,name_card_keyboard,6e616d65-5f63-4617-9264-5f6b6579626f,rev?*
G04 #@! TF.SameCoordinates,Original*
G04 #@! TF.FileFunction,Copper,L2,Bot*
G04 #@! TF.FilePolarity,Positive*
%FSLAX46Y46*%
G04 Gerber Fmt 4.6, Leading zero omitted, Abs format (unit mm)*
G04 Created by KiCad (PCBNEW (5.1.6-0-10_14)) date 2020-07-26 20:14:21*
%MOMM*%
%LPD*%
G01*
G04 APERTURE LIST*
G04 #@! TA.AperFunction,SMDPad,CuDef*
%ADD10R,0.260000X0.650000*%
G04 #@! TD*
G04 #@! TA.AperFunction,SMDPad,CuDef*
%ADD11R,2.300000X0.250000*%
G04 #@! TD*
G04 #@! TA.AperFunction,ComponentPad*
%ADD12O,2.300000X1.200000*%
G04 #@! TD*
G04 #@! TA.AperFunction,ComponentPad*
%ADD13C,0.600000*%
G04 #@! TD*
G04 #@! TA.AperFunction,ComponentPad*
%ADD14C,2.200000*%
G04 #@! TD*
G04 #@! TA.AperFunction,ComponentPad*
%ADD15O,1.700000X1.700000*%
G04 #@! TD*
G04 #@! TA.AperFunction,ComponentPad*
%ADD16R,1.700000X1.700000*%
G04 #@! TD*
G04 #@! TA.AperFunction,WasherPad*
%ADD17C,5.000000*%
G04 #@! TD*
G04 #@! TA.AperFunction,ViaPad*
%ADD18C,0.800000*%
G04 #@! TD*
G04 #@! TA.AperFunction,Conductor*
%ADD19C,0.200000*%
G04 #@! TD*
G04 #@! TA.AperFunction,Conductor*
%ADD20C,1.000000*%
G04 #@! TD*
G04 #@! TA.AperFunction,Conductor*
%ADD21C,0.250000*%
G04 #@! TD*
G04 #@! TA.AperFunction,Conductor*
%ADD22C,0.500000*%
G04 #@! TD*
G04 #@! TA.AperFunction,Conductor*
%ADD23C,0.254000*%
G04 #@! TD*
G04 APERTURE END LIST*
D10*
G04 #@! TO.P,J1,SH*
G04 #@! TO.N,N/C*
X187857000Y-94525000D03*
X189897000Y-94525000D03*
D11*
X188877000Y-94725000D03*
D10*
X189897000Y-104915000D03*
X187857000Y-104915000D03*
D11*
X188877000Y-104665000D03*
D12*
X188877000Y-94145000D03*
X188877000Y-105245000D03*
X183827000Y-94145000D03*
X183827000Y-105245000D03*
D13*
G04 #@! TO.P,J1,B4*
G04 #@! TO.N,VCC*
X184277000Y-97695000D03*
G04 #@! TO.P,J1,B5*
G04 #@! TO.N,Net-(J1-PadB5)*
X184277000Y-98495000D03*
G04 #@! TO.P,J1,B6*
G04 #@! TO.N,Net-(J1-PadA6)*
X184277000Y-99295000D03*
G04 #@! TO.P,J1,B7*
G04 #@! TO.N,Net-(J1-PadA7)*
X184277000Y-100095000D03*
G04 #@! TO.P,J1,B8*
G04 #@! TO.N,Net-(J1-PadB8)*
X184277000Y-100895000D03*
G04 #@! TO.P,J1,B9*
G04 #@! TO.N,VCC*
X184277000Y-101695000D03*
G04 #@! TD*
D14*
G04 #@! TO.P,SW4,1*
G04 #@! TO.N,/A2*
X169672000Y-114300000D03*
G04 #@! TO.P,SW4,2*
G04 #@! TO.N,Net-(D6-Pad2)*
X176022000Y-111760000D03*
X173482000Y-110940000D03*
G04 #@! TO.P,SW4,1*
G04 #@! TO.N,/A2*
X178582000Y-112940000D03*
G04 #@! TD*
G04 #@! TO.P,SW3,1*
G04 #@! TO.N,/A2*
X150622000Y-114300000D03*
G04 #@! TO.P,SW3,2*
G04 #@! TO.N,Net-(D5-Pad2)*
X156972000Y-111760000D03*
X154432000Y-110940000D03*
G04 #@! TO.P,SW3,1*
G04 #@! TO.N,/A2*
X159532000Y-112940000D03*
G04 #@! TD*
D15*
G04 #@! TO.P,J3,12*
G04 #@! TO.N,/D10*
X143637000Y-82550000D03*
G04 #@! TO.P,J3,11*
G04 #@! TO.N,/MOSI*
X141097000Y-82550000D03*
G04 #@! TO.P,J3,10*
G04 #@! TO.N,/MISO*
X138557000Y-82550000D03*
G04 #@! TO.P,J3,9*
G04 #@! TO.N,/SCK*
X136017000Y-82550000D03*
G04 #@! TO.P,J3,8*
G04 #@! TO.N,/A0*
X133477000Y-82550000D03*
G04 #@! TO.P,J3,7*
G04 #@! TO.N,/A1*
X130937000Y-82550000D03*
G04 #@! TO.P,J3,6*
G04 #@! TO.N,/A2*
X128397000Y-82550000D03*
G04 #@! TO.P,J3,5*
G04 #@! TO.N,/A3*
X125857000Y-82550000D03*
G04 #@! TO.P,J3,4*
G04 #@! TO.N,+5V*
X123317000Y-82550000D03*
G04 #@! TO.P,J3,3*
G04 #@! TO.N,/RESET*
X120777000Y-82550000D03*
G04 #@! TO.P,J3,2*
G04 #@! TO.N,GNDPWR*
X118237000Y-82550000D03*
D16*
G04 #@! TO.P,J3,1*
G04 #@! TO.N,+5V*
X115697000Y-82550000D03*
G04 #@! TD*
D14*
G04 #@! TO.P,SW2,1*
G04 #@! TO.N,/A3*
X131572000Y-114300000D03*
G04 #@! TO.P,SW2,2*
G04 #@! TO.N,Net-(D4-Pad2)*
X137922000Y-111760000D03*
X135382000Y-110940000D03*
G04 #@! TO.P,SW2,1*
G04 #@! TO.N,/A3*
X140482000Y-112940000D03*
G04 #@! TD*
D17*
G04 #@! TO.P,Ref\u002A\u002A,*
G04 #@! TO.N,*
X102997000Y-130810000D03*
G04 #@! TD*
G04 #@! TO.P,Ref\u002A\u002A,*
G04 #@! TO.N,*
X102997000Y-82550000D03*
G04 #@! TD*
G04 #@! TO.P,Ref\u002A\u002A,*
G04 #@! TO.N,*
X186817000Y-130810000D03*
G04 #@! TD*
G04 #@! TO.P,Ref\u002A\u002A,*
G04 #@! TO.N,*
X186817000Y-82550000D03*
G04 #@! TD*
D15*
G04 #@! TO.P,J2,12*
G04 #@! TO.N,/D9*
X143637000Y-97790000D03*
G04 #@! TO.P,J2,11*
G04 #@! TO.N,/D8*
X141097000Y-97790000D03*
G04 #@! TO.P,J2,10*
G04 #@! TO.N,/D7*
X138557000Y-97790000D03*
G04 #@! TO.P,J2,9*
G04 #@! TO.N,/D6*
X136017000Y-97790000D03*
G04 #@! TO.P,J2,8*
G04 #@! TO.N,/D5*
X133477000Y-97790000D03*
G04 #@! TO.P,J2,7*
G04 #@! TO.N,/D4*
X130937000Y-97790000D03*
G04 #@! TO.P,J2,6*
G04 #@! TO.N,/D3*
X128397000Y-97790000D03*
G04 #@! TO.P,J2,5*
G04 #@! TO.N,/D2*
X125857000Y-97790000D03*
G04 #@! TO.P,J2,4*
G04 #@! TO.N,GNDPWR*
X123317000Y-97790000D03*
G04 #@! TO.P,J2,3*
X120777000Y-97790000D03*
G04 #@! TO.P,J2,2*
G04 #@! TO.N,/RXL*
X118237000Y-97790000D03*
D16*
G04 #@! TO.P,J2,1*
G04 #@! TO.N,/TXO*
X115697000Y-97790000D03*
G04 #@! TD*
D15*
G04 #@! TO.P,J4,6*
G04 #@! TO.N,/MISO*
X181737000Y-82550000D03*
G04 #@! TO.P,J4,5*
G04 #@! TO.N,/MOSI*
X179197000Y-82550000D03*
G04 #@! TO.P,J4,4*
G04 #@! TO.N,/SCK*
X176657000Y-82550000D03*
G04 #@! TO.P,J4,3*
G04 #@! TO.N,/RESET*
X174117000Y-82550000D03*
G04 #@! TO.P,J4,2*
G04 #@! TO.N,GNDPWR*
X171577000Y-82550000D03*
D16*
G04 #@! TO.P,J4,1*
G04 #@! TO.N,+5V*
X169037000Y-82550000D03*
G04 #@! TD*
D14*
G04 #@! TO.P,SW1,1*
G04 #@! TO.N,/A3*
X112522000Y-114300000D03*
G04 #@! TO.P,SW1,2*
G04 #@! TO.N,Net-(D3-Pad2)*
X118872000Y-111760000D03*
X116332000Y-110940000D03*
G04 #@! TO.P,SW1,1*
G04 #@! TO.N,/A3*
X121432000Y-112940000D03*
G04 #@! TD*
D18*
G04 #@! TO.N,Net-(C1-Pad1)*
X151511000Y-86360000D03*
X162179000Y-89408000D03*
G04 #@! TO.N,GNDPWR*
X187960000Y-109220000D03*
X187960000Y-114300000D03*
X187960000Y-119380000D03*
X187960000Y-124460000D03*
X182880000Y-124460000D03*
X182880000Y-119380000D03*
X182880000Y-114300000D03*
X182880000Y-109220000D03*
X182880000Y-129540000D03*
X177800000Y-129540000D03*
X177800000Y-124460000D03*
X172720000Y-124460000D03*
X172720000Y-129540000D03*
X167640000Y-124460000D03*
X167640000Y-129540000D03*
X162560000Y-129540000D03*
X162560000Y-124460000D03*
X162560000Y-119380000D03*
X157480000Y-124460000D03*
X157480000Y-129540000D03*
X152400000Y-124460000D03*
X152400000Y-129540000D03*
X147320000Y-129540000D03*
X147320000Y-124460000D03*
X142240000Y-124460000D03*
X142240000Y-129540000D03*
X137160000Y-124460000D03*
X132080000Y-124460000D03*
X127000000Y-124460000D03*
X127000000Y-119380000D03*
X121920000Y-124460000D03*
X116840000Y-124460000D03*
X111760000Y-124460000D03*
X106680000Y-124460000D03*
X106680000Y-119380000D03*
X101600000Y-119380000D03*
X101600000Y-124460000D03*
X106680000Y-114300000D03*
X101600000Y-114300000D03*
X101600000Y-109220000D03*
X106680000Y-109220000D03*
X121920000Y-104140000D03*
X125095000Y-93980000D03*
X125095000Y-88900000D03*
X135255000Y-86360000D03*
X140335000Y-86360000D03*
X145415000Y-86360000D03*
X169037000Y-105918000D03*
X184785000Y-90805000D03*
X173863000Y-105918000D03*
X173634500Y-96291500D03*
X155829000Y-82550000D03*
X164719000Y-89408000D03*
X155194000Y-93472000D03*
X158877000Y-105918000D03*
X178308000Y-106680000D03*
X175895000Y-97155000D03*
X142240000Y-119380000D03*
X106680000Y-83820000D03*
X111760000Y-109220000D03*
X161925000Y-82550000D03*
X173355000Y-86995000D03*
X150495000Y-102870000D03*
X156210000Y-104775000D03*
X148590000Y-86995000D03*
X170180000Y-84455000D03*
X173355000Y-103505000D03*
X111760000Y-83820000D03*
X121920000Y-93980000D03*
X116840000Y-93980000D03*
X116840000Y-88900000D03*
X121920000Y-88900000D03*
X154940000Y-91440000D03*
X137160000Y-129540000D03*
G04 #@! TO.N,+5V*
X157353000Y-103886000D03*
X167767000Y-104902000D03*
X165989000Y-89408000D03*
X154965000Y-94590000D03*
X170434000Y-86995000D03*
X181610000Y-86360000D03*
X184785000Y-88265000D03*
X176530000Y-92710000D03*
X167640000Y-86106000D03*
G04 #@! TO.N,Net-(C3-Pad1)*
X165989000Y-86360000D03*
X163449000Y-89408000D03*
G04 #@! TO.N,Net-(D3-Pad2)*
X130175000Y-104776000D03*
G04 #@! TO.N,/D4*
X126619000Y-100330000D03*
X139573000Y-100330000D03*
G04 #@! TO.N,Net-(D4-Pad2)*
X137160000Y-104902000D03*
G04 #@! TO.N,/D5*
X133223000Y-101092000D03*
X145923000Y-101092000D03*
G04 #@! TO.N,Net-(D5-Pad2)*
X150934000Y-110940000D03*
X143510000Y-110940000D03*
X143510000Y-104775000D03*
G04 #@! TO.N,Net-(D6-Pad2)*
X157734000Y-108966000D03*
G04 #@! TO.N,VCC*
X180975000Y-94615000D03*
X170815000Y-96266000D03*
X171425000Y-100990000D03*
X180975000Y-104140000D03*
G04 #@! TO.N,Net-(J1-PadB5)*
X180340000Y-95885000D03*
G04 #@! TO.N,Net-(J1-PadA6)*
X180340000Y-98425000D03*
X180975000Y-99695000D03*
G04 #@! TO.N,Net-(J1-PadA7)*
X180340000Y-100965000D03*
G04 #@! TO.N,/D9*
X148463000Y-98590000D03*
X148463000Y-94742000D03*
G04 #@! TO.N,/D8*
X149479000Y-97790000D03*
X149479000Y-94234000D03*
G04 #@! TO.N,/D6*
X150533000Y-96990000D03*
X150533000Y-93510000D03*
G04 #@! TO.N,/D3*
X129667000Y-88900000D03*
G04 #@! TO.N,/D2*
X128651000Y-88900000D03*
G04 #@! TO.N,/RXL*
X127635000Y-88900000D03*
G04 #@! TO.N,/A3*
X163449000Y-105918000D03*
X154305000Y-92710000D03*
X131953000Y-94996000D03*
G04 #@! TO.N,/A2*
X154051000Y-107950000D03*
X153035000Y-92202000D03*
X161925000Y-107950000D03*
X132461000Y-93726000D03*
G04 #@! TO.N,/A1*
X132969000Y-92456000D03*
X151765000Y-91694000D03*
X153035000Y-107188000D03*
G04 #@! TO.N,/A0*
X150495000Y-91186000D03*
X133477000Y-91186000D03*
X152019000Y-106172000D03*
G04 #@! TO.N,/MISO*
X173990000Y-92710000D03*
G04 #@! TO.N,/MOSI*
X172720000Y-93980000D03*
G04 #@! TO.N,/D10*
X147447000Y-99390000D03*
X147447000Y-83185000D03*
G04 #@! TD*
D19*
G04 #@! TO.N,Net-(C1-Pad1)*
X151511000Y-88138000D02*
X152019000Y-88646000D01*
X151511000Y-86360000D02*
X151511000Y-88138000D01*
X162179000Y-89408000D02*
X162179000Y-88900000D01*
X162179000Y-88900000D02*
X161925000Y-88646000D01*
X161925000Y-88646000D02*
X152019000Y-88646000D01*
D20*
G04 #@! TO.N,GNDPWR*
X171619999Y-94842684D02*
X171619999Y-90635001D01*
X173068815Y-96291500D02*
X171619999Y-94842684D01*
X173634500Y-96291500D02*
X173068815Y-96291500D01*
X171619999Y-90635001D02*
X173355000Y-88900000D01*
X173355000Y-88900000D02*
X173355000Y-86995000D01*
X173355000Y-86995000D02*
X173355000Y-86995000D01*
X173355000Y-86995000D02*
X173355000Y-85090000D01*
X171577000Y-83312000D02*
X171577000Y-82550000D01*
X173355000Y-85090000D02*
X171577000Y-83312000D01*
X171577000Y-82550000D02*
X171577000Y-83693000D01*
X171577000Y-83693000D02*
X170815000Y-84455000D01*
X163830000Y-84455000D02*
X161925000Y-82550000D01*
X170815000Y-84455000D02*
X170180000Y-84455000D01*
X170180000Y-84455000D02*
X163830000Y-84455000D01*
G04 #@! TO.N,+5V*
X166751000Y-103886000D02*
X157353000Y-103886000D01*
X167767000Y-104902000D02*
X166751000Y-103886000D01*
X157353000Y-103886000D02*
X157353000Y-96393000D01*
X155550000Y-94590000D02*
X154965000Y-94590000D01*
X157353000Y-96393000D02*
X155550000Y-94590000D01*
X123317000Y-82550000D02*
X123317000Y-81534000D01*
X165989000Y-93091000D02*
X165989000Y-89408000D01*
X156845000Y-93449002D02*
X165630998Y-93449002D01*
X165630998Y-93449002D02*
X165989000Y-93091000D01*
X155704002Y-94590000D02*
X156845000Y-93449002D01*
X154965000Y-94590000D02*
X155704002Y-94590000D01*
X115697000Y-80010000D02*
X115697000Y-82550000D01*
X123317000Y-82550000D02*
X123317000Y-80010000D01*
D19*
G04 #@! TO.N,Net-(C3-Pad1)*
X165989000Y-88392000D02*
X165989000Y-86360000D01*
X165735000Y-88646000D02*
X165989000Y-88392000D01*
X163449000Y-88900000D02*
X163703000Y-88646000D01*
X163703000Y-88646000D02*
X165735000Y-88646000D01*
X163449000Y-89408000D02*
X163449000Y-88900000D01*
D21*
G04 #@! TO.N,Net-(D3-Pad2)*
X123952000Y-110236000D02*
X120396000Y-110236000D01*
X123952000Y-109728000D02*
X117544000Y-109728000D01*
D22*
X118872000Y-111760000D02*
X119634000Y-110998000D01*
D21*
X120396000Y-110236000D02*
X119634000Y-110998000D01*
D22*
X116332000Y-110940000D02*
X117065000Y-110207000D01*
D21*
X117544000Y-109728000D02*
X117065000Y-110207000D01*
X123952000Y-110236000D02*
X129794000Y-110236000D01*
X129794000Y-110236000D02*
X130175000Y-109855000D01*
X123952000Y-109728000D02*
X129667000Y-109728000D01*
X129667000Y-109728000D02*
X130175000Y-109220000D01*
X130175000Y-109220000D02*
X130175000Y-109855000D01*
X130175000Y-109220000D02*
X130175000Y-104776000D01*
D19*
G04 #@! TO.N,/D4*
X139573000Y-100330000D02*
X139573000Y-100330000D01*
X126619000Y-100330000D02*
X139573000Y-100330000D01*
D22*
G04 #@! TO.N,Net-(D4-Pad2)*
X137922000Y-111760000D02*
X137922000Y-110490000D01*
X135382000Y-110940000D02*
X135440000Y-110940000D01*
X135440000Y-110940000D02*
X136525000Y-109855000D01*
D21*
X137160000Y-109162000D02*
X135382000Y-110940000D01*
X137160000Y-108585000D02*
X137160000Y-109162000D01*
X137922000Y-109347000D02*
X137160000Y-108585000D01*
X137922000Y-110490000D02*
X137922000Y-109347000D01*
X137160000Y-104902000D02*
X137160000Y-108585000D01*
D19*
G04 #@! TO.N,/D5*
X145923000Y-101092000D02*
X145923000Y-101092000D01*
X145923000Y-101092000D02*
X133223000Y-101092000D01*
D22*
G04 #@! TO.N,Net-(D5-Pad2)*
X154432000Y-110940000D02*
X153220000Y-110940000D01*
X156718000Y-111760000D02*
X155956000Y-112522000D01*
D21*
X155956000Y-112522000D02*
X155702000Y-112776000D01*
X155702000Y-112776000D02*
X152908000Y-112776000D01*
X152908000Y-112776000D02*
X152654000Y-112522000D01*
X152654000Y-111252000D02*
X152342000Y-110940000D01*
X152654000Y-112522000D02*
X152654000Y-111252000D01*
X152342000Y-110940000D02*
X150934000Y-110940000D01*
X153220000Y-110940000D02*
X152342000Y-110940000D01*
X150934000Y-110940000D02*
X150934000Y-110940000D01*
X143510000Y-110940000D02*
X143510000Y-104775000D01*
D22*
G04 #@! TO.N,Net-(D6-Pad2)*
X176022000Y-111760000D02*
X175260000Y-112522000D01*
D21*
X175006000Y-112776000D02*
X171958000Y-112776000D01*
X176022000Y-111760000D02*
X175006000Y-112776000D01*
D22*
X173482000Y-110940000D02*
X172270000Y-110940000D01*
D21*
X172270000Y-110940000D02*
X171138000Y-110940000D01*
X171138000Y-110940000D02*
X170942000Y-110744000D01*
X170942000Y-110744000D02*
X170942000Y-112522000D01*
X171196000Y-112776000D02*
X171958000Y-112776000D01*
X170942000Y-112522000D02*
X171196000Y-112776000D01*
X170942000Y-110744000D02*
X170942000Y-109728000D01*
X157734000Y-108966000D02*
X170688000Y-108966000D01*
X170942000Y-109220000D02*
X170942000Y-109728000D01*
X170688000Y-108966000D02*
X170942000Y-109220000D01*
D20*
G04 #@! TO.N,VCC*
X171425000Y-96876000D02*
X170815000Y-96266000D01*
X171425000Y-100990000D02*
X171425000Y-96876000D01*
D19*
X184277000Y-101695000D02*
X182150000Y-101695000D01*
X182150000Y-101695000D02*
X181610000Y-102235000D01*
X181610000Y-102235000D02*
X181610000Y-103505000D01*
X181610000Y-103505000D02*
X180975000Y-104140000D01*
X180975000Y-104140000D02*
X180975000Y-104140000D01*
X184277000Y-97695000D02*
X182785000Y-97695000D01*
X182785000Y-97695000D02*
X182245000Y-97155000D01*
X182245000Y-97155000D02*
X182245000Y-96520000D01*
X182245000Y-96520000D02*
X181610000Y-95885000D01*
X181610000Y-95250000D02*
X180975000Y-94615000D01*
X181610000Y-95885000D02*
X181610000Y-95250000D01*
D20*
X179070000Y-95526998D02*
X179981998Y-94615000D01*
X179981998Y-94615000D02*
X180975000Y-94615000D01*
X180340000Y-104140000D02*
X179070000Y-102870000D01*
X180975000Y-104140000D02*
X180340000Y-104140000D01*
X171450000Y-100965000D02*
X171425000Y-100990000D01*
X179070000Y-100965000D02*
X171450000Y-100965000D01*
X179070000Y-102870000D02*
X179070000Y-100965000D01*
X179070000Y-100965000D02*
X179070000Y-95526998D01*
D19*
G04 #@! TO.N,Net-(J1-PadB5)*
X184277000Y-98495000D02*
X182315000Y-98495000D01*
X182315000Y-98495000D02*
X181610000Y-97790000D01*
X181610000Y-97790000D02*
X181610000Y-97155000D01*
X181610000Y-97155000D02*
X180340000Y-95885000D01*
X180340000Y-95885000D02*
X180340000Y-95885000D01*
G04 #@! TO.N,Net-(J1-PadA6)*
X184277000Y-99295000D02*
X182480000Y-99295000D01*
X181610000Y-98425000D02*
X180340000Y-98425000D01*
X182480000Y-99295000D02*
X181610000Y-98425000D01*
X180975000Y-99060000D02*
X180340000Y-98425000D01*
X180975000Y-99695000D02*
X180975000Y-99060000D01*
G04 #@! TO.N,Net-(J1-PadA7)*
X184277000Y-100095000D02*
X182480000Y-100095000D01*
X181610000Y-100965000D02*
X180340000Y-100965000D01*
X182480000Y-100095000D02*
X181610000Y-100965000D01*
G04 #@! TO.N,/D9*
X148463000Y-94742000D02*
X148463000Y-98590000D01*
G04 #@! TO.N,/D8*
X149479000Y-94234000D02*
X149479000Y-97790000D01*
G04 #@! TO.N,/D6*
X150533000Y-93510000D02*
X150533000Y-96990000D01*
D22*
G04 #@! TO.N,/D3*
X128397000Y-97790000D02*
X129159000Y-97028000D01*
D19*
X129159000Y-97028000D02*
X129667000Y-96520000D01*
X129667000Y-96520000D02*
X129667000Y-88900000D01*
D22*
G04 #@! TO.N,/D2*
X125857000Y-97790000D02*
X126619000Y-97028000D01*
D19*
X126619000Y-97028000D02*
X127127000Y-96520000D01*
X128651000Y-96012000D02*
X128397000Y-96266000D01*
X127381000Y-96266000D02*
X127127000Y-96520000D01*
X128397000Y-96266000D02*
X127381000Y-96266000D01*
X128651000Y-88900000D02*
X128651000Y-96012000D01*
D22*
G04 #@! TO.N,/RXL*
X118237000Y-97790000D02*
X118999000Y-97028000D01*
D19*
X120269000Y-95758000D02*
X118999000Y-97028000D01*
X127635000Y-95250000D02*
X127127000Y-95758000D01*
X127127000Y-95758000D02*
X120269000Y-95758000D01*
X127635000Y-88900000D02*
X127635000Y-95250000D01*
G04 #@! TO.N,/A3*
X154305000Y-92964000D02*
X154305000Y-92964000D01*
D22*
X126619000Y-83312000D02*
X125857000Y-82550000D01*
D19*
X155067000Y-106680000D02*
X155067000Y-106426000D01*
X148844000Y-111760000D02*
X149352000Y-111252000D01*
X141662000Y-111760000D02*
X148844000Y-111760000D01*
D22*
X121432000Y-112940000D02*
X120615000Y-113757000D01*
D21*
X120072000Y-114300000D02*
X120615000Y-113757000D01*
D22*
X121432000Y-112940000D02*
X122229000Y-113737000D01*
D21*
X122229000Y-113737000D02*
X122792000Y-114300000D01*
D22*
X112522000Y-114300000D02*
X113792000Y-114300000D01*
D21*
X113792000Y-114300000D02*
X120072000Y-114300000D01*
D22*
X131572000Y-114300000D02*
X130302000Y-114300000D01*
D21*
X122792000Y-114300000D02*
X130302000Y-114300000D01*
D22*
X131572000Y-114300000D02*
X132842000Y-114300000D01*
D21*
X132842000Y-114300000D02*
X139122000Y-114300000D01*
D22*
X140482000Y-112940000D02*
X139665000Y-113757000D01*
D21*
X139122000Y-114300000D02*
X139665000Y-113757000D01*
D22*
X140482000Y-112940000D02*
X141316000Y-112106000D01*
D19*
X141316000Y-112106000D02*
X141662000Y-111760000D01*
X155067000Y-107442000D02*
X155067000Y-106680000D01*
X155321000Y-106680000D02*
X155067000Y-106426000D01*
X163449000Y-105918000D02*
X163449000Y-106426000D01*
X163449000Y-106426000D02*
X163195000Y-106680000D01*
X163195000Y-106680000D02*
X155321000Y-106680000D01*
X127381000Y-84074000D02*
X126619000Y-83312000D01*
X128143000Y-84836000D02*
X127381000Y-84074000D01*
X131445000Y-84836000D02*
X128143000Y-84836000D01*
X131699000Y-85090000D02*
X131445000Y-84836000D01*
X131699000Y-94742000D02*
X131699000Y-85090000D01*
X131953000Y-94996000D02*
X131699000Y-94742000D01*
X154305000Y-93726000D02*
X154305000Y-92710000D01*
X154051000Y-93980000D02*
X154305000Y-93726000D01*
X154051000Y-95758000D02*
X154051000Y-93980000D01*
X155067000Y-96774000D02*
X154051000Y-95758000D01*
X155067000Y-106680000D02*
X155067000Y-96774000D01*
X149352000Y-111252000D02*
X149352000Y-110363000D01*
X149352000Y-110363000D02*
X150495000Y-109220000D01*
X150495000Y-109220000D02*
X154305000Y-109220000D01*
X155067000Y-108458000D02*
X155067000Y-107442000D01*
X154305000Y-109220000D02*
X155067000Y-108458000D01*
D22*
G04 #@! TO.N,/A2*
X178582000Y-111780000D02*
X178582000Y-112940000D01*
X178582000Y-113010000D02*
X177800000Y-113792000D01*
X159930000Y-112940000D02*
X160528000Y-113538000D01*
X159348000Y-112940000D02*
X158750000Y-113538000D01*
X169672000Y-114300000D02*
X170942000Y-114300000D01*
X169672000Y-114300000D02*
X168402000Y-114300000D01*
X150622000Y-114300000D02*
X151892000Y-114300000D01*
D21*
X157988000Y-114300000D02*
X158750000Y-113538000D01*
X151892000Y-114300000D02*
X157988000Y-114300000D01*
X161290000Y-114300000D02*
X168402000Y-114300000D01*
X160528000Y-113538000D02*
X161290000Y-114300000D01*
X170942000Y-114300000D02*
X177222000Y-114300000D01*
X177800000Y-113792000D02*
X177292000Y-114300000D01*
D19*
X154051000Y-107950000D02*
X154051000Y-106172000D01*
X154051000Y-106426000D02*
X154051000Y-106172000D01*
X129921000Y-84074000D02*
X129159000Y-83312000D01*
X132207000Y-92730002D02*
X132207000Y-84582000D01*
X132207000Y-84582000D02*
X131953000Y-84328000D01*
X132461000Y-93726000D02*
X132461000Y-92984002D01*
X131953000Y-84328000D02*
X130175000Y-84328000D01*
X130175000Y-84328000D02*
X129921000Y-84074000D01*
X132461000Y-92984002D02*
X132207000Y-92730002D01*
D22*
X129159000Y-83312000D02*
X128397000Y-82550000D01*
D19*
X154051000Y-96774000D02*
X154051000Y-106172000D01*
X153035000Y-95758000D02*
X154051000Y-96774000D01*
X153035000Y-92202000D02*
X153035000Y-95758000D01*
D21*
X178054000Y-107950000D02*
X161925000Y-107950000D01*
X178582000Y-108478000D02*
X178054000Y-107950000D01*
X178582000Y-111780000D02*
X178582000Y-108478000D01*
D22*
G04 #@! TO.N,/A1*
X131699000Y-83312000D02*
X130937000Y-82550000D01*
D19*
X132461000Y-84074000D02*
X131699000Y-83312000D01*
X132776999Y-91755999D02*
X132776999Y-84389999D01*
X132776999Y-84389999D02*
X132461000Y-84074000D01*
X153035000Y-107188000D02*
X153035000Y-105410000D01*
X132969000Y-91948000D02*
X132776999Y-91755999D01*
X132969000Y-92456000D02*
X132969000Y-91948000D01*
X153035000Y-96774000D02*
X153035000Y-105918000D01*
X152164999Y-95903999D02*
X153035000Y-96774000D01*
X152164999Y-92093999D02*
X152164999Y-95903999D01*
X151765000Y-91694000D02*
X152164999Y-92093999D01*
G04 #@! TO.N,/A0*
X133477000Y-91186000D02*
X133477000Y-85090000D01*
X133477000Y-85090000D02*
X133477000Y-85090000D01*
D22*
X133477000Y-83566000D02*
X133477000Y-82550000D01*
D19*
X133477000Y-85090000D02*
X133477000Y-83566000D01*
X150495000Y-91751685D02*
X150495000Y-91186000D01*
X151511000Y-92767685D02*
X150495000Y-91751685D01*
X151511000Y-96266000D02*
X151511000Y-92767685D01*
X152019000Y-96774000D02*
X151511000Y-96266000D01*
X152019000Y-106172000D02*
X152019000Y-96774000D01*
G04 #@! TO.N,/MISO*
X173990000Y-92710000D02*
X175260000Y-92710000D01*
X175260000Y-92710000D02*
X175895000Y-92075000D01*
X175895000Y-92075000D02*
X175895000Y-85725000D01*
X175895000Y-85725000D02*
X176530000Y-85090000D01*
X181737000Y-82550000D02*
X181737000Y-83058000D01*
X180975000Y-83820000D02*
X179705000Y-85090000D01*
X179705000Y-85090000D02*
X176530000Y-85090000D01*
D22*
X181737000Y-83058000D02*
X181292500Y-83502500D01*
D19*
X181292500Y-83502500D02*
X180975000Y-83820000D01*
G04 #@! TO.N,/MOSI*
X174625000Y-85725000D02*
X175895000Y-84455000D01*
X174625000Y-90805000D02*
X174625000Y-85725000D01*
X172720000Y-92710000D02*
X174625000Y-90805000D01*
X175895000Y-84455000D02*
X177292000Y-84455000D01*
X172720000Y-93980000D02*
X172720000Y-92710000D01*
D22*
X179197000Y-82550000D02*
X178498500Y-83248500D01*
D19*
X177292000Y-84455000D02*
X178498500Y-83248500D01*
G04 #@! TO.N,/D10*
X147447000Y-99390000D02*
X147447000Y-83185000D01*
G04 #@! TD*
D23*
G04 #@! TO.N,+5V*
G36*
X172220001Y-85560133D02*
G01*
X172220000Y-86939248D01*
X172214509Y-86995000D01*
X172220001Y-87050761D01*
X172220000Y-88429868D01*
X170856859Y-89793010D01*
X170813551Y-89828552D01*
X170671716Y-90001378D01*
X170662523Y-90018577D01*
X170566323Y-90198555D01*
X170501422Y-90412503D01*
X170479508Y-90635001D01*
X170485000Y-90690762D01*
X170484999Y-94488000D01*
X165862000Y-94488000D01*
X165862000Y-89372048D01*
X165879085Y-89370365D01*
X166017633Y-89328337D01*
X166145320Y-89260087D01*
X166257238Y-89168238D01*
X166280259Y-89140187D01*
X166483192Y-88937254D01*
X166511237Y-88914238D01*
X166603087Y-88802320D01*
X166671337Y-88674633D01*
X166713365Y-88536085D01*
X166724000Y-88428105D01*
X166724000Y-88428096D01*
X166727555Y-88392001D01*
X166724000Y-88355906D01*
X166724000Y-87088711D01*
X166792937Y-87019774D01*
X166906205Y-86850256D01*
X166984226Y-86661898D01*
X167024000Y-86461939D01*
X167024000Y-86258061D01*
X166984226Y-86058102D01*
X166906205Y-85869744D01*
X166792937Y-85700226D01*
X166682711Y-85590000D01*
X170759249Y-85590000D01*
X170815000Y-85595491D01*
X170870751Y-85590000D01*
X170870752Y-85590000D01*
X171037499Y-85573577D01*
X171251447Y-85508676D01*
X171448623Y-85403284D01*
X171621449Y-85261449D01*
X171656995Y-85218136D01*
X171767500Y-85107632D01*
X172220001Y-85560133D01*
G37*
X172220001Y-85560133D02*
X172220000Y-86939248D01*
X172214509Y-86995000D01*
X172220001Y-87050761D01*
X172220000Y-88429868D01*
X170856859Y-89793010D01*
X170813551Y-89828552D01*
X170671716Y-90001378D01*
X170662523Y-90018577D01*
X170566323Y-90198555D01*
X170501422Y-90412503D01*
X170479508Y-90635001D01*
X170485000Y-90690762D01*
X170484999Y-94488000D01*
X165862000Y-94488000D01*
X165862000Y-89372048D01*
X165879085Y-89370365D01*
X166017633Y-89328337D01*
X166145320Y-89260087D01*
X166257238Y-89168238D01*
X166280259Y-89140187D01*
X166483192Y-88937254D01*
X166511237Y-88914238D01*
X166603087Y-88802320D01*
X166671337Y-88674633D01*
X166713365Y-88536085D01*
X166724000Y-88428105D01*
X166724000Y-88428096D01*
X166727555Y-88392001D01*
X166724000Y-88355906D01*
X166724000Y-87088711D01*
X166792937Y-87019774D01*
X166906205Y-86850256D01*
X166984226Y-86661898D01*
X167024000Y-86461939D01*
X167024000Y-86258061D01*
X166984226Y-86058102D01*
X166906205Y-85869744D01*
X166792937Y-85700226D01*
X166682711Y-85590000D01*
X170759249Y-85590000D01*
X170815000Y-85595491D01*
X170870751Y-85590000D01*
X170870752Y-85590000D01*
X171037499Y-85573577D01*
X171251447Y-85508676D01*
X171448623Y-85403284D01*
X171621449Y-85261449D01*
X171656995Y-85218136D01*
X171767500Y-85107632D01*
X172220001Y-85560133D01*
G36*
X185902554Y-79535476D02*
G01*
X185332021Y-79771799D01*
X184818554Y-80114886D01*
X184381886Y-80551554D01*
X184038799Y-81065021D01*
X183802476Y-81635554D01*
X183682000Y-82241229D01*
X183682000Y-82858771D01*
X183802476Y-83464446D01*
X184038799Y-84034979D01*
X184381886Y-84548446D01*
X184818554Y-84985114D01*
X185332021Y-85328201D01*
X185902554Y-85564524D01*
X186508229Y-85685000D01*
X187125771Y-85685000D01*
X187731446Y-85564524D01*
X188301979Y-85328201D01*
X188815446Y-84985114D01*
X189252114Y-84548446D01*
X189595201Y-84034979D01*
X189831524Y-83464446D01*
X189952000Y-82858771D01*
X189952000Y-82677000D01*
X189967726Y-82677000D01*
X189969633Y-93034693D01*
X189901901Y-92998489D01*
X189669102Y-92927870D01*
X189487665Y-92910000D01*
X188266335Y-92910000D01*
X188084898Y-92927870D01*
X187852099Y-92998489D01*
X187637551Y-93113167D01*
X187449498Y-93267498D01*
X187295167Y-93455551D01*
X187180489Y-93670099D01*
X187109870Y-93902898D01*
X187086025Y-94145000D01*
X187090185Y-94187237D01*
X187088928Y-94200000D01*
X187088928Y-94365000D01*
X185596307Y-94365000D01*
X185617975Y-94145000D01*
X185594130Y-93902898D01*
X185523511Y-93670099D01*
X185408833Y-93455551D01*
X185254502Y-93267498D01*
X185066449Y-93113167D01*
X184851901Y-92998489D01*
X184619102Y-92927870D01*
X184437665Y-92910000D01*
X183216335Y-92910000D01*
X183034898Y-92927870D01*
X182802099Y-92998489D01*
X182587551Y-93113167D01*
X182399498Y-93267498D01*
X182245167Y-93455551D01*
X182130489Y-93670099D01*
X182059870Y-93902898D01*
X182036025Y-94145000D01*
X182044452Y-94230558D01*
X182028676Y-94178553D01*
X181923284Y-93981377D01*
X181781449Y-93808551D01*
X181608623Y-93666716D01*
X181411447Y-93561324D01*
X181197499Y-93496423D01*
X181030752Y-93480000D01*
X180037749Y-93480000D01*
X179981998Y-93474509D01*
X179926246Y-93480000D01*
X179759499Y-93496423D01*
X179545551Y-93561324D01*
X179348375Y-93666716D01*
X179175549Y-93808551D01*
X179140006Y-93851860D01*
X178503867Y-94488000D01*
X173625349Y-94488000D01*
X173637205Y-94470256D01*
X173715226Y-94281898D01*
X173755000Y-94081939D01*
X173755000Y-93878061D01*
X173721961Y-93711961D01*
X173888061Y-93745000D01*
X174091939Y-93745000D01*
X174291898Y-93705226D01*
X174480256Y-93627205D01*
X174649774Y-93513937D01*
X174718711Y-93445000D01*
X175223895Y-93445000D01*
X175260000Y-93448556D01*
X175296105Y-93445000D01*
X175404085Y-93434365D01*
X175542633Y-93392337D01*
X175670320Y-93324087D01*
X175782238Y-93232238D01*
X175805258Y-93204188D01*
X176389197Y-92620250D01*
X176417237Y-92597238D01*
X176440250Y-92569197D01*
X176440253Y-92569194D01*
X176509087Y-92485320D01*
X176577337Y-92357634D01*
X176619365Y-92219085D01*
X176633556Y-92075000D01*
X176630000Y-92038895D01*
X176630000Y-90703061D01*
X183750000Y-90703061D01*
X183750000Y-90906939D01*
X183789774Y-91106898D01*
X183867795Y-91295256D01*
X183981063Y-91464774D01*
X184125226Y-91608937D01*
X184294744Y-91722205D01*
X184483102Y-91800226D01*
X184683061Y-91840000D01*
X184886939Y-91840000D01*
X185086898Y-91800226D01*
X185275256Y-91722205D01*
X185444774Y-91608937D01*
X185588937Y-91464774D01*
X185702205Y-91295256D01*
X185780226Y-91106898D01*
X185820000Y-90906939D01*
X185820000Y-90703061D01*
X185780226Y-90503102D01*
X185702205Y-90314744D01*
X185588937Y-90145226D01*
X185444774Y-90001063D01*
X185275256Y-89887795D01*
X185086898Y-89809774D01*
X184886939Y-89770000D01*
X184683061Y-89770000D01*
X184483102Y-89809774D01*
X184294744Y-89887795D01*
X184125226Y-90001063D01*
X183981063Y-90145226D01*
X183867795Y-90314744D01*
X183789774Y-90503102D01*
X183750000Y-90703061D01*
X176630000Y-90703061D01*
X176630000Y-86029446D01*
X176834447Y-85825000D01*
X179668895Y-85825000D01*
X179705000Y-85828556D01*
X179741105Y-85825000D01*
X179849085Y-85814365D01*
X179987633Y-85772337D01*
X180115320Y-85704087D01*
X180227238Y-85612238D01*
X180250258Y-85584188D01*
X181459070Y-84375376D01*
X181465990Y-84374695D01*
X181632813Y-84324088D01*
X181786559Y-84241910D01*
X181887546Y-84159032D01*
X182043440Y-84003138D01*
X182170158Y-83977932D01*
X182440411Y-83865990D01*
X182683632Y-83703475D01*
X182890475Y-83496632D01*
X183052990Y-83253411D01*
X183164932Y-82983158D01*
X183222000Y-82696260D01*
X183222000Y-82403740D01*
X183164932Y-82116842D01*
X183052990Y-81846589D01*
X182890475Y-81603368D01*
X182683632Y-81396525D01*
X182440411Y-81234010D01*
X182170158Y-81122068D01*
X181883260Y-81065000D01*
X181590740Y-81065000D01*
X181303842Y-81122068D01*
X181033589Y-81234010D01*
X180790368Y-81396525D01*
X180583525Y-81603368D01*
X180467000Y-81777760D01*
X180350475Y-81603368D01*
X180143632Y-81396525D01*
X179900411Y-81234010D01*
X179630158Y-81122068D01*
X179343260Y-81065000D01*
X179050740Y-81065000D01*
X178763842Y-81122068D01*
X178493589Y-81234010D01*
X178250368Y-81396525D01*
X178043525Y-81603368D01*
X177927000Y-81777760D01*
X177810475Y-81603368D01*
X177603632Y-81396525D01*
X177360411Y-81234010D01*
X177090158Y-81122068D01*
X176803260Y-81065000D01*
X176510740Y-81065000D01*
X176223842Y-81122068D01*
X175953589Y-81234010D01*
X175710368Y-81396525D01*
X175503525Y-81603368D01*
X175387000Y-81777760D01*
X175270475Y-81603368D01*
X175063632Y-81396525D01*
X174820411Y-81234010D01*
X174550158Y-81122068D01*
X174263260Y-81065000D01*
X173970740Y-81065000D01*
X173683842Y-81122068D01*
X173413589Y-81234010D01*
X173170368Y-81396525D01*
X172963525Y-81603368D01*
X172847000Y-81777760D01*
X172730475Y-81603368D01*
X172523632Y-81396525D01*
X172280411Y-81234010D01*
X172010158Y-81122068D01*
X171723260Y-81065000D01*
X171430740Y-81065000D01*
X171143842Y-81122068D01*
X170873589Y-81234010D01*
X170630368Y-81396525D01*
X170498513Y-81528380D01*
X170476502Y-81455820D01*
X170417537Y-81345506D01*
X170338185Y-81248815D01*
X170241494Y-81169463D01*
X170131180Y-81110498D01*
X170011482Y-81074188D01*
X169887000Y-81061928D01*
X169322750Y-81065000D01*
X169164000Y-81223750D01*
X169164000Y-82423000D01*
X169184000Y-82423000D01*
X169184000Y-82677000D01*
X169164000Y-82677000D01*
X169164000Y-82697000D01*
X168910000Y-82697000D01*
X168910000Y-82677000D01*
X167710750Y-82677000D01*
X167552000Y-82835750D01*
X167549364Y-83320000D01*
X165862000Y-83320000D01*
X165862000Y-81700000D01*
X167548928Y-81700000D01*
X167552000Y-82264250D01*
X167710750Y-82423000D01*
X168910000Y-82423000D01*
X168910000Y-81223750D01*
X168751250Y-81065000D01*
X168187000Y-81061928D01*
X168062518Y-81074188D01*
X167942820Y-81110498D01*
X167832506Y-81169463D01*
X167735815Y-81248815D01*
X167656463Y-81345506D01*
X167597498Y-81455820D01*
X167561188Y-81575518D01*
X167548928Y-81700000D01*
X165862000Y-81700000D01*
X165862000Y-79425000D01*
X186457956Y-79425000D01*
X185902554Y-79535476D01*
G37*
X185902554Y-79535476D02*
X185332021Y-79771799D01*
X184818554Y-80114886D01*
X184381886Y-80551554D01*
X184038799Y-81065021D01*
X183802476Y-81635554D01*
X183682000Y-82241229D01*
X183682000Y-82858771D01*
X183802476Y-83464446D01*
X184038799Y-84034979D01*
X184381886Y-84548446D01*
X184818554Y-84985114D01*
X185332021Y-85328201D01*
X185902554Y-85564524D01*
X186508229Y-85685000D01*
X187125771Y-85685000D01*
X187731446Y-85564524D01*
X188301979Y-85328201D01*
X188815446Y-84985114D01*
X189252114Y-84548446D01*
X189595201Y-84034979D01*
X189831524Y-83464446D01*
X189952000Y-82858771D01*
X189952000Y-82677000D01*
X189967726Y-82677000D01*
X189969633Y-93034693D01*
X189901901Y-92998489D01*
X189669102Y-92927870D01*
X189487665Y-92910000D01*
X188266335Y-92910000D01*
X188084898Y-92927870D01*
X187852099Y-92998489D01*
X187637551Y-93113167D01*
X187449498Y-93267498D01*
X187295167Y-93455551D01*
X187180489Y-93670099D01*
X187109870Y-93902898D01*
X187086025Y-94145000D01*
X187090185Y-94187237D01*
X187088928Y-94200000D01*
X187088928Y-94365000D01*
X185596307Y-94365000D01*
X185617975Y-94145000D01*
X185594130Y-93902898D01*
X185523511Y-93670099D01*
X185408833Y-93455551D01*
X185254502Y-93267498D01*
X185066449Y-93113167D01*
X184851901Y-92998489D01*
X184619102Y-92927870D01*
X184437665Y-92910000D01*
X183216335Y-92910000D01*
X183034898Y-92927870D01*
X182802099Y-92998489D01*
X182587551Y-93113167D01*
X182399498Y-93267498D01*
X182245167Y-93455551D01*
X182130489Y-93670099D01*
X182059870Y-93902898D01*
X182036025Y-94145000D01*
X182044452Y-94230558D01*
X182028676Y-94178553D01*
X181923284Y-93981377D01*
X181781449Y-93808551D01*
X181608623Y-93666716D01*
X181411447Y-93561324D01*
X181197499Y-93496423D01*
X181030752Y-93480000D01*
X180037749Y-93480000D01*
X179981998Y-93474509D01*
X179926246Y-93480000D01*
X179759499Y-93496423D01*
X179545551Y-93561324D01*
X179348375Y-93666716D01*
X179175549Y-93808551D01*
X179140006Y-93851860D01*
X178503867Y-94488000D01*
X173625349Y-94488000D01*
X173637205Y-94470256D01*
X173715226Y-94281898D01*
X173755000Y-94081939D01*
X173755000Y-93878061D01*
X173721961Y-93711961D01*
X173888061Y-93745000D01*
X174091939Y-93745000D01*
X174291898Y-93705226D01*
X174480256Y-93627205D01*
X174649774Y-93513937D01*
X174718711Y-93445000D01*
X175223895Y-93445000D01*
X175260000Y-93448556D01*
X175296105Y-93445000D01*
X175404085Y-93434365D01*
X175542633Y-93392337D01*
X175670320Y-93324087D01*
X175782238Y-93232238D01*
X175805258Y-93204188D01*
X176389197Y-92620250D01*
X176417237Y-92597238D01*
X176440250Y-92569197D01*
X176440253Y-92569194D01*
X176509087Y-92485320D01*
X176577337Y-92357634D01*
X176619365Y-92219085D01*
X176633556Y-92075000D01*
X176630000Y-92038895D01*
X176630000Y-90703061D01*
X183750000Y-90703061D01*
X183750000Y-90906939D01*
X183789774Y-91106898D01*
X183867795Y-91295256D01*
X183981063Y-91464774D01*
X184125226Y-91608937D01*
X184294744Y-91722205D01*
X184483102Y-91800226D01*
X184683061Y-91840000D01*
X184886939Y-91840000D01*
X185086898Y-91800226D01*
X185275256Y-91722205D01*
X185444774Y-91608937D01*
X185588937Y-91464774D01*
X185702205Y-91295256D01*
X185780226Y-91106898D01*
X185820000Y-90906939D01*
X185820000Y-90703061D01*
X185780226Y-90503102D01*
X185702205Y-90314744D01*
X185588937Y-90145226D01*
X185444774Y-90001063D01*
X185275256Y-89887795D01*
X185086898Y-89809774D01*
X184886939Y-89770000D01*
X184683061Y-89770000D01*
X184483102Y-89809774D01*
X184294744Y-89887795D01*
X184125226Y-90001063D01*
X183981063Y-90145226D01*
X183867795Y-90314744D01*
X183789774Y-90503102D01*
X183750000Y-90703061D01*
X176630000Y-90703061D01*
X176630000Y-86029446D01*
X176834447Y-85825000D01*
X179668895Y-85825000D01*
X179705000Y-85828556D01*
X179741105Y-85825000D01*
X179849085Y-85814365D01*
X179987633Y-85772337D01*
X180115320Y-85704087D01*
X180227238Y-85612238D01*
X180250258Y-85584188D01*
X181459070Y-84375376D01*
X181465990Y-84374695D01*
X181632813Y-84324088D01*
X181786559Y-84241910D01*
X181887546Y-84159032D01*
X182043440Y-84003138D01*
X182170158Y-83977932D01*
X182440411Y-83865990D01*
X182683632Y-83703475D01*
X182890475Y-83496632D01*
X183052990Y-83253411D01*
X183164932Y-82983158D01*
X183222000Y-82696260D01*
X183222000Y-82403740D01*
X183164932Y-82116842D01*
X183052990Y-81846589D01*
X182890475Y-81603368D01*
X182683632Y-81396525D01*
X182440411Y-81234010D01*
X182170158Y-81122068D01*
X181883260Y-81065000D01*
X181590740Y-81065000D01*
X181303842Y-81122068D01*
X181033589Y-81234010D01*
X180790368Y-81396525D01*
X180583525Y-81603368D01*
X180467000Y-81777760D01*
X180350475Y-81603368D01*
X180143632Y-81396525D01*
X179900411Y-81234010D01*
X179630158Y-81122068D01*
X179343260Y-81065000D01*
X179050740Y-81065000D01*
X178763842Y-81122068D01*
X178493589Y-81234010D01*
X178250368Y-81396525D01*
X178043525Y-81603368D01*
X177927000Y-81777760D01*
X177810475Y-81603368D01*
X177603632Y-81396525D01*
X177360411Y-81234010D01*
X177090158Y-81122068D01*
X176803260Y-81065000D01*
X176510740Y-81065000D01*
X176223842Y-81122068D01*
X175953589Y-81234010D01*
X175710368Y-81396525D01*
X175503525Y-81603368D01*
X175387000Y-81777760D01*
X175270475Y-81603368D01*
X175063632Y-81396525D01*
X174820411Y-81234010D01*
X174550158Y-81122068D01*
X174263260Y-81065000D01*
X173970740Y-81065000D01*
X173683842Y-81122068D01*
X173413589Y-81234010D01*
X173170368Y-81396525D01*
X172963525Y-81603368D01*
X172847000Y-81777760D01*
X172730475Y-81603368D01*
X172523632Y-81396525D01*
X172280411Y-81234010D01*
X172010158Y-81122068D01*
X171723260Y-81065000D01*
X171430740Y-81065000D01*
X171143842Y-81122068D01*
X170873589Y-81234010D01*
X170630368Y-81396525D01*
X170498513Y-81528380D01*
X170476502Y-81455820D01*
X170417537Y-81345506D01*
X170338185Y-81248815D01*
X170241494Y-81169463D01*
X170131180Y-81110498D01*
X170011482Y-81074188D01*
X169887000Y-81061928D01*
X169322750Y-81065000D01*
X169164000Y-81223750D01*
X169164000Y-82423000D01*
X169184000Y-82423000D01*
X169184000Y-82677000D01*
X169164000Y-82677000D01*
X169164000Y-82697000D01*
X168910000Y-82697000D01*
X168910000Y-82677000D01*
X167710750Y-82677000D01*
X167552000Y-82835750D01*
X167549364Y-83320000D01*
X165862000Y-83320000D01*
X165862000Y-81700000D01*
X167548928Y-81700000D01*
X167552000Y-82264250D01*
X167710750Y-82423000D01*
X168910000Y-82423000D01*
X168910000Y-81223750D01*
X168751250Y-81065000D01*
X168187000Y-81061928D01*
X168062518Y-81074188D01*
X167942820Y-81110498D01*
X167832506Y-81169463D01*
X167735815Y-81248815D01*
X167656463Y-81345506D01*
X167597498Y-81455820D01*
X167561188Y-81575518D01*
X167548928Y-81700000D01*
X165862000Y-81700000D01*
X165862000Y-79425000D01*
X186457956Y-79425000D01*
X185902554Y-79535476D01*
G04 #@! TO.N,GNDPWR*
G36*
X114257498Y-81455820D02*
G01*
X114221188Y-81575518D01*
X114208928Y-81700000D01*
X114208928Y-83400000D01*
X114221188Y-83524482D01*
X114257498Y-83644180D01*
X114316463Y-83754494D01*
X114395815Y-83851185D01*
X114492506Y-83930537D01*
X114602820Y-83989502D01*
X114722518Y-84025812D01*
X114847000Y-84038072D01*
X116547000Y-84038072D01*
X116671482Y-84025812D01*
X116791180Y-83989502D01*
X116901494Y-83930537D01*
X116998185Y-83851185D01*
X117077537Y-83754494D01*
X117136502Y-83644180D01*
X117160966Y-83563534D01*
X117236731Y-83647588D01*
X117470080Y-83821641D01*
X117732901Y-83946825D01*
X117880110Y-83991476D01*
X118110000Y-83870155D01*
X118110000Y-82677000D01*
X118090000Y-82677000D01*
X118090000Y-82423000D01*
X118110000Y-82423000D01*
X118110000Y-82403000D01*
X118364000Y-82403000D01*
X118364000Y-82423000D01*
X118384000Y-82423000D01*
X118384000Y-82677000D01*
X118364000Y-82677000D01*
X118364000Y-83870155D01*
X118593890Y-83991476D01*
X118741099Y-83946825D01*
X119003920Y-83821641D01*
X119237269Y-83647588D01*
X119432178Y-83431355D01*
X119501805Y-83314466D01*
X119623525Y-83496632D01*
X119830368Y-83703475D01*
X120073589Y-83865990D01*
X120343842Y-83977932D01*
X120630740Y-84035000D01*
X120923260Y-84035000D01*
X121210158Y-83977932D01*
X121480411Y-83865990D01*
X121723632Y-83703475D01*
X121930475Y-83496632D01*
X122047000Y-83322240D01*
X122163525Y-83496632D01*
X122370368Y-83703475D01*
X122613589Y-83865990D01*
X122883842Y-83977932D01*
X123170740Y-84035000D01*
X123463260Y-84035000D01*
X123750158Y-83977932D01*
X124020411Y-83865990D01*
X124263632Y-83703475D01*
X124470475Y-83496632D01*
X124587000Y-83322240D01*
X124703525Y-83496632D01*
X124910368Y-83703475D01*
X125153589Y-83865990D01*
X125423842Y-83977932D01*
X125710740Y-84035000D01*
X126003260Y-84035000D01*
X126085107Y-84018720D01*
X126124941Y-84051411D01*
X126278686Y-84133588D01*
X126445510Y-84184195D01*
X126452430Y-84184877D01*
X126886806Y-84619253D01*
X126886811Y-84619257D01*
X127597746Y-85330193D01*
X127620762Y-85358238D01*
X127648806Y-85381253D01*
X127732680Y-85450087D01*
X127860366Y-85518337D01*
X127998915Y-85560365D01*
X128143000Y-85574556D01*
X128179105Y-85571000D01*
X130964001Y-85571000D01*
X130964000Y-94679071D01*
X130957774Y-94694102D01*
X130918000Y-94894061D01*
X130918000Y-95097939D01*
X130957774Y-95297898D01*
X131035795Y-95486256D01*
X131149063Y-95655774D01*
X131293226Y-95799937D01*
X131462744Y-95913205D01*
X131651102Y-95991226D01*
X131851061Y-96031000D01*
X132054939Y-96031000D01*
X132254898Y-95991226D01*
X132443256Y-95913205D01*
X132612774Y-95799937D01*
X132756937Y-95655774D01*
X132870205Y-95486256D01*
X132948226Y-95297898D01*
X132988000Y-95097939D01*
X132988000Y-94894061D01*
X132948226Y-94694102D01*
X132930675Y-94651730D01*
X132951256Y-94643205D01*
X133120774Y-94529937D01*
X133264937Y-94385774D01*
X133378205Y-94216256D01*
X133456226Y-94027898D01*
X133496000Y-93827939D01*
X133496000Y-93624061D01*
X133456226Y-93424102D01*
X133438675Y-93381730D01*
X133459256Y-93373205D01*
X133628774Y-93259937D01*
X133772937Y-93115774D01*
X133886205Y-92946256D01*
X133964226Y-92757898D01*
X134004000Y-92557939D01*
X134004000Y-92354061D01*
X133964226Y-92154102D01*
X133946675Y-92111730D01*
X133967256Y-92103205D01*
X134136774Y-91989937D01*
X134280937Y-91845774D01*
X134394205Y-91676256D01*
X134472226Y-91487898D01*
X134512000Y-91287939D01*
X134512000Y-91084061D01*
X134472226Y-90884102D01*
X134394205Y-90695744D01*
X134280937Y-90526226D01*
X134212000Y-90457289D01*
X134212000Y-85126104D01*
X134215556Y-85090000D01*
X134212000Y-85053895D01*
X134212000Y-84065434D01*
X134216411Y-84060059D01*
X134298589Y-83906313D01*
X134343974Y-83756701D01*
X134423632Y-83703475D01*
X134630475Y-83496632D01*
X134747000Y-83322240D01*
X134863525Y-83496632D01*
X135070368Y-83703475D01*
X135313589Y-83865990D01*
X135583842Y-83977932D01*
X135870740Y-84035000D01*
X136163260Y-84035000D01*
X136450158Y-83977932D01*
X136720411Y-83865990D01*
X136963632Y-83703475D01*
X137170475Y-83496632D01*
X137287000Y-83322240D01*
X137403525Y-83496632D01*
X137610368Y-83703475D01*
X137853589Y-83865990D01*
X138123842Y-83977932D01*
X138410740Y-84035000D01*
X138703260Y-84035000D01*
X138990158Y-83977932D01*
X139260411Y-83865990D01*
X139503632Y-83703475D01*
X139710475Y-83496632D01*
X139827000Y-83322240D01*
X139943525Y-83496632D01*
X140150368Y-83703475D01*
X140393589Y-83865990D01*
X140663842Y-83977932D01*
X140950740Y-84035000D01*
X141243260Y-84035000D01*
X141530158Y-83977932D01*
X141800411Y-83865990D01*
X142043632Y-83703475D01*
X142250475Y-83496632D01*
X142367000Y-83322240D01*
X142483525Y-83496632D01*
X142690368Y-83703475D01*
X142933589Y-83865990D01*
X143203842Y-83977932D01*
X143490740Y-84035000D01*
X143783260Y-84035000D01*
X144070158Y-83977932D01*
X144340411Y-83865990D01*
X144583632Y-83703475D01*
X144790475Y-83496632D01*
X144952990Y-83253411D01*
X145064932Y-82983158D01*
X145122000Y-82696260D01*
X145122000Y-82403740D01*
X145064932Y-82116842D01*
X144952990Y-81846589D01*
X144790475Y-81603368D01*
X144594107Y-81407000D01*
X164973000Y-81407000D01*
X164973000Y-86162541D01*
X164954000Y-86258061D01*
X164954000Y-86461939D01*
X164973000Y-86557459D01*
X164973000Y-87911000D01*
X163739094Y-87911000D01*
X163702999Y-87907445D01*
X163666904Y-87911000D01*
X163666895Y-87911000D01*
X163558915Y-87921635D01*
X163420367Y-87963663D01*
X163292680Y-88031913D01*
X163180762Y-88123762D01*
X163157741Y-88151813D01*
X162954808Y-88354746D01*
X162926763Y-88377762D01*
X162834913Y-88489680D01*
X162814000Y-88528806D01*
X162793087Y-88489680D01*
X162701238Y-88377762D01*
X162673187Y-88354741D01*
X162470259Y-88151813D01*
X162447238Y-88123762D01*
X162335320Y-88031913D01*
X162207633Y-87963663D01*
X162069085Y-87921635D01*
X161961105Y-87911000D01*
X161925000Y-87907444D01*
X161888895Y-87911000D01*
X152323447Y-87911000D01*
X152246000Y-87833554D01*
X152246000Y-87088711D01*
X152314937Y-87019774D01*
X152428205Y-86850256D01*
X152506226Y-86661898D01*
X152546000Y-86461939D01*
X152546000Y-86258061D01*
X152506226Y-86058102D01*
X152428205Y-85869744D01*
X152314937Y-85700226D01*
X152170774Y-85556063D01*
X152001256Y-85442795D01*
X151812898Y-85364774D01*
X151612939Y-85325000D01*
X151409061Y-85325000D01*
X151209102Y-85364774D01*
X151020744Y-85442795D01*
X150851226Y-85556063D01*
X150707063Y-85700226D01*
X150593795Y-85869744D01*
X150515774Y-86058102D01*
X150476000Y-86258061D01*
X150476000Y-86461939D01*
X150515774Y-86661898D01*
X150593795Y-86850256D01*
X150707063Y-87019774D01*
X150776000Y-87088711D01*
X150776001Y-88101885D01*
X150772444Y-88138000D01*
X150786635Y-88282085D01*
X150825361Y-88409744D01*
X150828664Y-88420633D01*
X150896914Y-88548320D01*
X150988763Y-88660238D01*
X151016808Y-88683254D01*
X151473746Y-89140192D01*
X151496762Y-89168238D01*
X151608680Y-89260087D01*
X151736367Y-89328337D01*
X151874915Y-89370365D01*
X151982895Y-89381000D01*
X151982904Y-89381000D01*
X152018999Y-89384555D01*
X152055094Y-89381000D01*
X161144000Y-89381000D01*
X161144000Y-89509939D01*
X161183774Y-89709898D01*
X161261795Y-89898256D01*
X161375063Y-90067774D01*
X161519226Y-90211937D01*
X161688744Y-90325205D01*
X161877102Y-90403226D01*
X162077061Y-90443000D01*
X162280939Y-90443000D01*
X162480898Y-90403226D01*
X162669256Y-90325205D01*
X162814000Y-90228490D01*
X162958744Y-90325205D01*
X163147102Y-90403226D01*
X163347061Y-90443000D01*
X163550939Y-90443000D01*
X163750898Y-90403226D01*
X163939256Y-90325205D01*
X164108774Y-90211937D01*
X164252937Y-90067774D01*
X164366205Y-89898256D01*
X164444226Y-89709898D01*
X164484000Y-89509939D01*
X164484000Y-89381000D01*
X164854001Y-89381000D01*
X164854000Y-92314002D01*
X156900752Y-92314002D01*
X156845000Y-92308511D01*
X156789248Y-92314002D01*
X156622501Y-92330425D01*
X156408553Y-92395326D01*
X156211377Y-92500718D01*
X156038551Y-92642553D01*
X156003011Y-92685859D01*
X155233871Y-93455000D01*
X155040000Y-93455000D01*
X155040000Y-93438711D01*
X155108937Y-93369774D01*
X155222205Y-93200256D01*
X155300226Y-93011898D01*
X155340000Y-92811939D01*
X155340000Y-92608061D01*
X155300226Y-92408102D01*
X155222205Y-92219744D01*
X155108937Y-92050226D01*
X154964774Y-91906063D01*
X154795256Y-91792795D01*
X154606898Y-91714774D01*
X154406939Y-91675000D01*
X154203061Y-91675000D01*
X154003102Y-91714774D01*
X153960730Y-91732325D01*
X153952205Y-91711744D01*
X153838937Y-91542226D01*
X153694774Y-91398063D01*
X153525256Y-91284795D01*
X153336898Y-91206774D01*
X153136939Y-91167000D01*
X152933061Y-91167000D01*
X152733102Y-91206774D01*
X152690730Y-91224325D01*
X152682205Y-91203744D01*
X152568937Y-91034226D01*
X152424774Y-90890063D01*
X152255256Y-90776795D01*
X152066898Y-90698774D01*
X151866939Y-90659000D01*
X151663061Y-90659000D01*
X151463102Y-90698774D01*
X151420730Y-90716325D01*
X151412205Y-90695744D01*
X151298937Y-90526226D01*
X151154774Y-90382063D01*
X150985256Y-90268795D01*
X150796898Y-90190774D01*
X150596939Y-90151000D01*
X150393061Y-90151000D01*
X150193102Y-90190774D01*
X150004744Y-90268795D01*
X149835226Y-90382063D01*
X149691063Y-90526226D01*
X149577795Y-90695744D01*
X149499774Y-90884102D01*
X149460000Y-91084061D01*
X149460000Y-91287939D01*
X149499774Y-91487898D01*
X149577795Y-91676256D01*
X149691063Y-91845774D01*
X149783514Y-91938225D01*
X149812663Y-92034317D01*
X149880913Y-92162004D01*
X149972762Y-92273922D01*
X150000808Y-92296939D01*
X150222292Y-92518423D01*
X150042744Y-92592795D01*
X149873226Y-92706063D01*
X149729063Y-92850226D01*
X149615795Y-93019744D01*
X149541544Y-93199000D01*
X149377061Y-93199000D01*
X149177102Y-93238774D01*
X148988744Y-93316795D01*
X148819226Y-93430063D01*
X148675063Y-93574226D01*
X148583835Y-93710759D01*
X148564939Y-93707000D01*
X148361061Y-93707000D01*
X148182000Y-93742617D01*
X148182000Y-83913711D01*
X148250937Y-83844774D01*
X148364205Y-83675256D01*
X148442226Y-83486898D01*
X148482000Y-83286939D01*
X148482000Y-83083061D01*
X148442226Y-82883102D01*
X148364205Y-82694744D01*
X148250937Y-82525226D01*
X148106774Y-82381063D01*
X147937256Y-82267795D01*
X147748898Y-82189774D01*
X147548939Y-82150000D01*
X147345061Y-82150000D01*
X147145102Y-82189774D01*
X146956744Y-82267795D01*
X146787226Y-82381063D01*
X146643063Y-82525226D01*
X146529795Y-82694744D01*
X146451774Y-82883102D01*
X146412000Y-83083061D01*
X146412000Y-83286939D01*
X146451774Y-83486898D01*
X146529795Y-83675256D01*
X146643063Y-83844774D01*
X146712001Y-83913712D01*
X146712000Y-98661289D01*
X146643063Y-98730226D01*
X146529795Y-98899744D01*
X146451774Y-99088102D01*
X146412000Y-99288061D01*
X146412000Y-99491939D01*
X146451774Y-99691898D01*
X146529795Y-99880256D01*
X146643063Y-100049774D01*
X146787226Y-100193937D01*
X146956744Y-100307205D01*
X147145102Y-100385226D01*
X147345061Y-100425000D01*
X147548939Y-100425000D01*
X147748898Y-100385226D01*
X147937256Y-100307205D01*
X148106774Y-100193937D01*
X148250937Y-100049774D01*
X148364205Y-99880256D01*
X148442226Y-99691898D01*
X148455533Y-99625000D01*
X148564939Y-99625000D01*
X148764898Y-99585226D01*
X148953256Y-99507205D01*
X149122774Y-99393937D01*
X149266937Y-99249774D01*
X149380205Y-99080256D01*
X149458226Y-98891898D01*
X149471533Y-98825000D01*
X149580939Y-98825000D01*
X149780898Y-98785226D01*
X149969256Y-98707205D01*
X150138774Y-98593937D01*
X150282937Y-98449774D01*
X150396205Y-98280256D01*
X150474226Y-98091898D01*
X150487533Y-98025000D01*
X150634939Y-98025000D01*
X150834898Y-97985226D01*
X151023256Y-97907205D01*
X151192774Y-97793937D01*
X151284001Y-97702710D01*
X151284000Y-105443289D01*
X151215063Y-105512226D01*
X151101795Y-105681744D01*
X151023774Y-105870102D01*
X150984000Y-106070061D01*
X150984000Y-106273939D01*
X151023774Y-106473898D01*
X151101795Y-106662256D01*
X151215063Y-106831774D01*
X151359226Y-106975937D01*
X151528744Y-107089205D01*
X151717102Y-107167226D01*
X151917061Y-107207000D01*
X152000000Y-107207000D01*
X152000000Y-107289939D01*
X152039774Y-107489898D01*
X152117795Y-107678256D01*
X152231063Y-107847774D01*
X152375226Y-107991937D01*
X152544744Y-108105205D01*
X152733102Y-108183226D01*
X152933061Y-108223000D01*
X153050026Y-108223000D01*
X153055774Y-108251898D01*
X153133795Y-108440256D01*
X153163692Y-108485000D01*
X150531096Y-108485000D01*
X150494999Y-108481445D01*
X150458902Y-108485000D01*
X150458895Y-108485000D01*
X150365132Y-108494235D01*
X150350914Y-108495635D01*
X150308886Y-108508384D01*
X150212367Y-108537663D01*
X150084680Y-108605913D01*
X149972762Y-108697762D01*
X149949746Y-108725807D01*
X148857808Y-109817746D01*
X148829763Y-109840762D01*
X148737914Y-109952680D01*
X148701799Y-110020247D01*
X148669664Y-110080367D01*
X148627635Y-110218915D01*
X148613444Y-110363000D01*
X148617000Y-110399105D01*
X148617000Y-110947553D01*
X148539554Y-111025000D01*
X144545000Y-111025000D01*
X144545000Y-110838061D01*
X144505226Y-110638102D01*
X144427205Y-110449744D01*
X144313937Y-110280226D01*
X144270000Y-110236289D01*
X144270000Y-105478711D01*
X144313937Y-105434774D01*
X144427205Y-105265256D01*
X144505226Y-105076898D01*
X144545000Y-104876939D01*
X144545000Y-104673061D01*
X144505226Y-104473102D01*
X144427205Y-104284744D01*
X144313937Y-104115226D01*
X144169774Y-103971063D01*
X144000256Y-103857795D01*
X143811898Y-103779774D01*
X143611939Y-103740000D01*
X143408061Y-103740000D01*
X143208102Y-103779774D01*
X143019744Y-103857795D01*
X142850226Y-103971063D01*
X142706063Y-104115226D01*
X142592795Y-104284744D01*
X142514774Y-104473102D01*
X142475000Y-104673061D01*
X142475000Y-104876939D01*
X142514774Y-105076898D01*
X142592795Y-105265256D01*
X142706063Y-105434774D01*
X142750001Y-105478712D01*
X142750000Y-110236289D01*
X142706063Y-110280226D01*
X142592795Y-110449744D01*
X142514774Y-110638102D01*
X142475000Y-110838061D01*
X142475000Y-111025000D01*
X141698105Y-111025000D01*
X141662000Y-111021444D01*
X141625895Y-111025000D01*
X141517915Y-111035635D01*
X141379367Y-111077663D01*
X141251680Y-111145913D01*
X141144865Y-111233574D01*
X141142509Y-111233806D01*
X141000591Y-111276857D01*
X140988081Y-111271675D01*
X140652883Y-111205000D01*
X140311117Y-111205000D01*
X139975919Y-111271675D01*
X139660169Y-111402463D01*
X139624600Y-111426230D01*
X139590325Y-111253919D01*
X139459537Y-110938169D01*
X139269663Y-110654002D01*
X139027998Y-110412337D01*
X138771217Y-110240761D01*
X138743589Y-110149687D01*
X138682000Y-110034461D01*
X138682000Y-109384325D01*
X138685676Y-109347000D01*
X138682000Y-109309675D01*
X138682000Y-109309667D01*
X138671003Y-109198014D01*
X138627546Y-109054753D01*
X138556974Y-108922724D01*
X138462001Y-108806999D01*
X138433002Y-108783201D01*
X137920000Y-108270199D01*
X137920000Y-105605711D01*
X137963937Y-105561774D01*
X138077205Y-105392256D01*
X138155226Y-105203898D01*
X138195000Y-105003939D01*
X138195000Y-104800061D01*
X138155226Y-104600102D01*
X138077205Y-104411744D01*
X137963937Y-104242226D01*
X137819774Y-104098063D01*
X137650256Y-103984795D01*
X137461898Y-103906774D01*
X137261939Y-103867000D01*
X137058061Y-103867000D01*
X136858102Y-103906774D01*
X136669744Y-103984795D01*
X136500226Y-104098063D01*
X136356063Y-104242226D01*
X136242795Y-104411744D01*
X136164774Y-104600102D01*
X136125000Y-104800061D01*
X136125000Y-105003939D01*
X136164774Y-105203898D01*
X136242795Y-105392256D01*
X136356063Y-105561774D01*
X136400000Y-105605711D01*
X136400001Y-108547658D01*
X136400000Y-108547668D01*
X136400000Y-108547678D01*
X136396324Y-108585000D01*
X136400000Y-108622322D01*
X136400000Y-108847198D01*
X136226458Y-109020740D01*
X136184686Y-109033412D01*
X136030941Y-109115589D01*
X135929953Y-109198468D01*
X135861945Y-109266476D01*
X135552883Y-109205000D01*
X135211117Y-109205000D01*
X134875919Y-109271675D01*
X134560169Y-109402463D01*
X134276002Y-109592337D01*
X134034337Y-109834002D01*
X133844463Y-110118169D01*
X133713675Y-110433919D01*
X133647000Y-110769117D01*
X133647000Y-111110883D01*
X133713675Y-111446081D01*
X133844463Y-111761831D01*
X134034337Y-112045998D01*
X134276002Y-112287663D01*
X134560169Y-112477537D01*
X134875919Y-112608325D01*
X135211117Y-112675000D01*
X135552883Y-112675000D01*
X135888081Y-112608325D01*
X136203831Y-112477537D01*
X136311472Y-112405614D01*
X136384463Y-112581831D01*
X136574337Y-112865998D01*
X136816002Y-113107663D01*
X137100169Y-113297537D01*
X137415919Y-113428325D01*
X137751117Y-113495000D01*
X138092883Y-113495000D01*
X138428081Y-113428325D01*
X138743831Y-113297537D01*
X138779400Y-113273770D01*
X138813675Y-113446081D01*
X138825693Y-113475096D01*
X138806004Y-113540000D01*
X133297539Y-113540000D01*
X133182313Y-113478411D01*
X133091239Y-113450783D01*
X132919663Y-113194002D01*
X132677998Y-112952337D01*
X132393831Y-112762463D01*
X132078081Y-112631675D01*
X131742883Y-112565000D01*
X131401117Y-112565000D01*
X131065919Y-112631675D01*
X130750169Y-112762463D01*
X130466002Y-112952337D01*
X130224337Y-113194002D01*
X130052761Y-113450783D01*
X129961687Y-113478411D01*
X129846461Y-113540000D01*
X123106802Y-113540000D01*
X123088515Y-113521714D01*
X123080264Y-113494513D01*
X123100325Y-113446081D01*
X123167000Y-113110883D01*
X123167000Y-112769117D01*
X123100325Y-112433919D01*
X122969537Y-112118169D01*
X122779663Y-111834002D01*
X122537998Y-111592337D01*
X122253831Y-111402463D01*
X121938081Y-111271675D01*
X121602883Y-111205000D01*
X121261117Y-111205000D01*
X120925919Y-111271675D01*
X120610169Y-111402463D01*
X120574600Y-111426230D01*
X120540325Y-111253919D01*
X120514714Y-111192088D01*
X120710802Y-110996000D01*
X129756678Y-110996000D01*
X129794000Y-110999676D01*
X129831322Y-110996000D01*
X129831333Y-110996000D01*
X129942986Y-110985003D01*
X130086247Y-110941546D01*
X130218276Y-110870974D01*
X130334001Y-110776001D01*
X130357804Y-110746997D01*
X130685997Y-110418804D01*
X130715001Y-110395001D01*
X130809974Y-110279276D01*
X130880546Y-110147247D01*
X130924003Y-110003986D01*
X130935000Y-109892333D01*
X130935000Y-109892324D01*
X130938676Y-109855001D01*
X130935000Y-109817678D01*
X130935000Y-109257324D01*
X130938676Y-109220001D01*
X130935000Y-109182678D01*
X130935000Y-105479711D01*
X130978937Y-105435774D01*
X131092205Y-105266256D01*
X131170226Y-105077898D01*
X131210000Y-104877939D01*
X131210000Y-104674061D01*
X131170226Y-104474102D01*
X131092205Y-104285744D01*
X130978937Y-104116226D01*
X130834774Y-103972063D01*
X130665256Y-103858795D01*
X130476898Y-103780774D01*
X130276939Y-103741000D01*
X130073061Y-103741000D01*
X129873102Y-103780774D01*
X129684744Y-103858795D01*
X129515226Y-103972063D01*
X129371063Y-104116226D01*
X129257795Y-104285744D01*
X129179774Y-104474102D01*
X129140000Y-104674061D01*
X129140000Y-104877939D01*
X129179774Y-105077898D01*
X129257795Y-105266256D01*
X129371063Y-105435774D01*
X129415001Y-105479712D01*
X129415000Y-108905198D01*
X129352199Y-108968000D01*
X117581322Y-108968000D01*
X117543999Y-108964324D01*
X117506676Y-108968000D01*
X117506667Y-108968000D01*
X117395014Y-108978997D01*
X117251753Y-109022454D01*
X117119724Y-109093026D01*
X117003999Y-109187999D01*
X116980196Y-109217003D01*
X116899913Y-109297286D01*
X116838081Y-109271675D01*
X116502883Y-109205000D01*
X116161117Y-109205000D01*
X115825919Y-109271675D01*
X115510169Y-109402463D01*
X115226002Y-109592337D01*
X114984337Y-109834002D01*
X114794463Y-110118169D01*
X114663675Y-110433919D01*
X114597000Y-110769117D01*
X114597000Y-111110883D01*
X114663675Y-111446081D01*
X114794463Y-111761831D01*
X114984337Y-112045998D01*
X115226002Y-112287663D01*
X115510169Y-112477537D01*
X115825919Y-112608325D01*
X116161117Y-112675000D01*
X116502883Y-112675000D01*
X116838081Y-112608325D01*
X117153831Y-112477537D01*
X117261472Y-112405614D01*
X117334463Y-112581831D01*
X117524337Y-112865998D01*
X117766002Y-113107663D01*
X118050169Y-113297537D01*
X118365919Y-113428325D01*
X118701117Y-113495000D01*
X119042883Y-113495000D01*
X119378081Y-113428325D01*
X119693831Y-113297537D01*
X119729400Y-113273770D01*
X119763675Y-113446081D01*
X119775693Y-113475096D01*
X119756004Y-113540000D01*
X114247539Y-113540000D01*
X114132313Y-113478411D01*
X114041239Y-113450783D01*
X113869663Y-113194002D01*
X113627998Y-112952337D01*
X113343831Y-112762463D01*
X113028081Y-112631675D01*
X112692883Y-112565000D01*
X112351117Y-112565000D01*
X112015919Y-112631675D01*
X111700169Y-112762463D01*
X111416002Y-112952337D01*
X111174337Y-113194002D01*
X110984463Y-113478169D01*
X110853675Y-113793919D01*
X110787000Y-114129117D01*
X110787000Y-114470883D01*
X110853675Y-114806081D01*
X110984463Y-115121831D01*
X111086524Y-115274576D01*
X110988109Y-115255000D01*
X110675891Y-115255000D01*
X110369673Y-115315911D01*
X110081221Y-115435391D01*
X109821621Y-115608850D01*
X109600850Y-115829621D01*
X109427391Y-116089221D01*
X109307911Y-116377673D01*
X109247000Y-116683891D01*
X109247000Y-116996109D01*
X109307911Y-117302327D01*
X109427391Y-117590779D01*
X109600850Y-117850379D01*
X109821621Y-118071150D01*
X110081221Y-118244609D01*
X110369673Y-118364089D01*
X110675891Y-118425000D01*
X110988109Y-118425000D01*
X111294327Y-118364089D01*
X111388697Y-118325000D01*
X111398260Y-118325000D01*
X111685158Y-118267932D01*
X111955411Y-118155990D01*
X112198632Y-117993475D01*
X112405475Y-117786632D01*
X112567990Y-117543411D01*
X112679932Y-117273158D01*
X112737000Y-116986260D01*
X112737000Y-116693740D01*
X112679932Y-116406842D01*
X112567990Y-116136589D01*
X112500110Y-116035000D01*
X112692883Y-116035000D01*
X113028081Y-115968325D01*
X113343831Y-115837537D01*
X113627998Y-115647663D01*
X113869663Y-115405998D01*
X114041239Y-115149217D01*
X114132313Y-115121589D01*
X114247539Y-115060000D01*
X114385547Y-115060000D01*
X114285262Y-115160285D01*
X113996893Y-115591859D01*
X113798261Y-116071399D01*
X113697000Y-116580475D01*
X113697000Y-117099525D01*
X113798261Y-117608601D01*
X113996893Y-118088141D01*
X114285262Y-118519715D01*
X114652285Y-118886738D01*
X115083859Y-119175107D01*
X115563399Y-119373739D01*
X116072475Y-119475000D01*
X116591525Y-119475000D01*
X117100601Y-119373739D01*
X117580141Y-119175107D01*
X118011715Y-118886738D01*
X118378738Y-118519715D01*
X118667107Y-118088141D01*
X118865739Y-117608601D01*
X118967000Y-117099525D01*
X118967000Y-116693740D01*
X119927000Y-116693740D01*
X119927000Y-116986260D01*
X119984068Y-117273158D01*
X120096010Y-117543411D01*
X120258525Y-117786632D01*
X120465368Y-117993475D01*
X120708589Y-118155990D01*
X120978842Y-118267932D01*
X121265740Y-118325000D01*
X121275303Y-118325000D01*
X121369673Y-118364089D01*
X121675891Y-118425000D01*
X121988109Y-118425000D01*
X122294327Y-118364089D01*
X122582779Y-118244609D01*
X122842379Y-118071150D01*
X123063150Y-117850379D01*
X123236609Y-117590779D01*
X123356089Y-117302327D01*
X123417000Y-116996109D01*
X123417000Y-116683891D01*
X123356089Y-116377673D01*
X123236609Y-116089221D01*
X123063150Y-115829621D01*
X122842379Y-115608850D01*
X122582779Y-115435391D01*
X122294327Y-115315911D01*
X121988109Y-115255000D01*
X121675891Y-115255000D01*
X121369673Y-115315911D01*
X121275303Y-115355000D01*
X121265740Y-115355000D01*
X120978842Y-115412068D01*
X120708589Y-115524010D01*
X120465368Y-115686525D01*
X120258525Y-115893368D01*
X120096010Y-116136589D01*
X119984068Y-116406842D01*
X119927000Y-116693740D01*
X118967000Y-116693740D01*
X118967000Y-116580475D01*
X118865739Y-116071399D01*
X118667107Y-115591859D01*
X118378738Y-115160285D01*
X118278453Y-115060000D01*
X120034678Y-115060000D01*
X120072000Y-115063676D01*
X120109322Y-115060000D01*
X120109333Y-115060000D01*
X120220986Y-115049003D01*
X120364247Y-115005546D01*
X120496276Y-114934974D01*
X120612001Y-114840001D01*
X120635803Y-114810998D01*
X120830285Y-114616516D01*
X120896904Y-114596307D01*
X120925919Y-114608325D01*
X121261117Y-114675000D01*
X121602883Y-114675000D01*
X121938081Y-114608325D01*
X121986513Y-114588264D01*
X122013714Y-114596515D01*
X122228200Y-114811002D01*
X122251999Y-114840001D01*
X122367724Y-114934974D01*
X122499753Y-115005546D01*
X122643014Y-115049003D01*
X122754667Y-115060000D01*
X122754676Y-115060000D01*
X122791999Y-115063676D01*
X122829322Y-115060000D01*
X129846461Y-115060000D01*
X129961687Y-115121589D01*
X130052761Y-115149217D01*
X130136524Y-115274576D01*
X130038109Y-115255000D01*
X129725891Y-115255000D01*
X129419673Y-115315911D01*
X129131221Y-115435391D01*
X128871621Y-115608850D01*
X128650850Y-115829621D01*
X128477391Y-116089221D01*
X128357911Y-116377673D01*
X128297000Y-116683891D01*
X128297000Y-116996109D01*
X128357911Y-117302327D01*
X128477391Y-117590779D01*
X128650850Y-117850379D01*
X128871621Y-118071150D01*
X129131221Y-118244609D01*
X129419673Y-118364089D01*
X129725891Y-118425000D01*
X130038109Y-118425000D01*
X130344327Y-118364089D01*
X130438697Y-118325000D01*
X130448260Y-118325000D01*
X130735158Y-118267932D01*
X131005411Y-118155990D01*
X131248632Y-117993475D01*
X131455475Y-117786632D01*
X131617990Y-117543411D01*
X131729932Y-117273158D01*
X131787000Y-116986260D01*
X131787000Y-116693740D01*
X131729932Y-116406842D01*
X131617990Y-116136589D01*
X131550110Y-116035000D01*
X131742883Y-116035000D01*
X132078081Y-115968325D01*
X132393831Y-115837537D01*
X132677998Y-115647663D01*
X132919663Y-115405998D01*
X133091239Y-115149217D01*
X133182313Y-115121589D01*
X133297539Y-115060000D01*
X133435547Y-115060000D01*
X133335262Y-115160285D01*
X133046893Y-115591859D01*
X132848261Y-116071399D01*
X132747000Y-116580475D01*
X132747000Y-117099525D01*
X132848261Y-117608601D01*
X133046893Y-118088141D01*
X133335262Y-118519715D01*
X133702285Y-118886738D01*
X134133859Y-119175107D01*
X134613399Y-119373739D01*
X135122475Y-119475000D01*
X135641525Y-119475000D01*
X136150601Y-119373739D01*
X136630141Y-119175107D01*
X137061715Y-118886738D01*
X137428738Y-118519715D01*
X137717107Y-118088141D01*
X137915739Y-117608601D01*
X138017000Y-117099525D01*
X138017000Y-116693740D01*
X138977000Y-116693740D01*
X138977000Y-116986260D01*
X139034068Y-117273158D01*
X139146010Y-117543411D01*
X139308525Y-117786632D01*
X139515368Y-117993475D01*
X139758589Y-118155990D01*
X140028842Y-118267932D01*
X140315740Y-118325000D01*
X140325303Y-118325000D01*
X140419673Y-118364089D01*
X140725891Y-118425000D01*
X141038109Y-118425000D01*
X141344327Y-118364089D01*
X141632779Y-118244609D01*
X141892379Y-118071150D01*
X142113150Y-117850379D01*
X142286609Y-117590779D01*
X142406089Y-117302327D01*
X142467000Y-116996109D01*
X142467000Y-116683891D01*
X142406089Y-116377673D01*
X142286609Y-116089221D01*
X142113150Y-115829621D01*
X141892379Y-115608850D01*
X141632779Y-115435391D01*
X141344327Y-115315911D01*
X141038109Y-115255000D01*
X140725891Y-115255000D01*
X140419673Y-115315911D01*
X140325303Y-115355000D01*
X140315740Y-115355000D01*
X140028842Y-115412068D01*
X139758589Y-115524010D01*
X139515368Y-115686525D01*
X139308525Y-115893368D01*
X139146010Y-116136589D01*
X139034068Y-116406842D01*
X138977000Y-116693740D01*
X138017000Y-116693740D01*
X138017000Y-116580475D01*
X137915739Y-116071399D01*
X137717107Y-115591859D01*
X137428738Y-115160285D01*
X137328453Y-115060000D01*
X139084678Y-115060000D01*
X139122000Y-115063676D01*
X139159322Y-115060000D01*
X139159333Y-115060000D01*
X139270986Y-115049003D01*
X139414247Y-115005546D01*
X139546276Y-114934974D01*
X139662001Y-114840001D01*
X139685803Y-114810998D01*
X139880285Y-114616516D01*
X139946904Y-114596307D01*
X139975919Y-114608325D01*
X140311117Y-114675000D01*
X140652883Y-114675000D01*
X140988081Y-114608325D01*
X141303831Y-114477537D01*
X141587998Y-114287663D01*
X141829663Y-114045998D01*
X142019537Y-113761831D01*
X142150325Y-113446081D01*
X142217000Y-113110883D01*
X142217000Y-112769117D01*
X142162475Y-112495000D01*
X148807895Y-112495000D01*
X148844000Y-112498556D01*
X148880105Y-112495000D01*
X148988085Y-112484365D01*
X149126633Y-112442337D01*
X149254320Y-112374087D01*
X149366238Y-112282238D01*
X149389258Y-112254188D01*
X149846197Y-111797250D01*
X149874237Y-111774238D01*
X149897250Y-111746197D01*
X149897253Y-111746194D01*
X149966086Y-111662321D01*
X149966087Y-111662320D01*
X150034337Y-111534633D01*
X150050636Y-111480903D01*
X150130063Y-111599774D01*
X150274226Y-111743937D01*
X150443744Y-111857205D01*
X150632102Y-111935226D01*
X150832061Y-111975000D01*
X151035939Y-111975000D01*
X151235898Y-111935226D01*
X151424256Y-111857205D01*
X151593774Y-111743937D01*
X151637711Y-111700000D01*
X151894001Y-111700000D01*
X151894000Y-112484677D01*
X151890324Y-112522000D01*
X151894000Y-112559322D01*
X151894000Y-112559332D01*
X151904997Y-112670985D01*
X151940795Y-112788997D01*
X151948454Y-112814246D01*
X152019026Y-112946276D01*
X152053267Y-112987998D01*
X152113999Y-113062001D01*
X152143003Y-113085804D01*
X152344196Y-113286997D01*
X152367999Y-113316001D01*
X152483724Y-113410974D01*
X152615753Y-113481546D01*
X152759014Y-113525003D01*
X152870667Y-113536000D01*
X152870676Y-113536000D01*
X152907999Y-113539676D01*
X152945322Y-113536000D01*
X155664678Y-113536000D01*
X155702000Y-113539676D01*
X155739322Y-113536000D01*
X155739333Y-113536000D01*
X155850986Y-113525003D01*
X155994247Y-113481546D01*
X156126276Y-113410974D01*
X156156826Y-113385903D01*
X156276128Y-113349711D01*
X156465919Y-113428325D01*
X156801117Y-113495000D01*
X157142883Y-113495000D01*
X157478081Y-113428325D01*
X157793831Y-113297537D01*
X157829400Y-113273770D01*
X157847655Y-113365543D01*
X157673199Y-113540000D01*
X152347539Y-113540000D01*
X152232313Y-113478411D01*
X152141239Y-113450783D01*
X151969663Y-113194002D01*
X151727998Y-112952337D01*
X151443831Y-112762463D01*
X151128081Y-112631675D01*
X150792883Y-112565000D01*
X150451117Y-112565000D01*
X150115919Y-112631675D01*
X149800169Y-112762463D01*
X149516002Y-112952337D01*
X149274337Y-113194002D01*
X149084463Y-113478169D01*
X148953675Y-113793919D01*
X148887000Y-114129117D01*
X148887000Y-114470883D01*
X148953675Y-114806081D01*
X149084463Y-115121831D01*
X149186524Y-115274576D01*
X149088109Y-115255000D01*
X148775891Y-115255000D01*
X148469673Y-115315911D01*
X148181221Y-115435391D01*
X147921621Y-115608850D01*
X147700850Y-115829621D01*
X147527391Y-116089221D01*
X147407911Y-116377673D01*
X147347000Y-116683891D01*
X147347000Y-116996109D01*
X147407911Y-117302327D01*
X147527391Y-117590779D01*
X147700850Y-117850379D01*
X147921621Y-118071150D01*
X148181221Y-118244609D01*
X148469673Y-118364089D01*
X148775891Y-118425000D01*
X149088109Y-118425000D01*
X149394327Y-118364089D01*
X149488697Y-118325000D01*
X149498260Y-118325000D01*
X149785158Y-118267932D01*
X150055411Y-118155990D01*
X150298632Y-117993475D01*
X150505475Y-117786632D01*
X150667990Y-117543411D01*
X150779932Y-117273158D01*
X150837000Y-116986260D01*
X150837000Y-116693740D01*
X150779932Y-116406842D01*
X150667990Y-116136589D01*
X150600110Y-116035000D01*
X150792883Y-116035000D01*
X151128081Y-115968325D01*
X151443831Y-115837537D01*
X151727998Y-115647663D01*
X151969663Y-115405998D01*
X152141239Y-115149217D01*
X152232313Y-115121589D01*
X152347539Y-115060000D01*
X152485547Y-115060000D01*
X152385262Y-115160285D01*
X152096893Y-115591859D01*
X151898261Y-116071399D01*
X151797000Y-116580475D01*
X151797000Y-117099525D01*
X151898261Y-117608601D01*
X152096893Y-118088141D01*
X152385262Y-118519715D01*
X152752285Y-118886738D01*
X153183859Y-119175107D01*
X153663399Y-119373739D01*
X154172475Y-119475000D01*
X154691525Y-119475000D01*
X155200601Y-119373739D01*
X155680141Y-119175107D01*
X156111715Y-118886738D01*
X156478738Y-118519715D01*
X156767107Y-118088141D01*
X156965739Y-117608601D01*
X157067000Y-117099525D01*
X157067000Y-116693740D01*
X158027000Y-116693740D01*
X158027000Y-116986260D01*
X158084068Y-117273158D01*
X158196010Y-117543411D01*
X158358525Y-117786632D01*
X158565368Y-117993475D01*
X158808589Y-118155990D01*
X159078842Y-118267932D01*
X159365740Y-118325000D01*
X159375303Y-118325000D01*
X159469673Y-118364089D01*
X159775891Y-118425000D01*
X160088109Y-118425000D01*
X160394327Y-118364089D01*
X160682779Y-118244609D01*
X160942379Y-118071150D01*
X161163150Y-117850379D01*
X161336609Y-117590779D01*
X161456089Y-117302327D01*
X161517000Y-116996109D01*
X161517000Y-116683891D01*
X161456089Y-116377673D01*
X161336609Y-116089221D01*
X161163150Y-115829621D01*
X160942379Y-115608850D01*
X160682779Y-115435391D01*
X160394327Y-115315911D01*
X160088109Y-115255000D01*
X159775891Y-115255000D01*
X159469673Y-115315911D01*
X159375303Y-115355000D01*
X159365740Y-115355000D01*
X159078842Y-115412068D01*
X158808589Y-115524010D01*
X158565368Y-115686525D01*
X158358525Y-115893368D01*
X158196010Y-116136589D01*
X158084068Y-116406842D01*
X158027000Y-116693740D01*
X157067000Y-116693740D01*
X157067000Y-116580475D01*
X156965739Y-116071399D01*
X156767107Y-115591859D01*
X156478738Y-115160285D01*
X156378453Y-115060000D01*
X157950678Y-115060000D01*
X157988000Y-115063676D01*
X158025322Y-115060000D01*
X158025333Y-115060000D01*
X158136986Y-115049003D01*
X158280247Y-115005546D01*
X158412276Y-114934974D01*
X158528001Y-114840001D01*
X158551803Y-114810998D01*
X158833980Y-114528821D01*
X159025919Y-114608325D01*
X159361117Y-114675000D01*
X159702883Y-114675000D01*
X160038081Y-114608325D01*
X160353831Y-114477537D01*
X160377153Y-114461954D01*
X160726201Y-114811002D01*
X160749999Y-114840001D01*
X160865724Y-114934974D01*
X160997753Y-115005546D01*
X161141014Y-115049003D01*
X161252667Y-115060000D01*
X161252675Y-115060000D01*
X161290000Y-115063676D01*
X161327325Y-115060000D01*
X167946461Y-115060000D01*
X168061687Y-115121589D01*
X168152761Y-115149217D01*
X168236524Y-115274576D01*
X168138109Y-115255000D01*
X167825891Y-115255000D01*
X167519673Y-115315911D01*
X167231221Y-115435391D01*
X166971621Y-115608850D01*
X166750850Y-115829621D01*
X166577391Y-116089221D01*
X166457911Y-116377673D01*
X166397000Y-116683891D01*
X166397000Y-116996109D01*
X166457911Y-117302327D01*
X166577391Y-117590779D01*
X166750850Y-117850379D01*
X166971621Y-118071150D01*
X167231221Y-118244609D01*
X167519673Y-118364089D01*
X167825891Y-118425000D01*
X168138109Y-118425000D01*
X168444327Y-118364089D01*
X168538697Y-118325000D01*
X168548260Y-118325000D01*
X168835158Y-118267932D01*
X169105411Y-118155990D01*
X169348632Y-117993475D01*
X169555475Y-117786632D01*
X169717990Y-117543411D01*
X169829932Y-117273158D01*
X169887000Y-116986260D01*
X169887000Y-116693740D01*
X169829932Y-116406842D01*
X169717990Y-116136589D01*
X169650110Y-116035000D01*
X169842883Y-116035000D01*
X170178081Y-115968325D01*
X170493831Y-115837537D01*
X170777998Y-115647663D01*
X171019663Y-115405998D01*
X171191239Y-115149217D01*
X171282313Y-115121589D01*
X171397539Y-115060000D01*
X171535547Y-115060000D01*
X171435262Y-115160285D01*
X171146893Y-115591859D01*
X170948261Y-116071399D01*
X170847000Y-116580475D01*
X170847000Y-117099525D01*
X170948261Y-117608601D01*
X171146893Y-118088141D01*
X171435262Y-118519715D01*
X171802285Y-118886738D01*
X172233859Y-119175107D01*
X172713399Y-119373739D01*
X173222475Y-119475000D01*
X173741525Y-119475000D01*
X174250601Y-119373739D01*
X174730141Y-119175107D01*
X175161715Y-118886738D01*
X175528738Y-118519715D01*
X175817107Y-118088141D01*
X176015739Y-117608601D01*
X176117000Y-117099525D01*
X176117000Y-116693740D01*
X177077000Y-116693740D01*
X177077000Y-116986260D01*
X177134068Y-117273158D01*
X177246010Y-117543411D01*
X177408525Y-117786632D01*
X177615368Y-117993475D01*
X177858589Y-118155990D01*
X178128842Y-118267932D01*
X178415740Y-118325000D01*
X178425303Y-118325000D01*
X178519673Y-118364089D01*
X178825891Y-118425000D01*
X179138109Y-118425000D01*
X179444327Y-118364089D01*
X179732779Y-118244609D01*
X179992379Y-118071150D01*
X180213150Y-117850379D01*
X180386609Y-117590779D01*
X180506089Y-117302327D01*
X180567000Y-116996109D01*
X180567000Y-116683891D01*
X180506089Y-116377673D01*
X180386609Y-116089221D01*
X180213150Y-115829621D01*
X179992379Y-115608850D01*
X179732779Y-115435391D01*
X179444327Y-115315911D01*
X179138109Y-115255000D01*
X178825891Y-115255000D01*
X178519673Y-115315911D01*
X178425303Y-115355000D01*
X178415740Y-115355000D01*
X178128842Y-115412068D01*
X177858589Y-115524010D01*
X177615368Y-115686525D01*
X177408525Y-115893368D01*
X177246010Y-116136589D01*
X177134068Y-116406842D01*
X177077000Y-116693740D01*
X176117000Y-116693740D01*
X176117000Y-116580475D01*
X176015739Y-116071399D01*
X175817107Y-115591859D01*
X175528738Y-115160285D01*
X175428453Y-115060000D01*
X177254678Y-115060000D01*
X177292000Y-115063676D01*
X177440985Y-115049002D01*
X177584246Y-115005546D01*
X177716276Y-114934974D01*
X177803002Y-114863799D01*
X178015285Y-114651516D01*
X178125290Y-114618145D01*
X178411117Y-114675000D01*
X178752883Y-114675000D01*
X179088081Y-114608325D01*
X179403831Y-114477537D01*
X179687998Y-114287663D01*
X179929663Y-114045998D01*
X180119537Y-113761831D01*
X180250325Y-113446081D01*
X180317000Y-113110883D01*
X180317000Y-112769117D01*
X180250325Y-112433919D01*
X180119537Y-112118169D01*
X179929663Y-111834002D01*
X179687998Y-111592337D01*
X179403831Y-111402463D01*
X179377966Y-111391749D01*
X179342000Y-111324461D01*
X179342000Y-108515325D01*
X179345676Y-108478000D01*
X179342000Y-108440675D01*
X179342000Y-108440667D01*
X179331003Y-108329014D01*
X179287546Y-108185753D01*
X179216974Y-108053724D01*
X179122001Y-107937999D01*
X179093002Y-107914200D01*
X178617803Y-107439002D01*
X178594001Y-107409999D01*
X178478276Y-107315026D01*
X178346247Y-107244454D01*
X178202986Y-107200997D01*
X178091333Y-107190000D01*
X178091322Y-107190000D01*
X178054000Y-107186324D01*
X178016678Y-107190000D01*
X163727281Y-107190000D01*
X163740259Y-107174187D01*
X163943187Y-106971259D01*
X163971238Y-106948238D01*
X164063087Y-106836320D01*
X164131337Y-106708633D01*
X164135369Y-106695342D01*
X164252937Y-106577774D01*
X164366205Y-106408256D01*
X164444226Y-106219898D01*
X164484000Y-106019939D01*
X164484000Y-105816061D01*
X164444226Y-105616102D01*
X164366205Y-105427744D01*
X164252937Y-105258226D01*
X164108774Y-105114063D01*
X163969495Y-105021000D01*
X166280869Y-105021000D01*
X167003856Y-105743988D01*
X167133377Y-105850283D01*
X167330553Y-105955676D01*
X167544501Y-106020577D01*
X167767000Y-106042491D01*
X167989498Y-106020577D01*
X168203446Y-105955676D01*
X168400622Y-105850283D01*
X168573448Y-105708448D01*
X168715283Y-105535622D01*
X168820676Y-105338446D01*
X168885577Y-105124498D01*
X168907491Y-104902000D01*
X168885577Y-104679501D01*
X168820676Y-104465553D01*
X168715283Y-104268377D01*
X168608988Y-104138856D01*
X167592996Y-103122864D01*
X167557449Y-103079551D01*
X167384623Y-102937716D01*
X167187447Y-102832324D01*
X166973499Y-102767423D01*
X166806752Y-102751000D01*
X166806751Y-102751000D01*
X166751000Y-102745509D01*
X166695249Y-102751000D01*
X158488000Y-102751000D01*
X158488000Y-96448751D01*
X158493491Y-96392999D01*
X158471577Y-96170501D01*
X158406676Y-95956553D01*
X158379609Y-95905914D01*
X158301284Y-95759377D01*
X158159449Y-95586551D01*
X158116140Y-95551009D01*
X157232133Y-94667001D01*
X157315132Y-94584002D01*
X164973000Y-94584002D01*
X164973000Y-95250000D01*
X164975440Y-95274776D01*
X164982667Y-95298601D01*
X164994403Y-95320557D01*
X165010197Y-95339803D01*
X165029443Y-95355597D01*
X165051399Y-95367333D01*
X165075224Y-95374560D01*
X165100000Y-95377000D01*
X170109142Y-95377000D01*
X170008552Y-95459552D01*
X169866717Y-95632378D01*
X169761324Y-95829554D01*
X169696423Y-96043502D01*
X169674509Y-96266000D01*
X169696423Y-96488498D01*
X169761324Y-96702446D01*
X169866717Y-96899622D01*
X169973012Y-97029143D01*
X170290001Y-97346132D01*
X170290000Y-100934248D01*
X170284509Y-100990000D01*
X170290000Y-101045751D01*
X170306423Y-101212498D01*
X170371324Y-101426446D01*
X170476716Y-101623623D01*
X170618551Y-101796449D01*
X170791377Y-101938284D01*
X170988553Y-102043676D01*
X171202501Y-102108577D01*
X171425000Y-102130491D01*
X171647498Y-102108577D01*
X171675772Y-102100000D01*
X177935000Y-102100000D01*
X177935000Y-102814248D01*
X177929509Y-102870000D01*
X177938311Y-102959365D01*
X177951423Y-103092498D01*
X178016324Y-103306446D01*
X178121716Y-103503623D01*
X178263551Y-103676449D01*
X178306865Y-103711996D01*
X179498008Y-104903140D01*
X179533551Y-104946449D01*
X179706377Y-105088284D01*
X179903553Y-105193676D01*
X180060168Y-105241185D01*
X180117500Y-105258577D01*
X180138493Y-105260644D01*
X180284248Y-105275000D01*
X180284255Y-105275000D01*
X180339999Y-105280490D01*
X180395743Y-105275000D01*
X181030752Y-105275000D01*
X181197499Y-105258577D01*
X181411447Y-105193676D01*
X181608623Y-105088284D01*
X181781449Y-104946449D01*
X181923284Y-104773623D01*
X182028676Y-104576447D01*
X182093577Y-104362499D01*
X182115491Y-104140000D01*
X182106468Y-104048387D01*
X182132238Y-104027238D01*
X182224087Y-103915320D01*
X182254835Y-103857795D01*
X182292337Y-103787634D01*
X182334365Y-103649085D01*
X182348556Y-103505000D01*
X182345000Y-103468895D01*
X182345000Y-102539446D01*
X182454447Y-102430000D01*
X183694049Y-102430000D01*
X183834111Y-102523586D01*
X184004271Y-102594068D01*
X184170001Y-102627034D01*
X184170001Y-104010000D01*
X183216335Y-104010000D01*
X183034898Y-104027870D01*
X182802099Y-104098489D01*
X182587551Y-104213167D01*
X182399498Y-104367498D01*
X182245167Y-104555551D01*
X182130489Y-104770099D01*
X182059870Y-105002898D01*
X182036025Y-105245000D01*
X182059870Y-105487102D01*
X182130489Y-105719901D01*
X182245167Y-105934449D01*
X182399498Y-106122502D01*
X182587551Y-106276833D01*
X182802099Y-106391511D01*
X183034898Y-106462130D01*
X183216335Y-106480000D01*
X184437665Y-106480000D01*
X184619102Y-106462130D01*
X184851901Y-106391511D01*
X185066449Y-106276833D01*
X185254502Y-106122502D01*
X185408833Y-105934449D01*
X185523511Y-105719901D01*
X185594130Y-105487102D01*
X185617975Y-105245000D01*
X185596307Y-105025000D01*
X187088928Y-105025000D01*
X187088928Y-105215525D01*
X187086025Y-105245000D01*
X187109870Y-105487102D01*
X187180489Y-105719901D01*
X187295167Y-105934449D01*
X187449498Y-106122502D01*
X187637551Y-106276833D01*
X187852099Y-106391511D01*
X188084898Y-106462130D01*
X188266335Y-106480000D01*
X189487665Y-106480000D01*
X189669102Y-106462130D01*
X189901901Y-106391511D01*
X189979147Y-106350222D01*
X189968911Y-130175000D01*
X189887109Y-130175000D01*
X189831524Y-129895554D01*
X189595201Y-129325021D01*
X189252114Y-128811554D01*
X188815446Y-128374886D01*
X188301979Y-128031799D01*
X187731446Y-127795476D01*
X187125771Y-127675000D01*
X186508229Y-127675000D01*
X185902554Y-127795476D01*
X185332021Y-128031799D01*
X184818554Y-128374886D01*
X184381886Y-128811554D01*
X184038799Y-129325021D01*
X183802476Y-129895554D01*
X183682000Y-130501229D01*
X183682000Y-131118771D01*
X183802476Y-131724446D01*
X184038799Y-132294979D01*
X184381886Y-132808446D01*
X184818554Y-133245114D01*
X185332021Y-133588201D01*
X185902554Y-133824524D01*
X186457956Y-133935000D01*
X103505000Y-133935000D01*
X103505000Y-133905371D01*
X103911446Y-133824524D01*
X104481979Y-133588201D01*
X104995446Y-133245114D01*
X105432114Y-132808446D01*
X105775201Y-132294979D01*
X106011524Y-131724446D01*
X106132000Y-131118771D01*
X106132000Y-130501229D01*
X106011524Y-129895554D01*
X105775201Y-129325021D01*
X105432114Y-128811554D01*
X104995446Y-128374886D01*
X104481979Y-128031799D01*
X103911446Y-127795476D01*
X103305771Y-127675000D01*
X102688229Y-127675000D01*
X102082554Y-127795476D01*
X101512021Y-128031799D01*
X100998554Y-128374886D01*
X100561886Y-128811554D01*
X100218799Y-129325021D01*
X99982476Y-129895554D01*
X99876367Y-130429000D01*
X99872000Y-130429000D01*
X99872000Y-120928212D01*
X109977000Y-120928212D01*
X109977000Y-121151788D01*
X110020617Y-121371067D01*
X110106176Y-121577624D01*
X110230388Y-121763520D01*
X110388480Y-121921612D01*
X110574376Y-122045824D01*
X110780933Y-122131383D01*
X111000212Y-122175000D01*
X111223788Y-122175000D01*
X111443067Y-122131383D01*
X111649624Y-122045824D01*
X111835520Y-121921612D01*
X111993612Y-121763520D01*
X112117824Y-121577624D01*
X112203383Y-121371067D01*
X112247000Y-121151788D01*
X112247000Y-120928212D01*
X120417000Y-120928212D01*
X120417000Y-121151788D01*
X120460617Y-121371067D01*
X120546176Y-121577624D01*
X120670388Y-121763520D01*
X120828480Y-121921612D01*
X121014376Y-122045824D01*
X121220933Y-122131383D01*
X121440212Y-122175000D01*
X121663788Y-122175000D01*
X121883067Y-122131383D01*
X122089624Y-122045824D01*
X122275520Y-121921612D01*
X122433612Y-121763520D01*
X122557824Y-121577624D01*
X122643383Y-121371067D01*
X122687000Y-121151788D01*
X122687000Y-120928212D01*
X129027000Y-120928212D01*
X129027000Y-121151788D01*
X129070617Y-121371067D01*
X129156176Y-121577624D01*
X129280388Y-121763520D01*
X129438480Y-121921612D01*
X129624376Y-122045824D01*
X129830933Y-122131383D01*
X130050212Y-122175000D01*
X130273788Y-122175000D01*
X130493067Y-122131383D01*
X130699624Y-122045824D01*
X130885520Y-121921612D01*
X131043612Y-121763520D01*
X131167824Y-121577624D01*
X131253383Y-121371067D01*
X131297000Y-121151788D01*
X131297000Y-120928212D01*
X139467000Y-120928212D01*
X139467000Y-121151788D01*
X139510617Y-121371067D01*
X139596176Y-121577624D01*
X139720388Y-121763520D01*
X139878480Y-121921612D01*
X140064376Y-122045824D01*
X140270933Y-122131383D01*
X140490212Y-122175000D01*
X140713788Y-122175000D01*
X140933067Y-122131383D01*
X141139624Y-122045824D01*
X141325520Y-121921612D01*
X141483612Y-121763520D01*
X141607824Y-121577624D01*
X141693383Y-121371067D01*
X141737000Y-121151788D01*
X141737000Y-120928212D01*
X148077000Y-120928212D01*
X148077000Y-121151788D01*
X148120617Y-121371067D01*
X148206176Y-121577624D01*
X148330388Y-121763520D01*
X148488480Y-121921612D01*
X148674376Y-122045824D01*
X148880933Y-122131383D01*
X149100212Y-122175000D01*
X149323788Y-122175000D01*
X149543067Y-122131383D01*
X149749624Y-122045824D01*
X149935520Y-121921612D01*
X150093612Y-121763520D01*
X150217824Y-121577624D01*
X150303383Y-121371067D01*
X150347000Y-121151788D01*
X150347000Y-120928212D01*
X158517000Y-120928212D01*
X158517000Y-121151788D01*
X158560617Y-121371067D01*
X158646176Y-121577624D01*
X158770388Y-121763520D01*
X158928480Y-121921612D01*
X159114376Y-122045824D01*
X159320933Y-122131383D01*
X159540212Y-122175000D01*
X159763788Y-122175000D01*
X159983067Y-122131383D01*
X160189624Y-122045824D01*
X160375520Y-121921612D01*
X160533612Y-121763520D01*
X160657824Y-121577624D01*
X160743383Y-121371067D01*
X160787000Y-121151788D01*
X160787000Y-120928212D01*
X167127000Y-120928212D01*
X167127000Y-121151788D01*
X167170617Y-121371067D01*
X167256176Y-121577624D01*
X167380388Y-121763520D01*
X167538480Y-121921612D01*
X167724376Y-122045824D01*
X167930933Y-122131383D01*
X168150212Y-122175000D01*
X168373788Y-122175000D01*
X168593067Y-122131383D01*
X168799624Y-122045824D01*
X168985520Y-121921612D01*
X169143612Y-121763520D01*
X169267824Y-121577624D01*
X169353383Y-121371067D01*
X169397000Y-121151788D01*
X169397000Y-120928212D01*
X177567000Y-120928212D01*
X177567000Y-121151788D01*
X177610617Y-121371067D01*
X177696176Y-121577624D01*
X177820388Y-121763520D01*
X177978480Y-121921612D01*
X178164376Y-122045824D01*
X178370933Y-122131383D01*
X178590212Y-122175000D01*
X178813788Y-122175000D01*
X179033067Y-122131383D01*
X179239624Y-122045824D01*
X179425520Y-121921612D01*
X179583612Y-121763520D01*
X179707824Y-121577624D01*
X179793383Y-121371067D01*
X179837000Y-121151788D01*
X179837000Y-120928212D01*
X179793383Y-120708933D01*
X179707824Y-120502376D01*
X179583612Y-120316480D01*
X179425520Y-120158388D01*
X179239624Y-120034176D01*
X179033067Y-119948617D01*
X178813788Y-119905000D01*
X178590212Y-119905000D01*
X178370933Y-119948617D01*
X178164376Y-120034176D01*
X177978480Y-120158388D01*
X177820388Y-120316480D01*
X177696176Y-120502376D01*
X177610617Y-120708933D01*
X177567000Y-120928212D01*
X169397000Y-120928212D01*
X169353383Y-120708933D01*
X169267824Y-120502376D01*
X169143612Y-120316480D01*
X168985520Y-120158388D01*
X168799624Y-120034176D01*
X168593067Y-119948617D01*
X168373788Y-119905000D01*
X168150212Y-119905000D01*
X167930933Y-119948617D01*
X167724376Y-120034176D01*
X167538480Y-120158388D01*
X167380388Y-120316480D01*
X167256176Y-120502376D01*
X167170617Y-120708933D01*
X167127000Y-120928212D01*
X160787000Y-120928212D01*
X160743383Y-120708933D01*
X160657824Y-120502376D01*
X160533612Y-120316480D01*
X160375520Y-120158388D01*
X160189624Y-120034176D01*
X159983067Y-119948617D01*
X159763788Y-119905000D01*
X159540212Y-119905000D01*
X159320933Y-119948617D01*
X159114376Y-120034176D01*
X158928480Y-120158388D01*
X158770388Y-120316480D01*
X158646176Y-120502376D01*
X158560617Y-120708933D01*
X158517000Y-120928212D01*
X150347000Y-120928212D01*
X150303383Y-120708933D01*
X150217824Y-120502376D01*
X150093612Y-120316480D01*
X149935520Y-120158388D01*
X149749624Y-120034176D01*
X149543067Y-119948617D01*
X149323788Y-119905000D01*
X149100212Y-119905000D01*
X148880933Y-119948617D01*
X148674376Y-120034176D01*
X148488480Y-120158388D01*
X148330388Y-120316480D01*
X148206176Y-120502376D01*
X148120617Y-120708933D01*
X148077000Y-120928212D01*
X141737000Y-120928212D01*
X141693383Y-120708933D01*
X141607824Y-120502376D01*
X141483612Y-120316480D01*
X141325520Y-120158388D01*
X141139624Y-120034176D01*
X140933067Y-119948617D01*
X140713788Y-119905000D01*
X140490212Y-119905000D01*
X140270933Y-119948617D01*
X140064376Y-120034176D01*
X139878480Y-120158388D01*
X139720388Y-120316480D01*
X139596176Y-120502376D01*
X139510617Y-120708933D01*
X139467000Y-120928212D01*
X131297000Y-120928212D01*
X131253383Y-120708933D01*
X131167824Y-120502376D01*
X131043612Y-120316480D01*
X130885520Y-120158388D01*
X130699624Y-120034176D01*
X130493067Y-119948617D01*
X130273788Y-119905000D01*
X130050212Y-119905000D01*
X129830933Y-119948617D01*
X129624376Y-120034176D01*
X129438480Y-120158388D01*
X129280388Y-120316480D01*
X129156176Y-120502376D01*
X129070617Y-120708933D01*
X129027000Y-120928212D01*
X122687000Y-120928212D01*
X122643383Y-120708933D01*
X122557824Y-120502376D01*
X122433612Y-120316480D01*
X122275520Y-120158388D01*
X122089624Y-120034176D01*
X121883067Y-119948617D01*
X121663788Y-119905000D01*
X121440212Y-119905000D01*
X121220933Y-119948617D01*
X121014376Y-120034176D01*
X120828480Y-120158388D01*
X120670388Y-120316480D01*
X120546176Y-120502376D01*
X120460617Y-120708933D01*
X120417000Y-120928212D01*
X112247000Y-120928212D01*
X112203383Y-120708933D01*
X112117824Y-120502376D01*
X111993612Y-120316480D01*
X111835520Y-120158388D01*
X111649624Y-120034176D01*
X111443067Y-119948617D01*
X111223788Y-119905000D01*
X111000212Y-119905000D01*
X110780933Y-119948617D01*
X110574376Y-120034176D01*
X110388480Y-120158388D01*
X110230388Y-120316480D01*
X110106176Y-120502376D01*
X110020617Y-120708933D01*
X109977000Y-120928212D01*
X99872000Y-120928212D01*
X99872000Y-100228061D01*
X125584000Y-100228061D01*
X125584000Y-100431939D01*
X125623774Y-100631898D01*
X125701795Y-100820256D01*
X125815063Y-100989774D01*
X125959226Y-101133937D01*
X126128744Y-101247205D01*
X126317102Y-101325226D01*
X126517061Y-101365000D01*
X126720939Y-101365000D01*
X126920898Y-101325226D01*
X127109256Y-101247205D01*
X127278774Y-101133937D01*
X127347711Y-101065000D01*
X132188000Y-101065000D01*
X132188000Y-101193939D01*
X132227774Y-101393898D01*
X132305795Y-101582256D01*
X132419063Y-101751774D01*
X132563226Y-101895937D01*
X132732744Y-102009205D01*
X132921102Y-102087226D01*
X133121061Y-102127000D01*
X133324939Y-102127000D01*
X133524898Y-102087226D01*
X133713256Y-102009205D01*
X133882774Y-101895937D01*
X133951711Y-101827000D01*
X145194289Y-101827000D01*
X145263226Y-101895937D01*
X145432744Y-102009205D01*
X145621102Y-102087226D01*
X145821061Y-102127000D01*
X146024939Y-102127000D01*
X146224898Y-102087226D01*
X146413256Y-102009205D01*
X146582774Y-101895937D01*
X146726937Y-101751774D01*
X146840205Y-101582256D01*
X146918226Y-101393898D01*
X146958000Y-101193939D01*
X146958000Y-100990061D01*
X146918226Y-100790102D01*
X146840205Y-100601744D01*
X146726937Y-100432226D01*
X146582774Y-100288063D01*
X146413256Y-100174795D01*
X146224898Y-100096774D01*
X146024939Y-100057000D01*
X145821061Y-100057000D01*
X145621102Y-100096774D01*
X145432744Y-100174795D01*
X145263226Y-100288063D01*
X145194289Y-100357000D01*
X140608000Y-100357000D01*
X140608000Y-100228061D01*
X140568226Y-100028102D01*
X140490205Y-99839744D01*
X140376937Y-99670226D01*
X140232774Y-99526063D01*
X140063256Y-99412795D01*
X139874898Y-99334774D01*
X139674939Y-99295000D01*
X139471061Y-99295000D01*
X139271102Y-99334774D01*
X139082744Y-99412795D01*
X138913226Y-99526063D01*
X138844289Y-99595000D01*
X127347711Y-99595000D01*
X127278774Y-99526063D01*
X127109256Y-99412795D01*
X126920898Y-99334774D01*
X126720939Y-99295000D01*
X126517061Y-99295000D01*
X126317102Y-99334774D01*
X126128744Y-99412795D01*
X125959226Y-99526063D01*
X125815063Y-99670226D01*
X125701795Y-99839744D01*
X125623774Y-100028102D01*
X125584000Y-100228061D01*
X99872000Y-100228061D01*
X99872000Y-96940000D01*
X114208928Y-96940000D01*
X114208928Y-98640000D01*
X114221188Y-98764482D01*
X114257498Y-98884180D01*
X114316463Y-98994494D01*
X114395815Y-99091185D01*
X114492506Y-99170537D01*
X114602820Y-99229502D01*
X114722518Y-99265812D01*
X114847000Y-99278072D01*
X116547000Y-99278072D01*
X116671482Y-99265812D01*
X116791180Y-99229502D01*
X116901494Y-99170537D01*
X116998185Y-99091185D01*
X117077537Y-98994494D01*
X117136502Y-98884180D01*
X117158513Y-98811620D01*
X117290368Y-98943475D01*
X117533589Y-99105990D01*
X117803842Y-99217932D01*
X118090740Y-99275000D01*
X118383260Y-99275000D01*
X118670158Y-99217932D01*
X118940411Y-99105990D01*
X119183632Y-98943475D01*
X119390475Y-98736632D01*
X119512195Y-98554466D01*
X119581822Y-98671355D01*
X119776731Y-98887588D01*
X120010080Y-99061641D01*
X120272901Y-99186825D01*
X120420110Y-99231476D01*
X120650000Y-99110155D01*
X120650000Y-97917000D01*
X120904000Y-97917000D01*
X120904000Y-99110155D01*
X121133890Y-99231476D01*
X121281099Y-99186825D01*
X121543920Y-99061641D01*
X121777269Y-98887588D01*
X121972178Y-98671355D01*
X122047000Y-98545745D01*
X122121822Y-98671355D01*
X122316731Y-98887588D01*
X122550080Y-99061641D01*
X122812901Y-99186825D01*
X122960110Y-99231476D01*
X123190000Y-99110155D01*
X123190000Y-97917000D01*
X120904000Y-97917000D01*
X120650000Y-97917000D01*
X120630000Y-97917000D01*
X120630000Y-97663000D01*
X120650000Y-97663000D01*
X120650000Y-97643000D01*
X120904000Y-97643000D01*
X120904000Y-97663000D01*
X123190000Y-97663000D01*
X123190000Y-97643000D01*
X123444000Y-97643000D01*
X123444000Y-97663000D01*
X123464000Y-97663000D01*
X123464000Y-97917000D01*
X123444000Y-97917000D01*
X123444000Y-99110155D01*
X123673890Y-99231476D01*
X123821099Y-99186825D01*
X124083920Y-99061641D01*
X124317269Y-98887588D01*
X124512178Y-98671355D01*
X124581805Y-98554466D01*
X124703525Y-98736632D01*
X124910368Y-98943475D01*
X125153589Y-99105990D01*
X125423842Y-99217932D01*
X125710740Y-99275000D01*
X126003260Y-99275000D01*
X126290158Y-99217932D01*
X126560411Y-99105990D01*
X126803632Y-98943475D01*
X127010475Y-98736632D01*
X127127000Y-98562240D01*
X127243525Y-98736632D01*
X127450368Y-98943475D01*
X127693589Y-99105990D01*
X127963842Y-99217932D01*
X128250740Y-99275000D01*
X128543260Y-99275000D01*
X128830158Y-99217932D01*
X129100411Y-99105990D01*
X129343632Y-98943475D01*
X129550475Y-98736632D01*
X129667000Y-98562240D01*
X129783525Y-98736632D01*
X129990368Y-98943475D01*
X130233589Y-99105990D01*
X130503842Y-99217932D01*
X130790740Y-99275000D01*
X131083260Y-99275000D01*
X131370158Y-99217932D01*
X131640411Y-99105990D01*
X131883632Y-98943475D01*
X132090475Y-98736632D01*
X132207000Y-98562240D01*
X132323525Y-98736632D01*
X132530368Y-98943475D01*
X132773589Y-99105990D01*
X133043842Y-99217932D01*
X133330740Y-99275000D01*
X133623260Y-99275000D01*
X133910158Y-99217932D01*
X134180411Y-99105990D01*
X134423632Y-98943475D01*
X134630475Y-98736632D01*
X134747000Y-98562240D01*
X134863525Y-98736632D01*
X135070368Y-98943475D01*
X135313589Y-99105990D01*
X135583842Y-99217932D01*
X135870740Y-99275000D01*
X136163260Y-99275000D01*
X136450158Y-99217932D01*
X136720411Y-99105990D01*
X136963632Y-98943475D01*
X137170475Y-98736632D01*
X137287000Y-98562240D01*
X137403525Y-98736632D01*
X137610368Y-98943475D01*
X137853589Y-99105990D01*
X138123842Y-99217932D01*
X138410740Y-99275000D01*
X138703260Y-99275000D01*
X138990158Y-99217932D01*
X139260411Y-99105990D01*
X139503632Y-98943475D01*
X139710475Y-98736632D01*
X139827000Y-98562240D01*
X139943525Y-98736632D01*
X140150368Y-98943475D01*
X140393589Y-99105990D01*
X140663842Y-99217932D01*
X140950740Y-99275000D01*
X141243260Y-99275000D01*
X141530158Y-99217932D01*
X141800411Y-99105990D01*
X142043632Y-98943475D01*
X142250475Y-98736632D01*
X142367000Y-98562240D01*
X142483525Y-98736632D01*
X142690368Y-98943475D01*
X142933589Y-99105990D01*
X143203842Y-99217932D01*
X143490740Y-99275000D01*
X143783260Y-99275000D01*
X144070158Y-99217932D01*
X144340411Y-99105990D01*
X144583632Y-98943475D01*
X144790475Y-98736632D01*
X144952990Y-98493411D01*
X145064932Y-98223158D01*
X145122000Y-97936260D01*
X145122000Y-97643740D01*
X145064932Y-97356842D01*
X144952990Y-97086589D01*
X144790475Y-96843368D01*
X144583632Y-96636525D01*
X144340411Y-96474010D01*
X144070158Y-96362068D01*
X143783260Y-96305000D01*
X143490740Y-96305000D01*
X143203842Y-96362068D01*
X142933589Y-96474010D01*
X142690368Y-96636525D01*
X142483525Y-96843368D01*
X142367000Y-97017760D01*
X142250475Y-96843368D01*
X142043632Y-96636525D01*
X141800411Y-96474010D01*
X141530158Y-96362068D01*
X141243260Y-96305000D01*
X140950740Y-96305000D01*
X140663842Y-96362068D01*
X140393589Y-96474010D01*
X140150368Y-96636525D01*
X139943525Y-96843368D01*
X139827000Y-97017760D01*
X139710475Y-96843368D01*
X139503632Y-96636525D01*
X139260411Y-96474010D01*
X138990158Y-96362068D01*
X138703260Y-96305000D01*
X138410740Y-96305000D01*
X138123842Y-96362068D01*
X137853589Y-96474010D01*
X137610368Y-96636525D01*
X137403525Y-96843368D01*
X137287000Y-97017760D01*
X137170475Y-96843368D01*
X136963632Y-96636525D01*
X136720411Y-96474010D01*
X136450158Y-96362068D01*
X136163260Y-96305000D01*
X135870740Y-96305000D01*
X135583842Y-96362068D01*
X135313589Y-96474010D01*
X135070368Y-96636525D01*
X134863525Y-96843368D01*
X134747000Y-97017760D01*
X134630475Y-96843368D01*
X134423632Y-96636525D01*
X134180411Y-96474010D01*
X133910158Y-96362068D01*
X133623260Y-96305000D01*
X133330740Y-96305000D01*
X133043842Y-96362068D01*
X132773589Y-96474010D01*
X132530368Y-96636525D01*
X132323525Y-96843368D01*
X132207000Y-97017760D01*
X132090475Y-96843368D01*
X131883632Y-96636525D01*
X131640411Y-96474010D01*
X131370158Y-96362068D01*
X131083260Y-96305000D01*
X130790740Y-96305000D01*
X130503842Y-96362068D01*
X130402000Y-96404252D01*
X130402000Y-89628711D01*
X130470937Y-89559774D01*
X130584205Y-89390256D01*
X130662226Y-89201898D01*
X130702000Y-89001939D01*
X130702000Y-88798061D01*
X130662226Y-88598102D01*
X130584205Y-88409744D01*
X130470937Y-88240226D01*
X130326774Y-88096063D01*
X130157256Y-87982795D01*
X129968898Y-87904774D01*
X129768939Y-87865000D01*
X129565061Y-87865000D01*
X129365102Y-87904774D01*
X129176744Y-87982795D01*
X129159000Y-87994651D01*
X129141256Y-87982795D01*
X128952898Y-87904774D01*
X128752939Y-87865000D01*
X128549061Y-87865000D01*
X128349102Y-87904774D01*
X128160744Y-87982795D01*
X128143000Y-87994651D01*
X128125256Y-87982795D01*
X127936898Y-87904774D01*
X127736939Y-87865000D01*
X127533061Y-87865000D01*
X127333102Y-87904774D01*
X127144744Y-87982795D01*
X126975226Y-88096063D01*
X126831063Y-88240226D01*
X126717795Y-88409744D01*
X126639774Y-88598102D01*
X126600000Y-88798061D01*
X126600000Y-89001939D01*
X126639774Y-89201898D01*
X126717795Y-89390256D01*
X126831063Y-89559774D01*
X126900000Y-89628711D01*
X126900001Y-94945552D01*
X126822554Y-95023000D01*
X120305094Y-95023000D01*
X120268999Y-95019445D01*
X120232904Y-95023000D01*
X120232895Y-95023000D01*
X120124915Y-95033635D01*
X119986367Y-95075663D01*
X119858680Y-95143913D01*
X119746762Y-95235762D01*
X119723746Y-95263807D01*
X118832430Y-96155123D01*
X118825510Y-96155805D01*
X118658686Y-96206412D01*
X118504941Y-96288589D01*
X118465107Y-96321280D01*
X118383260Y-96305000D01*
X118090740Y-96305000D01*
X117803842Y-96362068D01*
X117533589Y-96474010D01*
X117290368Y-96636525D01*
X117158513Y-96768380D01*
X117136502Y-96695820D01*
X117077537Y-96585506D01*
X116998185Y-96488815D01*
X116901494Y-96409463D01*
X116791180Y-96350498D01*
X116671482Y-96314188D01*
X116547000Y-96301928D01*
X114847000Y-96301928D01*
X114722518Y-96314188D01*
X114602820Y-96350498D01*
X114492506Y-96409463D01*
X114395815Y-96488815D01*
X114316463Y-96585506D01*
X114257498Y-96695820D01*
X114221188Y-96815518D01*
X114208928Y-96940000D01*
X99872000Y-96940000D01*
X99872000Y-82909044D01*
X99982476Y-83464446D01*
X100218799Y-84034979D01*
X100561886Y-84548446D01*
X100998554Y-84985114D01*
X101512021Y-85328201D01*
X102082554Y-85564524D01*
X102688229Y-85685000D01*
X103305771Y-85685000D01*
X103911446Y-85564524D01*
X104481979Y-85328201D01*
X104995446Y-84985114D01*
X105432114Y-84548446D01*
X105775201Y-84034979D01*
X106011524Y-83464446D01*
X106132000Y-82858771D01*
X106132000Y-82241229D01*
X106011524Y-81635554D01*
X105916854Y-81407000D01*
X114283593Y-81407000D01*
X114257498Y-81455820D01*
G37*
X114257498Y-81455820D02*
X114221188Y-81575518D01*
X114208928Y-81700000D01*
X114208928Y-83400000D01*
X114221188Y-83524482D01*
X114257498Y-83644180D01*
X114316463Y-83754494D01*
X114395815Y-83851185D01*
X114492506Y-83930537D01*
X114602820Y-83989502D01*
X114722518Y-84025812D01*
X114847000Y-84038072D01*
X116547000Y-84038072D01*
X116671482Y-84025812D01*
X116791180Y-83989502D01*
X116901494Y-83930537D01*
X116998185Y-83851185D01*
X117077537Y-83754494D01*
X117136502Y-83644180D01*
X117160966Y-83563534D01*
X117236731Y-83647588D01*
X117470080Y-83821641D01*
X117732901Y-83946825D01*
X117880110Y-83991476D01*
X118110000Y-83870155D01*
X118110000Y-82677000D01*
X118090000Y-82677000D01*
X118090000Y-82423000D01*
X118110000Y-82423000D01*
X118110000Y-82403000D01*
X118364000Y-82403000D01*
X118364000Y-82423000D01*
X118384000Y-82423000D01*
X118384000Y-82677000D01*
X118364000Y-82677000D01*
X118364000Y-83870155D01*
X118593890Y-83991476D01*
X118741099Y-83946825D01*
X119003920Y-83821641D01*
X119237269Y-83647588D01*
X119432178Y-83431355D01*
X119501805Y-83314466D01*
X119623525Y-83496632D01*
X119830368Y-83703475D01*
X120073589Y-83865990D01*
X120343842Y-83977932D01*
X120630740Y-84035000D01*
X120923260Y-84035000D01*
X121210158Y-83977932D01*
X121480411Y-83865990D01*
X121723632Y-83703475D01*
X121930475Y-83496632D01*
X122047000Y-83322240D01*
X122163525Y-83496632D01*
X122370368Y-83703475D01*
X122613589Y-83865990D01*
X122883842Y-83977932D01*
X123170740Y-84035000D01*
X123463260Y-84035000D01*
X123750158Y-83977932D01*
X124020411Y-83865990D01*
X124263632Y-83703475D01*
X124470475Y-83496632D01*
X124587000Y-83322240D01*
X124703525Y-83496632D01*
X124910368Y-83703475D01*
X125153589Y-83865990D01*
X125423842Y-83977932D01*
X125710740Y-84035000D01*
X126003260Y-84035000D01*
X126085107Y-84018720D01*
X126124941Y-84051411D01*
X126278686Y-84133588D01*
X126445510Y-84184195D01*
X126452430Y-84184877D01*
X126886806Y-84619253D01*
X126886811Y-84619257D01*
X127597746Y-85330193D01*
X127620762Y-85358238D01*
X127648806Y-85381253D01*
X127732680Y-85450087D01*
X127860366Y-85518337D01*
X127998915Y-85560365D01*
X128143000Y-85574556D01*
X128179105Y-85571000D01*
X130964001Y-85571000D01*
X130964000Y-94679071D01*
X130957774Y-94694102D01*
X130918000Y-94894061D01*
X130918000Y-95097939D01*
X130957774Y-95297898D01*
X131035795Y-95486256D01*
X131149063Y-95655774D01*
X131293226Y-95799937D01*
X131462744Y-95913205D01*
X131651102Y-95991226D01*
X131851061Y-96031000D01*
X132054939Y-96031000D01*
X132254898Y-95991226D01*
X132443256Y-95913205D01*
X132612774Y-95799937D01*
X132756937Y-95655774D01*
X132870205Y-95486256D01*
X132948226Y-95297898D01*
X132988000Y-95097939D01*
X132988000Y-94894061D01*
X132948226Y-94694102D01*
X132930675Y-94651730D01*
X132951256Y-94643205D01*
X133120774Y-94529937D01*
X133264937Y-94385774D01*
X133378205Y-94216256D01*
X133456226Y-94027898D01*
X133496000Y-93827939D01*
X133496000Y-93624061D01*
X133456226Y-93424102D01*
X133438675Y-93381730D01*
X133459256Y-93373205D01*
X133628774Y-93259937D01*
X133772937Y-93115774D01*
X133886205Y-92946256D01*
X133964226Y-92757898D01*
X134004000Y-92557939D01*
X134004000Y-92354061D01*
X133964226Y-92154102D01*
X133946675Y-92111730D01*
X133967256Y-92103205D01*
X134136774Y-91989937D01*
X134280937Y-91845774D01*
X134394205Y-91676256D01*
X134472226Y-91487898D01*
X134512000Y-91287939D01*
X134512000Y-91084061D01*
X134472226Y-90884102D01*
X134394205Y-90695744D01*
X134280937Y-90526226D01*
X134212000Y-90457289D01*
X134212000Y-85126104D01*
X134215556Y-85090000D01*
X134212000Y-85053895D01*
X134212000Y-84065434D01*
X134216411Y-84060059D01*
X134298589Y-83906313D01*
X134343974Y-83756701D01*
X134423632Y-83703475D01*
X134630475Y-83496632D01*
X134747000Y-83322240D01*
X134863525Y-83496632D01*
X135070368Y-83703475D01*
X135313589Y-83865990D01*
X135583842Y-83977932D01*
X135870740Y-84035000D01*
X136163260Y-84035000D01*
X136450158Y-83977932D01*
X136720411Y-83865990D01*
X136963632Y-83703475D01*
X137170475Y-83496632D01*
X137287000Y-83322240D01*
X137403525Y-83496632D01*
X137610368Y-83703475D01*
X137853589Y-83865990D01*
X138123842Y-83977932D01*
X138410740Y-84035000D01*
X138703260Y-84035000D01*
X138990158Y-83977932D01*
X139260411Y-83865990D01*
X139503632Y-83703475D01*
X139710475Y-83496632D01*
X139827000Y-83322240D01*
X139943525Y-83496632D01*
X140150368Y-83703475D01*
X140393589Y-83865990D01*
X140663842Y-83977932D01*
X140950740Y-84035000D01*
X141243260Y-84035000D01*
X141530158Y-83977932D01*
X141800411Y-83865990D01*
X142043632Y-83703475D01*
X142250475Y-83496632D01*
X142367000Y-83322240D01*
X142483525Y-83496632D01*
X142690368Y-83703475D01*
X142933589Y-83865990D01*
X143203842Y-83977932D01*
X143490740Y-84035000D01*
X143783260Y-84035000D01*
X144070158Y-83977932D01*
X144340411Y-83865990D01*
X144583632Y-83703475D01*
X144790475Y-83496632D01*
X144952990Y-83253411D01*
X145064932Y-82983158D01*
X145122000Y-82696260D01*
X145122000Y-82403740D01*
X145064932Y-82116842D01*
X144952990Y-81846589D01*
X144790475Y-81603368D01*
X144594107Y-81407000D01*
X164973000Y-81407000D01*
X164973000Y-86162541D01*
X164954000Y-86258061D01*
X164954000Y-86461939D01*
X164973000Y-86557459D01*
X164973000Y-87911000D01*
X163739094Y-87911000D01*
X163702999Y-87907445D01*
X163666904Y-87911000D01*
X163666895Y-87911000D01*
X163558915Y-87921635D01*
X163420367Y-87963663D01*
X163292680Y-88031913D01*
X163180762Y-88123762D01*
X163157741Y-88151813D01*
X162954808Y-88354746D01*
X162926763Y-88377762D01*
X162834913Y-88489680D01*
X162814000Y-88528806D01*
X162793087Y-88489680D01*
X162701238Y-88377762D01*
X162673187Y-88354741D01*
X162470259Y-88151813D01*
X162447238Y-88123762D01*
X162335320Y-88031913D01*
X162207633Y-87963663D01*
X162069085Y-87921635D01*
X161961105Y-87911000D01*
X161925000Y-87907444D01*
X161888895Y-87911000D01*
X152323447Y-87911000D01*
X152246000Y-87833554D01*
X152246000Y-87088711D01*
X152314937Y-87019774D01*
X152428205Y-86850256D01*
X152506226Y-86661898D01*
X152546000Y-86461939D01*
X152546000Y-86258061D01*
X152506226Y-86058102D01*
X152428205Y-85869744D01*
X152314937Y-85700226D01*
X152170774Y-85556063D01*
X152001256Y-85442795D01*
X151812898Y-85364774D01*
X151612939Y-85325000D01*
X151409061Y-85325000D01*
X151209102Y-85364774D01*
X151020744Y-85442795D01*
X150851226Y-85556063D01*
X150707063Y-85700226D01*
X150593795Y-85869744D01*
X150515774Y-86058102D01*
X150476000Y-86258061D01*
X150476000Y-86461939D01*
X150515774Y-86661898D01*
X150593795Y-86850256D01*
X150707063Y-87019774D01*
X150776000Y-87088711D01*
X150776001Y-88101885D01*
X150772444Y-88138000D01*
X150786635Y-88282085D01*
X150825361Y-88409744D01*
X150828664Y-88420633D01*
X150896914Y-88548320D01*
X150988763Y-88660238D01*
X151016808Y-88683254D01*
X151473746Y-89140192D01*
X151496762Y-89168238D01*
X151608680Y-89260087D01*
X151736367Y-89328337D01*
X151874915Y-89370365D01*
X151982895Y-89381000D01*
X151982904Y-89381000D01*
X152018999Y-89384555D01*
X152055094Y-89381000D01*
X161144000Y-89381000D01*
X161144000Y-89509939D01*
X161183774Y-89709898D01*
X161261795Y-89898256D01*
X161375063Y-90067774D01*
X161519226Y-90211937D01*
X161688744Y-90325205D01*
X161877102Y-90403226D01*
X162077061Y-90443000D01*
X162280939Y-90443000D01*
X162480898Y-90403226D01*
X162669256Y-90325205D01*
X162814000Y-90228490D01*
X162958744Y-90325205D01*
X163147102Y-90403226D01*
X163347061Y-90443000D01*
X163550939Y-90443000D01*
X163750898Y-90403226D01*
X163939256Y-90325205D01*
X164108774Y-90211937D01*
X164252937Y-90067774D01*
X164366205Y-89898256D01*
X164444226Y-89709898D01*
X164484000Y-89509939D01*
X164484000Y-89381000D01*
X164854001Y-89381000D01*
X164854000Y-92314002D01*
X156900752Y-92314002D01*
X156845000Y-92308511D01*
X156789248Y-92314002D01*
X156622501Y-92330425D01*
X156408553Y-92395326D01*
X156211377Y-92500718D01*
X156038551Y-92642553D01*
X156003011Y-92685859D01*
X155233871Y-93455000D01*
X155040000Y-93455000D01*
X155040000Y-93438711D01*
X155108937Y-93369774D01*
X155222205Y-93200256D01*
X155300226Y-93011898D01*
X155340000Y-92811939D01*
X155340000Y-92608061D01*
X155300226Y-92408102D01*
X155222205Y-92219744D01*
X155108937Y-92050226D01*
X154964774Y-91906063D01*
X154795256Y-91792795D01*
X154606898Y-91714774D01*
X154406939Y-91675000D01*
X154203061Y-91675000D01*
X154003102Y-91714774D01*
X153960730Y-91732325D01*
X153952205Y-91711744D01*
X153838937Y-91542226D01*
X153694774Y-91398063D01*
X153525256Y-91284795D01*
X153336898Y-91206774D01*
X153136939Y-91167000D01*
X152933061Y-91167000D01*
X152733102Y-91206774D01*
X152690730Y-91224325D01*
X152682205Y-91203744D01*
X152568937Y-91034226D01*
X152424774Y-90890063D01*
X152255256Y-90776795D01*
X152066898Y-90698774D01*
X151866939Y-90659000D01*
X151663061Y-90659000D01*
X151463102Y-90698774D01*
X151420730Y-90716325D01*
X151412205Y-90695744D01*
X151298937Y-90526226D01*
X151154774Y-90382063D01*
X150985256Y-90268795D01*
X150796898Y-90190774D01*
X150596939Y-90151000D01*
X150393061Y-90151000D01*
X150193102Y-90190774D01*
X150004744Y-90268795D01*
X149835226Y-90382063D01*
X149691063Y-90526226D01*
X149577795Y-90695744D01*
X149499774Y-90884102D01*
X149460000Y-91084061D01*
X149460000Y-91287939D01*
X149499774Y-91487898D01*
X149577795Y-91676256D01*
X149691063Y-91845774D01*
X149783514Y-91938225D01*
X149812663Y-92034317D01*
X149880913Y-92162004D01*
X149972762Y-92273922D01*
X150000808Y-92296939D01*
X150222292Y-92518423D01*
X150042744Y-92592795D01*
X149873226Y-92706063D01*
X149729063Y-92850226D01*
X149615795Y-93019744D01*
X149541544Y-93199000D01*
X149377061Y-93199000D01*
X149177102Y-93238774D01*
X148988744Y-93316795D01*
X148819226Y-93430063D01*
X148675063Y-93574226D01*
X148583835Y-93710759D01*
X148564939Y-93707000D01*
X148361061Y-93707000D01*
X148182000Y-93742617D01*
X148182000Y-83913711D01*
X148250937Y-83844774D01*
X148364205Y-83675256D01*
X148442226Y-83486898D01*
X148482000Y-83286939D01*
X148482000Y-83083061D01*
X148442226Y-82883102D01*
X148364205Y-82694744D01*
X148250937Y-82525226D01*
X148106774Y-82381063D01*
X147937256Y-82267795D01*
X147748898Y-82189774D01*
X147548939Y-82150000D01*
X147345061Y-82150000D01*
X147145102Y-82189774D01*
X146956744Y-82267795D01*
X146787226Y-82381063D01*
X146643063Y-82525226D01*
X146529795Y-82694744D01*
X146451774Y-82883102D01*
X146412000Y-83083061D01*
X146412000Y-83286939D01*
X146451774Y-83486898D01*
X146529795Y-83675256D01*
X146643063Y-83844774D01*
X146712001Y-83913712D01*
X146712000Y-98661289D01*
X146643063Y-98730226D01*
X146529795Y-98899744D01*
X146451774Y-99088102D01*
X146412000Y-99288061D01*
X146412000Y-99491939D01*
X146451774Y-99691898D01*
X146529795Y-99880256D01*
X146643063Y-100049774D01*
X146787226Y-100193937D01*
X146956744Y-100307205D01*
X147145102Y-100385226D01*
X147345061Y-100425000D01*
X147548939Y-100425000D01*
X147748898Y-100385226D01*
X147937256Y-100307205D01*
X148106774Y-100193937D01*
X148250937Y-100049774D01*
X148364205Y-99880256D01*
X148442226Y-99691898D01*
X148455533Y-99625000D01*
X148564939Y-99625000D01*
X148764898Y-99585226D01*
X148953256Y-99507205D01*
X149122774Y-99393937D01*
X149266937Y-99249774D01*
X149380205Y-99080256D01*
X149458226Y-98891898D01*
X149471533Y-98825000D01*
X149580939Y-98825000D01*
X149780898Y-98785226D01*
X149969256Y-98707205D01*
X150138774Y-98593937D01*
X150282937Y-98449774D01*
X150396205Y-98280256D01*
X150474226Y-98091898D01*
X150487533Y-98025000D01*
X150634939Y-98025000D01*
X150834898Y-97985226D01*
X151023256Y-97907205D01*
X151192774Y-97793937D01*
X151284001Y-97702710D01*
X151284000Y-105443289D01*
X151215063Y-105512226D01*
X151101795Y-105681744D01*
X151023774Y-105870102D01*
X150984000Y-106070061D01*
X150984000Y-106273939D01*
X151023774Y-106473898D01*
X151101795Y-106662256D01*
X151215063Y-106831774D01*
X151359226Y-106975937D01*
X151528744Y-107089205D01*
X151717102Y-107167226D01*
X151917061Y-107207000D01*
X152000000Y-107207000D01*
X152000000Y-107289939D01*
X152039774Y-107489898D01*
X152117795Y-107678256D01*
X152231063Y-107847774D01*
X152375226Y-107991937D01*
X152544744Y-108105205D01*
X152733102Y-108183226D01*
X152933061Y-108223000D01*
X153050026Y-108223000D01*
X153055774Y-108251898D01*
X153133795Y-108440256D01*
X153163692Y-108485000D01*
X150531096Y-108485000D01*
X150494999Y-108481445D01*
X150458902Y-108485000D01*
X150458895Y-108485000D01*
X150365132Y-108494235D01*
X150350914Y-108495635D01*
X150308886Y-108508384D01*
X150212367Y-108537663D01*
X150084680Y-108605913D01*
X149972762Y-108697762D01*
X149949746Y-108725807D01*
X148857808Y-109817746D01*
X148829763Y-109840762D01*
X148737914Y-109952680D01*
X148701799Y-110020247D01*
X148669664Y-110080367D01*
X148627635Y-110218915D01*
X148613444Y-110363000D01*
X148617000Y-110399105D01*
X148617000Y-110947553D01*
X148539554Y-111025000D01*
X144545000Y-111025000D01*
X144545000Y-110838061D01*
X144505226Y-110638102D01*
X144427205Y-110449744D01*
X144313937Y-110280226D01*
X144270000Y-110236289D01*
X144270000Y-105478711D01*
X144313937Y-105434774D01*
X144427205Y-105265256D01*
X144505226Y-105076898D01*
X144545000Y-104876939D01*
X144545000Y-104673061D01*
X144505226Y-104473102D01*
X144427205Y-104284744D01*
X144313937Y-104115226D01*
X144169774Y-103971063D01*
X144000256Y-103857795D01*
X143811898Y-103779774D01*
X143611939Y-103740000D01*
X143408061Y-103740000D01*
X143208102Y-103779774D01*
X143019744Y-103857795D01*
X142850226Y-103971063D01*
X142706063Y-104115226D01*
X142592795Y-104284744D01*
X142514774Y-104473102D01*
X142475000Y-104673061D01*
X142475000Y-104876939D01*
X142514774Y-105076898D01*
X142592795Y-105265256D01*
X142706063Y-105434774D01*
X142750001Y-105478712D01*
X142750000Y-110236289D01*
X142706063Y-110280226D01*
X142592795Y-110449744D01*
X142514774Y-110638102D01*
X142475000Y-110838061D01*
X142475000Y-111025000D01*
X141698105Y-111025000D01*
X141662000Y-111021444D01*
X141625895Y-111025000D01*
X141517915Y-111035635D01*
X141379367Y-111077663D01*
X141251680Y-111145913D01*
X141144865Y-111233574D01*
X141142509Y-111233806D01*
X141000591Y-111276857D01*
X140988081Y-111271675D01*
X140652883Y-111205000D01*
X140311117Y-111205000D01*
X139975919Y-111271675D01*
X139660169Y-111402463D01*
X139624600Y-111426230D01*
X139590325Y-111253919D01*
X139459537Y-110938169D01*
X139269663Y-110654002D01*
X139027998Y-110412337D01*
X138771217Y-110240761D01*
X138743589Y-110149687D01*
X138682000Y-110034461D01*
X138682000Y-109384325D01*
X138685676Y-109347000D01*
X138682000Y-109309675D01*
X138682000Y-109309667D01*
X138671003Y-109198014D01*
X138627546Y-109054753D01*
X138556974Y-108922724D01*
X138462001Y-108806999D01*
X138433002Y-108783201D01*
X137920000Y-108270199D01*
X137920000Y-105605711D01*
X137963937Y-105561774D01*
X138077205Y-105392256D01*
X138155226Y-105203898D01*
X138195000Y-105003939D01*
X138195000Y-104800061D01*
X138155226Y-104600102D01*
X138077205Y-104411744D01*
X137963937Y-104242226D01*
X137819774Y-104098063D01*
X137650256Y-103984795D01*
X137461898Y-103906774D01*
X137261939Y-103867000D01*
X137058061Y-103867000D01*
X136858102Y-103906774D01*
X136669744Y-103984795D01*
X136500226Y-104098063D01*
X136356063Y-104242226D01*
X136242795Y-104411744D01*
X136164774Y-104600102D01*
X136125000Y-104800061D01*
X136125000Y-105003939D01*
X136164774Y-105203898D01*
X136242795Y-105392256D01*
X136356063Y-105561774D01*
X136400000Y-105605711D01*
X136400001Y-108547658D01*
X136400000Y-108547668D01*
X136400000Y-108547678D01*
X136396324Y-108585000D01*
X136400000Y-108622322D01*
X136400000Y-108847198D01*
X136226458Y-109020740D01*
X136184686Y-109033412D01*
X136030941Y-109115589D01*
X135929953Y-109198468D01*
X135861945Y-109266476D01*
X135552883Y-109205000D01*
X135211117Y-109205000D01*
X134875919Y-109271675D01*
X134560169Y-109402463D01*
X134276002Y-109592337D01*
X134034337Y-109834002D01*
X133844463Y-110118169D01*
X133713675Y-110433919D01*
X133647000Y-110769117D01*
X133647000Y-111110883D01*
X133713675Y-111446081D01*
X133844463Y-111761831D01*
X134034337Y-112045998D01*
X134276002Y-112287663D01*
X134560169Y-112477537D01*
X134875919Y-112608325D01*
X135211117Y-112675000D01*
X135552883Y-112675000D01*
X135888081Y-112608325D01*
X136203831Y-112477537D01*
X136311472Y-112405614D01*
X136384463Y-112581831D01*
X136574337Y-112865998D01*
X136816002Y-113107663D01*
X137100169Y-113297537D01*
X137415919Y-113428325D01*
X137751117Y-113495000D01*
X138092883Y-113495000D01*
X138428081Y-113428325D01*
X138743831Y-113297537D01*
X138779400Y-113273770D01*
X138813675Y-113446081D01*
X138825693Y-113475096D01*
X138806004Y-113540000D01*
X133297539Y-113540000D01*
X133182313Y-113478411D01*
X133091239Y-113450783D01*
X132919663Y-113194002D01*
X132677998Y-112952337D01*
X132393831Y-112762463D01*
X132078081Y-112631675D01*
X131742883Y-112565000D01*
X131401117Y-112565000D01*
X131065919Y-112631675D01*
X130750169Y-112762463D01*
X130466002Y-112952337D01*
X130224337Y-113194002D01*
X130052761Y-113450783D01*
X129961687Y-113478411D01*
X129846461Y-113540000D01*
X123106802Y-113540000D01*
X123088515Y-113521714D01*
X123080264Y-113494513D01*
X123100325Y-113446081D01*
X123167000Y-113110883D01*
X123167000Y-112769117D01*
X123100325Y-112433919D01*
X122969537Y-112118169D01*
X122779663Y-111834002D01*
X122537998Y-111592337D01*
X122253831Y-111402463D01*
X121938081Y-111271675D01*
X121602883Y-111205000D01*
X121261117Y-111205000D01*
X120925919Y-111271675D01*
X120610169Y-111402463D01*
X120574600Y-111426230D01*
X120540325Y-111253919D01*
X120514714Y-111192088D01*
X120710802Y-110996000D01*
X129756678Y-110996000D01*
X129794000Y-110999676D01*
X129831322Y-110996000D01*
X129831333Y-110996000D01*
X129942986Y-110985003D01*
X130086247Y-110941546D01*
X130218276Y-110870974D01*
X130334001Y-110776001D01*
X130357804Y-110746997D01*
X130685997Y-110418804D01*
X130715001Y-110395001D01*
X130809974Y-110279276D01*
X130880546Y-110147247D01*
X130924003Y-110003986D01*
X130935000Y-109892333D01*
X130935000Y-109892324D01*
X130938676Y-109855001D01*
X130935000Y-109817678D01*
X130935000Y-109257324D01*
X130938676Y-109220001D01*
X130935000Y-109182678D01*
X130935000Y-105479711D01*
X130978937Y-105435774D01*
X131092205Y-105266256D01*
X131170226Y-105077898D01*
X131210000Y-104877939D01*
X131210000Y-104674061D01*
X131170226Y-104474102D01*
X131092205Y-104285744D01*
X130978937Y-104116226D01*
X130834774Y-103972063D01*
X130665256Y-103858795D01*
X130476898Y-103780774D01*
X130276939Y-103741000D01*
X130073061Y-103741000D01*
X129873102Y-103780774D01*
X129684744Y-103858795D01*
X129515226Y-103972063D01*
X129371063Y-104116226D01*
X129257795Y-104285744D01*
X129179774Y-104474102D01*
X129140000Y-104674061D01*
X129140000Y-104877939D01*
X129179774Y-105077898D01*
X129257795Y-105266256D01*
X129371063Y-105435774D01*
X129415001Y-105479712D01*
X129415000Y-108905198D01*
X129352199Y-108968000D01*
X117581322Y-108968000D01*
X117543999Y-108964324D01*
X117506676Y-108968000D01*
X117506667Y-108968000D01*
X117395014Y-108978997D01*
X117251753Y-109022454D01*
X117119724Y-109093026D01*
X117003999Y-109187999D01*
X116980196Y-109217003D01*
X116899913Y-109297286D01*
X116838081Y-109271675D01*
X116502883Y-109205000D01*
X116161117Y-109205000D01*
X115825919Y-109271675D01*
X115510169Y-109402463D01*
X115226002Y-109592337D01*
X114984337Y-109834002D01*
X114794463Y-110118169D01*
X114663675Y-110433919D01*
X114597000Y-110769117D01*
X114597000Y-111110883D01*
X114663675Y-111446081D01*
X114794463Y-111761831D01*
X114984337Y-112045998D01*
X115226002Y-112287663D01*
X115510169Y-112477537D01*
X115825919Y-112608325D01*
X116161117Y-112675000D01*
X116502883Y-112675000D01*
X116838081Y-112608325D01*
X117153831Y-112477537D01*
X117261472Y-112405614D01*
X117334463Y-112581831D01*
X117524337Y-112865998D01*
X117766002Y-113107663D01*
X118050169Y-113297537D01*
X118365919Y-113428325D01*
X118701117Y-113495000D01*
X119042883Y-113495000D01*
X119378081Y-113428325D01*
X119693831Y-113297537D01*
X119729400Y-113273770D01*
X119763675Y-113446081D01*
X119775693Y-113475096D01*
X119756004Y-113540000D01*
X114247539Y-113540000D01*
X114132313Y-113478411D01*
X114041239Y-113450783D01*
X113869663Y-113194002D01*
X113627998Y-112952337D01*
X113343831Y-112762463D01*
X113028081Y-112631675D01*
X112692883Y-112565000D01*
X112351117Y-112565000D01*
X112015919Y-112631675D01*
X111700169Y-112762463D01*
X111416002Y-112952337D01*
X111174337Y-113194002D01*
X110984463Y-113478169D01*
X110853675Y-113793919D01*
X110787000Y-114129117D01*
X110787000Y-114470883D01*
X110853675Y-114806081D01*
X110984463Y-115121831D01*
X111086524Y-115274576D01*
X110988109Y-115255000D01*
X110675891Y-115255000D01*
X110369673Y-115315911D01*
X110081221Y-115435391D01*
X109821621Y-115608850D01*
X109600850Y-115829621D01*
X109427391Y-116089221D01*
X109307911Y-116377673D01*
X109247000Y-116683891D01*
X109247000Y-116996109D01*
X109307911Y-117302327D01*
X109427391Y-117590779D01*
X109600850Y-117850379D01*
X109821621Y-118071150D01*
X110081221Y-118244609D01*
X110369673Y-118364089D01*
X110675891Y-118425000D01*
X110988109Y-118425000D01*
X111294327Y-118364089D01*
X111388697Y-118325000D01*
X111398260Y-118325000D01*
X111685158Y-118267932D01*
X111955411Y-118155990D01*
X112198632Y-117993475D01*
X112405475Y-117786632D01*
X112567990Y-117543411D01*
X112679932Y-117273158D01*
X112737000Y-116986260D01*
X112737000Y-116693740D01*
X112679932Y-116406842D01*
X112567990Y-116136589D01*
X112500110Y-116035000D01*
X112692883Y-116035000D01*
X113028081Y-115968325D01*
X113343831Y-115837537D01*
X113627998Y-115647663D01*
X113869663Y-115405998D01*
X114041239Y-115149217D01*
X114132313Y-115121589D01*
X114247539Y-115060000D01*
X114385547Y-115060000D01*
X114285262Y-115160285D01*
X113996893Y-115591859D01*
X113798261Y-116071399D01*
X113697000Y-116580475D01*
X113697000Y-117099525D01*
X113798261Y-117608601D01*
X113996893Y-118088141D01*
X114285262Y-118519715D01*
X114652285Y-118886738D01*
X115083859Y-119175107D01*
X115563399Y-119373739D01*
X116072475Y-119475000D01*
X116591525Y-119475000D01*
X117100601Y-119373739D01*
X117580141Y-119175107D01*
X118011715Y-118886738D01*
X118378738Y-118519715D01*
X118667107Y-118088141D01*
X118865739Y-117608601D01*
X118967000Y-117099525D01*
X118967000Y-116693740D01*
X119927000Y-116693740D01*
X119927000Y-116986260D01*
X119984068Y-117273158D01*
X120096010Y-117543411D01*
X120258525Y-117786632D01*
X120465368Y-117993475D01*
X120708589Y-118155990D01*
X120978842Y-118267932D01*
X121265740Y-118325000D01*
X121275303Y-118325000D01*
X121369673Y-118364089D01*
X121675891Y-118425000D01*
X121988109Y-118425000D01*
X122294327Y-118364089D01*
X122582779Y-118244609D01*
X122842379Y-118071150D01*
X123063150Y-117850379D01*
X123236609Y-117590779D01*
X123356089Y-117302327D01*
X123417000Y-116996109D01*
X123417000Y-116683891D01*
X123356089Y-116377673D01*
X123236609Y-116089221D01*
X123063150Y-115829621D01*
X122842379Y-115608850D01*
X122582779Y-115435391D01*
X122294327Y-115315911D01*
X121988109Y-115255000D01*
X121675891Y-115255000D01*
X121369673Y-115315911D01*
X121275303Y-115355000D01*
X121265740Y-115355000D01*
X120978842Y-115412068D01*
X120708589Y-115524010D01*
X120465368Y-115686525D01*
X120258525Y-115893368D01*
X120096010Y-116136589D01*
X119984068Y-116406842D01*
X119927000Y-116693740D01*
X118967000Y-116693740D01*
X118967000Y-116580475D01*
X118865739Y-116071399D01*
X118667107Y-115591859D01*
X118378738Y-115160285D01*
X118278453Y-115060000D01*
X120034678Y-115060000D01*
X120072000Y-115063676D01*
X120109322Y-115060000D01*
X120109333Y-115060000D01*
X120220986Y-115049003D01*
X120364247Y-115005546D01*
X120496276Y-114934974D01*
X120612001Y-114840001D01*
X120635803Y-114810998D01*
X120830285Y-114616516D01*
X120896904Y-114596307D01*
X120925919Y-114608325D01*
X121261117Y-114675000D01*
X121602883Y-114675000D01*
X121938081Y-114608325D01*
X121986513Y-114588264D01*
X122013714Y-114596515D01*
X122228200Y-114811002D01*
X122251999Y-114840001D01*
X122367724Y-114934974D01*
X122499753Y-115005546D01*
X122643014Y-115049003D01*
X122754667Y-115060000D01*
X122754676Y-115060000D01*
X122791999Y-115063676D01*
X122829322Y-115060000D01*
X129846461Y-115060000D01*
X129961687Y-115121589D01*
X130052761Y-115149217D01*
X130136524Y-115274576D01*
X130038109Y-115255000D01*
X129725891Y-115255000D01*
X129419673Y-115315911D01*
X129131221Y-115435391D01*
X128871621Y-115608850D01*
X128650850Y-115829621D01*
X128477391Y-116089221D01*
X128357911Y-116377673D01*
X128297000Y-116683891D01*
X128297000Y-116996109D01*
X128357911Y-117302327D01*
X128477391Y-117590779D01*
X128650850Y-117850379D01*
X128871621Y-118071150D01*
X129131221Y-118244609D01*
X129419673Y-118364089D01*
X129725891Y-118425000D01*
X130038109Y-118425000D01*
X130344327Y-118364089D01*
X130438697Y-118325000D01*
X130448260Y-118325000D01*
X130735158Y-118267932D01*
X131005411Y-118155990D01*
X131248632Y-117993475D01*
X131455475Y-117786632D01*
X131617990Y-117543411D01*
X131729932Y-117273158D01*
X131787000Y-116986260D01*
X131787000Y-116693740D01*
X131729932Y-116406842D01*
X131617990Y-116136589D01*
X131550110Y-116035000D01*
X131742883Y-116035000D01*
X132078081Y-115968325D01*
X132393831Y-115837537D01*
X132677998Y-115647663D01*
X132919663Y-115405998D01*
X133091239Y-115149217D01*
X133182313Y-115121589D01*
X133297539Y-115060000D01*
X133435547Y-115060000D01*
X133335262Y-115160285D01*
X133046893Y-115591859D01*
X132848261Y-116071399D01*
X132747000Y-116580475D01*
X132747000Y-117099525D01*
X132848261Y-117608601D01*
X133046893Y-118088141D01*
X133335262Y-118519715D01*
X133702285Y-118886738D01*
X134133859Y-119175107D01*
X134613399Y-119373739D01*
X135122475Y-119475000D01*
X135641525Y-119475000D01*
X136150601Y-119373739D01*
X136630141Y-119175107D01*
X137061715Y-118886738D01*
X137428738Y-118519715D01*
X137717107Y-118088141D01*
X137915739Y-117608601D01*
X138017000Y-117099525D01*
X138017000Y-116693740D01*
X138977000Y-116693740D01*
X138977000Y-116986260D01*
X139034068Y-117273158D01*
X139146010Y-117543411D01*
X139308525Y-117786632D01*
X139515368Y-117993475D01*
X139758589Y-118155990D01*
X140028842Y-118267932D01*
X140315740Y-118325000D01*
X140325303Y-118325000D01*
X140419673Y-118364089D01*
X140725891Y-118425000D01*
X141038109Y-118425000D01*
X141344327Y-118364089D01*
X141632779Y-118244609D01*
X141892379Y-118071150D01*
X142113150Y-117850379D01*
X142286609Y-117590779D01*
X142406089Y-117302327D01*
X142467000Y-116996109D01*
X142467000Y-116683891D01*
X142406089Y-116377673D01*
X142286609Y-116089221D01*
X142113150Y-115829621D01*
X141892379Y-115608850D01*
X141632779Y-115435391D01*
X141344327Y-115315911D01*
X141038109Y-115255000D01*
X140725891Y-115255000D01*
X140419673Y-115315911D01*
X140325303Y-115355000D01*
X140315740Y-115355000D01*
X140028842Y-115412068D01*
X139758589Y-115524010D01*
X139515368Y-115686525D01*
X139308525Y-115893368D01*
X139146010Y-116136589D01*
X139034068Y-116406842D01*
X138977000Y-116693740D01*
X138017000Y-116693740D01*
X138017000Y-116580475D01*
X137915739Y-116071399D01*
X137717107Y-115591859D01*
X137428738Y-115160285D01*
X137328453Y-115060000D01*
X139084678Y-115060000D01*
X139122000Y-115063676D01*
X139159322Y-115060000D01*
X139159333Y-115060000D01*
X139270986Y-115049003D01*
X139414247Y-115005546D01*
X139546276Y-114934974D01*
X139662001Y-114840001D01*
X139685803Y-114810998D01*
X139880285Y-114616516D01*
X139946904Y-114596307D01*
X139975919Y-114608325D01*
X140311117Y-114675000D01*
X140652883Y-114675000D01*
X140988081Y-114608325D01*
X141303831Y-114477537D01*
X141587998Y-114287663D01*
X141829663Y-114045998D01*
X142019537Y-113761831D01*
X142150325Y-113446081D01*
X142217000Y-113110883D01*
X142217000Y-112769117D01*
X142162475Y-112495000D01*
X148807895Y-112495000D01*
X148844000Y-112498556D01*
X148880105Y-112495000D01*
X148988085Y-112484365D01*
X149126633Y-112442337D01*
X149254320Y-112374087D01*
X149366238Y-112282238D01*
X149389258Y-112254188D01*
X149846197Y-111797250D01*
X149874237Y-111774238D01*
X149897250Y-111746197D01*
X149897253Y-111746194D01*
X149966086Y-111662321D01*
X149966087Y-111662320D01*
X150034337Y-111534633D01*
X150050636Y-111480903D01*
X150130063Y-111599774D01*
X150274226Y-111743937D01*
X150443744Y-111857205D01*
X150632102Y-111935226D01*
X150832061Y-111975000D01*
X151035939Y-111975000D01*
X151235898Y-111935226D01*
X151424256Y-111857205D01*
X151593774Y-111743937D01*
X151637711Y-111700000D01*
X151894001Y-111700000D01*
X151894000Y-112484677D01*
X151890324Y-112522000D01*
X151894000Y-112559322D01*
X151894000Y-112559332D01*
X151904997Y-112670985D01*
X151940795Y-112788997D01*
X151948454Y-112814246D01*
X152019026Y-112946276D01*
X152053267Y-112987998D01*
X152113999Y-113062001D01*
X152143003Y-113085804D01*
X152344196Y-113286997D01*
X152367999Y-113316001D01*
X152483724Y-113410974D01*
X152615753Y-113481546D01*
X152759014Y-113525003D01*
X152870667Y-113536000D01*
X152870676Y-113536000D01*
X152907999Y-113539676D01*
X152945322Y-113536000D01*
X155664678Y-113536000D01*
X155702000Y-113539676D01*
X155739322Y-113536000D01*
X155739333Y-113536000D01*
X155850986Y-113525003D01*
X155994247Y-113481546D01*
X156126276Y-113410974D01*
X156156826Y-113385903D01*
X156276128Y-113349711D01*
X156465919Y-113428325D01*
X156801117Y-113495000D01*
X157142883Y-113495000D01*
X157478081Y-113428325D01*
X157793831Y-113297537D01*
X157829400Y-113273770D01*
X157847655Y-113365543D01*
X157673199Y-113540000D01*
X152347539Y-113540000D01*
X152232313Y-113478411D01*
X152141239Y-113450783D01*
X151969663Y-113194002D01*
X151727998Y-112952337D01*
X151443831Y-112762463D01*
X151128081Y-112631675D01*
X150792883Y-112565000D01*
X150451117Y-112565000D01*
X150115919Y-112631675D01*
X149800169Y-112762463D01*
X149516002Y-112952337D01*
X149274337Y-113194002D01*
X149084463Y-113478169D01*
X148953675Y-113793919D01*
X148887000Y-114129117D01*
X148887000Y-114470883D01*
X148953675Y-114806081D01*
X149084463Y-115121831D01*
X149186524Y-115274576D01*
X149088109Y-115255000D01*
X148775891Y-115255000D01*
X148469673Y-115315911D01*
X148181221Y-115435391D01*
X147921621Y-115608850D01*
X147700850Y-115829621D01*
X147527391Y-116089221D01*
X147407911Y-116377673D01*
X147347000Y-116683891D01*
X147347000Y-116996109D01*
X147407911Y-117302327D01*
X147527391Y-117590779D01*
X147700850Y-117850379D01*
X147921621Y-118071150D01*
X148181221Y-118244609D01*
X148469673Y-118364089D01*
X148775891Y-118425000D01*
X149088109Y-118425000D01*
X149394327Y-118364089D01*
X149488697Y-118325000D01*
X149498260Y-118325000D01*
X149785158Y-118267932D01*
X150055411Y-118155990D01*
X150298632Y-117993475D01*
X150505475Y-117786632D01*
X150667990Y-117543411D01*
X150779932Y-117273158D01*
X150837000Y-116986260D01*
X150837000Y-116693740D01*
X150779932Y-116406842D01*
X150667990Y-116136589D01*
X150600110Y-116035000D01*
X150792883Y-116035000D01*
X151128081Y-115968325D01*
X151443831Y-115837537D01*
X151727998Y-115647663D01*
X151969663Y-115405998D01*
X152141239Y-115149217D01*
X152232313Y-115121589D01*
X152347539Y-115060000D01*
X152485547Y-115060000D01*
X152385262Y-115160285D01*
X152096893Y-115591859D01*
X151898261Y-116071399D01*
X151797000Y-116580475D01*
X151797000Y-117099525D01*
X151898261Y-117608601D01*
X152096893Y-118088141D01*
X152385262Y-118519715D01*
X152752285Y-118886738D01*
X153183859Y-119175107D01*
X153663399Y-119373739D01*
X154172475Y-119475000D01*
X154691525Y-119475000D01*
X155200601Y-119373739D01*
X155680141Y-119175107D01*
X156111715Y-118886738D01*
X156478738Y-118519715D01*
X156767107Y-118088141D01*
X156965739Y-117608601D01*
X157067000Y-117099525D01*
X157067000Y-116693740D01*
X158027000Y-116693740D01*
X158027000Y-116986260D01*
X158084068Y-117273158D01*
X158196010Y-117543411D01*
X158358525Y-117786632D01*
X158565368Y-117993475D01*
X158808589Y-118155990D01*
X159078842Y-118267932D01*
X159365740Y-118325000D01*
X159375303Y-118325000D01*
X159469673Y-118364089D01*
X159775891Y-118425000D01*
X160088109Y-118425000D01*
X160394327Y-118364089D01*
X160682779Y-118244609D01*
X160942379Y-118071150D01*
X161163150Y-117850379D01*
X161336609Y-117590779D01*
X161456089Y-117302327D01*
X161517000Y-116996109D01*
X161517000Y-116683891D01*
X161456089Y-116377673D01*
X161336609Y-116089221D01*
X161163150Y-115829621D01*
X160942379Y-115608850D01*
X160682779Y-115435391D01*
X160394327Y-115315911D01*
X160088109Y-115255000D01*
X159775891Y-115255000D01*
X159469673Y-115315911D01*
X159375303Y-115355000D01*
X159365740Y-115355000D01*
X159078842Y-115412068D01*
X158808589Y-115524010D01*
X158565368Y-115686525D01*
X158358525Y-115893368D01*
X158196010Y-116136589D01*
X158084068Y-116406842D01*
X158027000Y-116693740D01*
X157067000Y-116693740D01*
X157067000Y-116580475D01*
X156965739Y-116071399D01*
X156767107Y-115591859D01*
X156478738Y-115160285D01*
X156378453Y-115060000D01*
X157950678Y-115060000D01*
X157988000Y-115063676D01*
X158025322Y-115060000D01*
X158025333Y-115060000D01*
X158136986Y-115049003D01*
X158280247Y-115005546D01*
X158412276Y-114934974D01*
X158528001Y-114840001D01*
X158551803Y-114810998D01*
X158833980Y-114528821D01*
X159025919Y-114608325D01*
X159361117Y-114675000D01*
X159702883Y-114675000D01*
X160038081Y-114608325D01*
X160353831Y-114477537D01*
X160377153Y-114461954D01*
X160726201Y-114811002D01*
X160749999Y-114840001D01*
X160865724Y-114934974D01*
X160997753Y-115005546D01*
X161141014Y-115049003D01*
X161252667Y-115060000D01*
X161252675Y-115060000D01*
X161290000Y-115063676D01*
X161327325Y-115060000D01*
X167946461Y-115060000D01*
X168061687Y-115121589D01*
X168152761Y-115149217D01*
X168236524Y-115274576D01*
X168138109Y-115255000D01*
X167825891Y-115255000D01*
X167519673Y-115315911D01*
X167231221Y-115435391D01*
X166971621Y-115608850D01*
X166750850Y-115829621D01*
X166577391Y-116089221D01*
X166457911Y-116377673D01*
X166397000Y-116683891D01*
X166397000Y-116996109D01*
X166457911Y-117302327D01*
X166577391Y-117590779D01*
X166750850Y-117850379D01*
X166971621Y-118071150D01*
X167231221Y-118244609D01*
X167519673Y-118364089D01*
X167825891Y-118425000D01*
X168138109Y-118425000D01*
X168444327Y-118364089D01*
X168538697Y-118325000D01*
X168548260Y-118325000D01*
X168835158Y-118267932D01*
X169105411Y-118155990D01*
X169348632Y-117993475D01*
X169555475Y-117786632D01*
X169717990Y-117543411D01*
X169829932Y-117273158D01*
X169887000Y-116986260D01*
X169887000Y-116693740D01*
X169829932Y-116406842D01*
X169717990Y-116136589D01*
X169650110Y-116035000D01*
X169842883Y-116035000D01*
X170178081Y-115968325D01*
X170493831Y-115837537D01*
X170777998Y-115647663D01*
X171019663Y-115405998D01*
X171191239Y-115149217D01*
X171282313Y-115121589D01*
X171397539Y-115060000D01*
X171535547Y-115060000D01*
X171435262Y-115160285D01*
X171146893Y-115591859D01*
X170948261Y-116071399D01*
X170847000Y-116580475D01*
X170847000Y-117099525D01*
X170948261Y-117608601D01*
X171146893Y-118088141D01*
X171435262Y-118519715D01*
X171802285Y-118886738D01*
X172233859Y-119175107D01*
X172713399Y-119373739D01*
X173222475Y-119475000D01*
X173741525Y-119475000D01*
X174250601Y-119373739D01*
X174730141Y-119175107D01*
X175161715Y-118886738D01*
X175528738Y-118519715D01*
X175817107Y-118088141D01*
X176015739Y-117608601D01*
X176117000Y-117099525D01*
X176117000Y-116693740D01*
X177077000Y-116693740D01*
X177077000Y-116986260D01*
X177134068Y-117273158D01*
X177246010Y-117543411D01*
X177408525Y-117786632D01*
X177615368Y-117993475D01*
X177858589Y-118155990D01*
X178128842Y-118267932D01*
X178415740Y-118325000D01*
X178425303Y-118325000D01*
X178519673Y-118364089D01*
X178825891Y-118425000D01*
X179138109Y-118425000D01*
X179444327Y-118364089D01*
X179732779Y-118244609D01*
X179992379Y-118071150D01*
X180213150Y-117850379D01*
X180386609Y-117590779D01*
X180506089Y-117302327D01*
X180567000Y-116996109D01*
X180567000Y-116683891D01*
X180506089Y-116377673D01*
X180386609Y-116089221D01*
X180213150Y-115829621D01*
X179992379Y-115608850D01*
X179732779Y-115435391D01*
X179444327Y-115315911D01*
X179138109Y-115255000D01*
X178825891Y-115255000D01*
X178519673Y-115315911D01*
X178425303Y-115355000D01*
X178415740Y-115355000D01*
X178128842Y-115412068D01*
X177858589Y-115524010D01*
X177615368Y-115686525D01*
X177408525Y-115893368D01*
X177246010Y-116136589D01*
X177134068Y-116406842D01*
X177077000Y-116693740D01*
X176117000Y-116693740D01*
X176117000Y-116580475D01*
X176015739Y-116071399D01*
X175817107Y-115591859D01*
X175528738Y-115160285D01*
X175428453Y-115060000D01*
X177254678Y-115060000D01*
X177292000Y-115063676D01*
X177440985Y-115049002D01*
X177584246Y-115005546D01*
X177716276Y-114934974D01*
X177803002Y-114863799D01*
X178015285Y-114651516D01*
X178125290Y-114618145D01*
X178411117Y-114675000D01*
X178752883Y-114675000D01*
X179088081Y-114608325D01*
X179403831Y-114477537D01*
X179687998Y-114287663D01*
X179929663Y-114045998D01*
X180119537Y-113761831D01*
X180250325Y-113446081D01*
X180317000Y-113110883D01*
X180317000Y-112769117D01*
X180250325Y-112433919D01*
X180119537Y-112118169D01*
X179929663Y-111834002D01*
X179687998Y-111592337D01*
X179403831Y-111402463D01*
X179377966Y-111391749D01*
X179342000Y-111324461D01*
X179342000Y-108515325D01*
X179345676Y-108478000D01*
X179342000Y-108440675D01*
X179342000Y-108440667D01*
X179331003Y-108329014D01*
X179287546Y-108185753D01*
X179216974Y-108053724D01*
X179122001Y-107937999D01*
X179093002Y-107914200D01*
X178617803Y-107439002D01*
X178594001Y-107409999D01*
X178478276Y-107315026D01*
X178346247Y-107244454D01*
X178202986Y-107200997D01*
X178091333Y-107190000D01*
X178091322Y-107190000D01*
X178054000Y-107186324D01*
X178016678Y-107190000D01*
X163727281Y-107190000D01*
X163740259Y-107174187D01*
X163943187Y-106971259D01*
X163971238Y-106948238D01*
X164063087Y-106836320D01*
X164131337Y-106708633D01*
X164135369Y-106695342D01*
X164252937Y-106577774D01*
X164366205Y-106408256D01*
X164444226Y-106219898D01*
X164484000Y-106019939D01*
X164484000Y-105816061D01*
X164444226Y-105616102D01*
X164366205Y-105427744D01*
X164252937Y-105258226D01*
X164108774Y-105114063D01*
X163969495Y-105021000D01*
X166280869Y-105021000D01*
X167003856Y-105743988D01*
X167133377Y-105850283D01*
X167330553Y-105955676D01*
X167544501Y-106020577D01*
X167767000Y-106042491D01*
X167989498Y-106020577D01*
X168203446Y-105955676D01*
X168400622Y-105850283D01*
X168573448Y-105708448D01*
X168715283Y-105535622D01*
X168820676Y-105338446D01*
X168885577Y-105124498D01*
X168907491Y-104902000D01*
X168885577Y-104679501D01*
X168820676Y-104465553D01*
X168715283Y-104268377D01*
X168608988Y-104138856D01*
X167592996Y-103122864D01*
X167557449Y-103079551D01*
X167384623Y-102937716D01*
X167187447Y-102832324D01*
X166973499Y-102767423D01*
X166806752Y-102751000D01*
X166806751Y-102751000D01*
X166751000Y-102745509D01*
X166695249Y-102751000D01*
X158488000Y-102751000D01*
X158488000Y-96448751D01*
X158493491Y-96392999D01*
X158471577Y-96170501D01*
X158406676Y-95956553D01*
X158379609Y-95905914D01*
X158301284Y-95759377D01*
X158159449Y-95586551D01*
X158116140Y-95551009D01*
X157232133Y-94667001D01*
X157315132Y-94584002D01*
X164973000Y-94584002D01*
X164973000Y-95250000D01*
X164975440Y-95274776D01*
X164982667Y-95298601D01*
X164994403Y-95320557D01*
X165010197Y-95339803D01*
X165029443Y-95355597D01*
X165051399Y-95367333D01*
X165075224Y-95374560D01*
X165100000Y-95377000D01*
X170109142Y-95377000D01*
X170008552Y-95459552D01*
X169866717Y-95632378D01*
X169761324Y-95829554D01*
X169696423Y-96043502D01*
X169674509Y-96266000D01*
X169696423Y-96488498D01*
X169761324Y-96702446D01*
X169866717Y-96899622D01*
X169973012Y-97029143D01*
X170290001Y-97346132D01*
X170290000Y-100934248D01*
X170284509Y-100990000D01*
X170290000Y-101045751D01*
X170306423Y-101212498D01*
X170371324Y-101426446D01*
X170476716Y-101623623D01*
X170618551Y-101796449D01*
X170791377Y-101938284D01*
X170988553Y-102043676D01*
X171202501Y-102108577D01*
X171425000Y-102130491D01*
X171647498Y-102108577D01*
X171675772Y-102100000D01*
X177935000Y-102100000D01*
X177935000Y-102814248D01*
X177929509Y-102870000D01*
X177938311Y-102959365D01*
X177951423Y-103092498D01*
X178016324Y-103306446D01*
X178121716Y-103503623D01*
X178263551Y-103676449D01*
X178306865Y-103711996D01*
X179498008Y-104903140D01*
X179533551Y-104946449D01*
X179706377Y-105088284D01*
X179903553Y-105193676D01*
X180060168Y-105241185D01*
X180117500Y-105258577D01*
X180138493Y-105260644D01*
X180284248Y-105275000D01*
X180284255Y-105275000D01*
X180339999Y-105280490D01*
X180395743Y-105275000D01*
X181030752Y-105275000D01*
X181197499Y-105258577D01*
X181411447Y-105193676D01*
X181608623Y-105088284D01*
X181781449Y-104946449D01*
X181923284Y-104773623D01*
X182028676Y-104576447D01*
X182093577Y-104362499D01*
X182115491Y-104140000D01*
X182106468Y-104048387D01*
X182132238Y-104027238D01*
X182224087Y-103915320D01*
X182254835Y-103857795D01*
X182292337Y-103787634D01*
X182334365Y-103649085D01*
X182348556Y-103505000D01*
X182345000Y-103468895D01*
X182345000Y-102539446D01*
X182454447Y-102430000D01*
X183694049Y-102430000D01*
X183834111Y-102523586D01*
X184004271Y-102594068D01*
X184170001Y-102627034D01*
X184170001Y-104010000D01*
X183216335Y-104010000D01*
X183034898Y-104027870D01*
X182802099Y-104098489D01*
X182587551Y-104213167D01*
X182399498Y-104367498D01*
X182245167Y-104555551D01*
X182130489Y-104770099D01*
X182059870Y-105002898D01*
X182036025Y-105245000D01*
X182059870Y-105487102D01*
X182130489Y-105719901D01*
X182245167Y-105934449D01*
X182399498Y-106122502D01*
X182587551Y-106276833D01*
X182802099Y-106391511D01*
X183034898Y-106462130D01*
X183216335Y-106480000D01*
X184437665Y-106480000D01*
X184619102Y-106462130D01*
X184851901Y-106391511D01*
X185066449Y-106276833D01*
X185254502Y-106122502D01*
X185408833Y-105934449D01*
X185523511Y-105719901D01*
X185594130Y-105487102D01*
X185617975Y-105245000D01*
X185596307Y-105025000D01*
X187088928Y-105025000D01*
X187088928Y-105215525D01*
X187086025Y-105245000D01*
X187109870Y-105487102D01*
X187180489Y-105719901D01*
X187295167Y-105934449D01*
X187449498Y-106122502D01*
X187637551Y-106276833D01*
X187852099Y-106391511D01*
X188084898Y-106462130D01*
X188266335Y-106480000D01*
X189487665Y-106480000D01*
X189669102Y-106462130D01*
X189901901Y-106391511D01*
X189979147Y-106350222D01*
X189968911Y-130175000D01*
X189887109Y-130175000D01*
X189831524Y-129895554D01*
X189595201Y-129325021D01*
X189252114Y-128811554D01*
X188815446Y-128374886D01*
X188301979Y-128031799D01*
X187731446Y-127795476D01*
X187125771Y-127675000D01*
X186508229Y-127675000D01*
X185902554Y-127795476D01*
X185332021Y-128031799D01*
X184818554Y-128374886D01*
X184381886Y-128811554D01*
X184038799Y-129325021D01*
X183802476Y-129895554D01*
X183682000Y-130501229D01*
X183682000Y-131118771D01*
X183802476Y-131724446D01*
X184038799Y-132294979D01*
X184381886Y-132808446D01*
X184818554Y-133245114D01*
X185332021Y-133588201D01*
X185902554Y-133824524D01*
X186457956Y-133935000D01*
X103505000Y-133935000D01*
X103505000Y-133905371D01*
X103911446Y-133824524D01*
X104481979Y-133588201D01*
X104995446Y-133245114D01*
X105432114Y-132808446D01*
X105775201Y-132294979D01*
X106011524Y-131724446D01*
X106132000Y-131118771D01*
X106132000Y-130501229D01*
X106011524Y-129895554D01*
X105775201Y-129325021D01*
X105432114Y-128811554D01*
X104995446Y-128374886D01*
X104481979Y-128031799D01*
X103911446Y-127795476D01*
X103305771Y-127675000D01*
X102688229Y-127675000D01*
X102082554Y-127795476D01*
X101512021Y-128031799D01*
X100998554Y-128374886D01*
X100561886Y-128811554D01*
X100218799Y-129325021D01*
X99982476Y-129895554D01*
X99876367Y-130429000D01*
X99872000Y-130429000D01*
X99872000Y-120928212D01*
X109977000Y-120928212D01*
X109977000Y-121151788D01*
X110020617Y-121371067D01*
X110106176Y-121577624D01*
X110230388Y-121763520D01*
X110388480Y-121921612D01*
X110574376Y-122045824D01*
X110780933Y-122131383D01*
X111000212Y-122175000D01*
X111223788Y-122175000D01*
X111443067Y-122131383D01*
X111649624Y-122045824D01*
X111835520Y-121921612D01*
X111993612Y-121763520D01*
X112117824Y-121577624D01*
X112203383Y-121371067D01*
X112247000Y-121151788D01*
X112247000Y-120928212D01*
X120417000Y-120928212D01*
X120417000Y-121151788D01*
X120460617Y-121371067D01*
X120546176Y-121577624D01*
X120670388Y-121763520D01*
X120828480Y-121921612D01*
X121014376Y-122045824D01*
X121220933Y-122131383D01*
X121440212Y-122175000D01*
X121663788Y-122175000D01*
X121883067Y-122131383D01*
X122089624Y-122045824D01*
X122275520Y-121921612D01*
X122433612Y-121763520D01*
X122557824Y-121577624D01*
X122643383Y-121371067D01*
X122687000Y-121151788D01*
X122687000Y-120928212D01*
X129027000Y-120928212D01*
X129027000Y-121151788D01*
X129070617Y-121371067D01*
X129156176Y-121577624D01*
X129280388Y-121763520D01*
X129438480Y-121921612D01*
X129624376Y-122045824D01*
X129830933Y-122131383D01*
X130050212Y-122175000D01*
X130273788Y-122175000D01*
X130493067Y-122131383D01*
X130699624Y-122045824D01*
X130885520Y-121921612D01*
X131043612Y-121763520D01*
X131167824Y-121577624D01*
X131253383Y-121371067D01*
X131297000Y-121151788D01*
X131297000Y-120928212D01*
X139467000Y-120928212D01*
X139467000Y-121151788D01*
X139510617Y-121371067D01*
X139596176Y-121577624D01*
X139720388Y-121763520D01*
X139878480Y-121921612D01*
X140064376Y-122045824D01*
X140270933Y-122131383D01*
X140490212Y-122175000D01*
X140713788Y-122175000D01*
X140933067Y-122131383D01*
X141139624Y-122045824D01*
X141325520Y-121921612D01*
X141483612Y-121763520D01*
X141607824Y-121577624D01*
X141693383Y-121371067D01*
X141737000Y-121151788D01*
X141737000Y-120928212D01*
X148077000Y-120928212D01*
X148077000Y-121151788D01*
X148120617Y-121371067D01*
X148206176Y-121577624D01*
X148330388Y-121763520D01*
X148488480Y-121921612D01*
X148674376Y-122045824D01*
X148880933Y-122131383D01*
X149100212Y-122175000D01*
X149323788Y-122175000D01*
X149543067Y-122131383D01*
X149749624Y-122045824D01*
X149935520Y-121921612D01*
X150093612Y-121763520D01*
X150217824Y-121577624D01*
X150303383Y-121371067D01*
X150347000Y-121151788D01*
X150347000Y-120928212D01*
X158517000Y-120928212D01*
X158517000Y-121151788D01*
X158560617Y-121371067D01*
X158646176Y-121577624D01*
X158770388Y-121763520D01*
X158928480Y-121921612D01*
X159114376Y-122045824D01*
X159320933Y-122131383D01*
X159540212Y-122175000D01*
X159763788Y-122175000D01*
X159983067Y-122131383D01*
X160189624Y-122045824D01*
X160375520Y-121921612D01*
X160533612Y-121763520D01*
X160657824Y-121577624D01*
X160743383Y-121371067D01*
X160787000Y-121151788D01*
X160787000Y-120928212D01*
X167127000Y-120928212D01*
X167127000Y-121151788D01*
X167170617Y-121371067D01*
X167256176Y-121577624D01*
X167380388Y-121763520D01*
X167538480Y-121921612D01*
X167724376Y-122045824D01*
X167930933Y-122131383D01*
X168150212Y-122175000D01*
X168373788Y-122175000D01*
X168593067Y-122131383D01*
X168799624Y-122045824D01*
X168985520Y-121921612D01*
X169143612Y-121763520D01*
X169267824Y-121577624D01*
X169353383Y-121371067D01*
X169397000Y-121151788D01*
X169397000Y-120928212D01*
X177567000Y-120928212D01*
X177567000Y-121151788D01*
X177610617Y-121371067D01*
X177696176Y-121577624D01*
X177820388Y-121763520D01*
X177978480Y-121921612D01*
X178164376Y-122045824D01*
X178370933Y-122131383D01*
X178590212Y-122175000D01*
X178813788Y-122175000D01*
X179033067Y-122131383D01*
X179239624Y-122045824D01*
X179425520Y-121921612D01*
X179583612Y-121763520D01*
X179707824Y-121577624D01*
X179793383Y-121371067D01*
X179837000Y-121151788D01*
X179837000Y-120928212D01*
X179793383Y-120708933D01*
X179707824Y-120502376D01*
X179583612Y-120316480D01*
X179425520Y-120158388D01*
X179239624Y-120034176D01*
X179033067Y-119948617D01*
X178813788Y-119905000D01*
X178590212Y-119905000D01*
X178370933Y-119948617D01*
X178164376Y-120034176D01*
X177978480Y-120158388D01*
X177820388Y-120316480D01*
X177696176Y-120502376D01*
X177610617Y-120708933D01*
X177567000Y-120928212D01*
X169397000Y-120928212D01*
X169353383Y-120708933D01*
X169267824Y-120502376D01*
X169143612Y-120316480D01*
X168985520Y-120158388D01*
X168799624Y-120034176D01*
X168593067Y-119948617D01*
X168373788Y-119905000D01*
X168150212Y-119905000D01*
X167930933Y-119948617D01*
X167724376Y-120034176D01*
X167538480Y-120158388D01*
X167380388Y-120316480D01*
X167256176Y-120502376D01*
X167170617Y-120708933D01*
X167127000Y-120928212D01*
X160787000Y-120928212D01*
X160743383Y-120708933D01*
X160657824Y-120502376D01*
X160533612Y-120316480D01*
X160375520Y-120158388D01*
X160189624Y-120034176D01*
X159983067Y-119948617D01*
X159763788Y-119905000D01*
X159540212Y-119905000D01*
X159320933Y-119948617D01*
X159114376Y-120034176D01*
X158928480Y-120158388D01*
X158770388Y-120316480D01*
X158646176Y-120502376D01*
X158560617Y-120708933D01*
X158517000Y-120928212D01*
X150347000Y-120928212D01*
X150303383Y-120708933D01*
X150217824Y-120502376D01*
X150093612Y-120316480D01*
X149935520Y-120158388D01*
X149749624Y-120034176D01*
X149543067Y-119948617D01*
X149323788Y-119905000D01*
X149100212Y-119905000D01*
X148880933Y-119948617D01*
X148674376Y-120034176D01*
X148488480Y-120158388D01*
X148330388Y-120316480D01*
X148206176Y-120502376D01*
X148120617Y-120708933D01*
X148077000Y-120928212D01*
X141737000Y-120928212D01*
X141693383Y-120708933D01*
X141607824Y-120502376D01*
X141483612Y-120316480D01*
X141325520Y-120158388D01*
X141139624Y-120034176D01*
X140933067Y-119948617D01*
X140713788Y-119905000D01*
X140490212Y-119905000D01*
X140270933Y-119948617D01*
X140064376Y-120034176D01*
X139878480Y-120158388D01*
X139720388Y-120316480D01*
X139596176Y-120502376D01*
X139510617Y-120708933D01*
X139467000Y-120928212D01*
X131297000Y-120928212D01*
X131253383Y-120708933D01*
X131167824Y-120502376D01*
X131043612Y-120316480D01*
X130885520Y-120158388D01*
X130699624Y-120034176D01*
X130493067Y-119948617D01*
X130273788Y-119905000D01*
X130050212Y-119905000D01*
X129830933Y-119948617D01*
X129624376Y-120034176D01*
X129438480Y-120158388D01*
X129280388Y-120316480D01*
X129156176Y-120502376D01*
X129070617Y-120708933D01*
X129027000Y-120928212D01*
X122687000Y-120928212D01*
X122643383Y-120708933D01*
X122557824Y-120502376D01*
X122433612Y-120316480D01*
X122275520Y-120158388D01*
X122089624Y-120034176D01*
X121883067Y-119948617D01*
X121663788Y-119905000D01*
X121440212Y-119905000D01*
X121220933Y-119948617D01*
X121014376Y-120034176D01*
X120828480Y-120158388D01*
X120670388Y-120316480D01*
X120546176Y-120502376D01*
X120460617Y-120708933D01*
X120417000Y-120928212D01*
X112247000Y-120928212D01*
X112203383Y-120708933D01*
X112117824Y-120502376D01*
X111993612Y-120316480D01*
X111835520Y-120158388D01*
X111649624Y-120034176D01*
X111443067Y-119948617D01*
X111223788Y-119905000D01*
X111000212Y-119905000D01*
X110780933Y-119948617D01*
X110574376Y-120034176D01*
X110388480Y-120158388D01*
X110230388Y-120316480D01*
X110106176Y-120502376D01*
X110020617Y-120708933D01*
X109977000Y-120928212D01*
X99872000Y-120928212D01*
X99872000Y-100228061D01*
X125584000Y-100228061D01*
X125584000Y-100431939D01*
X125623774Y-100631898D01*
X125701795Y-100820256D01*
X125815063Y-100989774D01*
X125959226Y-101133937D01*
X126128744Y-101247205D01*
X126317102Y-101325226D01*
X126517061Y-101365000D01*
X126720939Y-101365000D01*
X126920898Y-101325226D01*
X127109256Y-101247205D01*
X127278774Y-101133937D01*
X127347711Y-101065000D01*
X132188000Y-101065000D01*
X132188000Y-101193939D01*
X132227774Y-101393898D01*
X132305795Y-101582256D01*
X132419063Y-101751774D01*
X132563226Y-101895937D01*
X132732744Y-102009205D01*
X132921102Y-102087226D01*
X133121061Y-102127000D01*
X133324939Y-102127000D01*
X133524898Y-102087226D01*
X133713256Y-102009205D01*
X133882774Y-101895937D01*
X133951711Y-101827000D01*
X145194289Y-101827000D01*
X145263226Y-101895937D01*
X145432744Y-102009205D01*
X145621102Y-102087226D01*
X145821061Y-102127000D01*
X146024939Y-102127000D01*
X146224898Y-102087226D01*
X146413256Y-102009205D01*
X146582774Y-101895937D01*
X146726937Y-101751774D01*
X146840205Y-101582256D01*
X146918226Y-101393898D01*
X146958000Y-101193939D01*
X146958000Y-100990061D01*
X146918226Y-100790102D01*
X146840205Y-100601744D01*
X146726937Y-100432226D01*
X146582774Y-100288063D01*
X146413256Y-100174795D01*
X146224898Y-100096774D01*
X146024939Y-100057000D01*
X145821061Y-100057000D01*
X145621102Y-100096774D01*
X145432744Y-100174795D01*
X145263226Y-100288063D01*
X145194289Y-100357000D01*
X140608000Y-100357000D01*
X140608000Y-100228061D01*
X140568226Y-100028102D01*
X140490205Y-99839744D01*
X140376937Y-99670226D01*
X140232774Y-99526063D01*
X140063256Y-99412795D01*
X139874898Y-99334774D01*
X139674939Y-99295000D01*
X139471061Y-99295000D01*
X139271102Y-99334774D01*
X139082744Y-99412795D01*
X138913226Y-99526063D01*
X138844289Y-99595000D01*
X127347711Y-99595000D01*
X127278774Y-99526063D01*
X127109256Y-99412795D01*
X126920898Y-99334774D01*
X126720939Y-99295000D01*
X126517061Y-99295000D01*
X126317102Y-99334774D01*
X126128744Y-99412795D01*
X125959226Y-99526063D01*
X125815063Y-99670226D01*
X125701795Y-99839744D01*
X125623774Y-100028102D01*
X125584000Y-100228061D01*
X99872000Y-100228061D01*
X99872000Y-96940000D01*
X114208928Y-96940000D01*
X114208928Y-98640000D01*
X114221188Y-98764482D01*
X114257498Y-98884180D01*
X114316463Y-98994494D01*
X114395815Y-99091185D01*
X114492506Y-99170537D01*
X114602820Y-99229502D01*
X114722518Y-99265812D01*
X114847000Y-99278072D01*
X116547000Y-99278072D01*
X116671482Y-99265812D01*
X116791180Y-99229502D01*
X116901494Y-99170537D01*
X116998185Y-99091185D01*
X117077537Y-98994494D01*
X117136502Y-98884180D01*
X117158513Y-98811620D01*
X117290368Y-98943475D01*
X117533589Y-99105990D01*
X117803842Y-99217932D01*
X118090740Y-99275000D01*
X118383260Y-99275000D01*
X118670158Y-99217932D01*
X118940411Y-99105990D01*
X119183632Y-98943475D01*
X119390475Y-98736632D01*
X119512195Y-98554466D01*
X119581822Y-98671355D01*
X119776731Y-98887588D01*
X120010080Y-99061641D01*
X120272901Y-99186825D01*
X120420110Y-99231476D01*
X120650000Y-99110155D01*
X120650000Y-97917000D01*
X120904000Y-97917000D01*
X120904000Y-99110155D01*
X121133890Y-99231476D01*
X121281099Y-99186825D01*
X121543920Y-99061641D01*
X121777269Y-98887588D01*
X121972178Y-98671355D01*
X122047000Y-98545745D01*
X122121822Y-98671355D01*
X122316731Y-98887588D01*
X122550080Y-99061641D01*
X122812901Y-99186825D01*
X122960110Y-99231476D01*
X123190000Y-99110155D01*
X123190000Y-97917000D01*
X120904000Y-97917000D01*
X120650000Y-97917000D01*
X120630000Y-97917000D01*
X120630000Y-97663000D01*
X120650000Y-97663000D01*
X120650000Y-97643000D01*
X120904000Y-97643000D01*
X120904000Y-97663000D01*
X123190000Y-97663000D01*
X123190000Y-97643000D01*
X123444000Y-97643000D01*
X123444000Y-97663000D01*
X123464000Y-97663000D01*
X123464000Y-97917000D01*
X123444000Y-97917000D01*
X123444000Y-99110155D01*
X123673890Y-99231476D01*
X123821099Y-99186825D01*
X124083920Y-99061641D01*
X124317269Y-98887588D01*
X124512178Y-98671355D01*
X124581805Y-98554466D01*
X124703525Y-98736632D01*
X124910368Y-98943475D01*
X125153589Y-99105990D01*
X125423842Y-99217932D01*
X125710740Y-99275000D01*
X126003260Y-99275000D01*
X126290158Y-99217932D01*
X126560411Y-99105990D01*
X126803632Y-98943475D01*
X127010475Y-98736632D01*
X127127000Y-98562240D01*
X127243525Y-98736632D01*
X127450368Y-98943475D01*
X127693589Y-99105990D01*
X127963842Y-99217932D01*
X128250740Y-99275000D01*
X128543260Y-99275000D01*
X128830158Y-99217932D01*
X129100411Y-99105990D01*
X129343632Y-98943475D01*
X129550475Y-98736632D01*
X129667000Y-98562240D01*
X129783525Y-98736632D01*
X129990368Y-98943475D01*
X130233589Y-99105990D01*
X130503842Y-99217932D01*
X130790740Y-99275000D01*
X131083260Y-99275000D01*
X131370158Y-99217932D01*
X131640411Y-99105990D01*
X131883632Y-98943475D01*
X132090475Y-98736632D01*
X132207000Y-98562240D01*
X132323525Y-98736632D01*
X132530368Y-98943475D01*
X132773589Y-99105990D01*
X133043842Y-99217932D01*
X133330740Y-99275000D01*
X133623260Y-99275000D01*
X133910158Y-99217932D01*
X134180411Y-99105990D01*
X134423632Y-98943475D01*
X134630475Y-98736632D01*
X134747000Y-98562240D01*
X134863525Y-98736632D01*
X135070368Y-98943475D01*
X135313589Y-99105990D01*
X135583842Y-99217932D01*
X135870740Y-99275000D01*
X136163260Y-99275000D01*
X136450158Y-99217932D01*
X136720411Y-99105990D01*
X136963632Y-98943475D01*
X137170475Y-98736632D01*
X137287000Y-98562240D01*
X137403525Y-98736632D01*
X137610368Y-98943475D01*
X137853589Y-99105990D01*
X138123842Y-99217932D01*
X138410740Y-99275000D01*
X138703260Y-99275000D01*
X138990158Y-99217932D01*
X139260411Y-99105990D01*
X139503632Y-98943475D01*
X139710475Y-98736632D01*
X139827000Y-98562240D01*
X139943525Y-98736632D01*
X140150368Y-98943475D01*
X140393589Y-99105990D01*
X140663842Y-99217932D01*
X140950740Y-99275000D01*
X141243260Y-99275000D01*
X141530158Y-99217932D01*
X141800411Y-99105990D01*
X142043632Y-98943475D01*
X142250475Y-98736632D01*
X142367000Y-98562240D01*
X142483525Y-98736632D01*
X142690368Y-98943475D01*
X142933589Y-99105990D01*
X143203842Y-99217932D01*
X143490740Y-99275000D01*
X143783260Y-99275000D01*
X144070158Y-99217932D01*
X144340411Y-99105990D01*
X144583632Y-98943475D01*
X144790475Y-98736632D01*
X144952990Y-98493411D01*
X145064932Y-98223158D01*
X145122000Y-97936260D01*
X145122000Y-97643740D01*
X145064932Y-97356842D01*
X144952990Y-97086589D01*
X144790475Y-96843368D01*
X144583632Y-96636525D01*
X144340411Y-96474010D01*
X144070158Y-96362068D01*
X143783260Y-96305000D01*
X143490740Y-96305000D01*
X143203842Y-96362068D01*
X142933589Y-96474010D01*
X142690368Y-96636525D01*
X142483525Y-96843368D01*
X142367000Y-97017760D01*
X142250475Y-96843368D01*
X142043632Y-96636525D01*
X141800411Y-96474010D01*
X141530158Y-96362068D01*
X141243260Y-96305000D01*
X140950740Y-96305000D01*
X140663842Y-96362068D01*
X140393589Y-96474010D01*
X140150368Y-96636525D01*
X139943525Y-96843368D01*
X139827000Y-97017760D01*
X139710475Y-96843368D01*
X139503632Y-96636525D01*
X139260411Y-96474010D01*
X138990158Y-96362068D01*
X138703260Y-96305000D01*
X138410740Y-96305000D01*
X138123842Y-96362068D01*
X137853589Y-96474010D01*
X137610368Y-96636525D01*
X137403525Y-96843368D01*
X137287000Y-97017760D01*
X137170475Y-96843368D01*
X136963632Y-96636525D01*
X136720411Y-96474010D01*
X136450158Y-96362068D01*
X136163260Y-96305000D01*
X135870740Y-96305000D01*
X135583842Y-96362068D01*
X135313589Y-96474010D01*
X135070368Y-96636525D01*
X134863525Y-96843368D01*
X134747000Y-97017760D01*
X134630475Y-96843368D01*
X134423632Y-96636525D01*
X134180411Y-96474010D01*
X133910158Y-96362068D01*
X133623260Y-96305000D01*
X133330740Y-96305000D01*
X133043842Y-96362068D01*
X132773589Y-96474010D01*
X132530368Y-96636525D01*
X132323525Y-96843368D01*
X132207000Y-97017760D01*
X132090475Y-96843368D01*
X131883632Y-96636525D01*
X131640411Y-96474010D01*
X131370158Y-96362068D01*
X131083260Y-96305000D01*
X130790740Y-96305000D01*
X130503842Y-96362068D01*
X130402000Y-96404252D01*
X130402000Y-89628711D01*
X130470937Y-89559774D01*
X130584205Y-89390256D01*
X130662226Y-89201898D01*
X130702000Y-89001939D01*
X130702000Y-88798061D01*
X130662226Y-88598102D01*
X130584205Y-88409744D01*
X130470937Y-88240226D01*
X130326774Y-88096063D01*
X130157256Y-87982795D01*
X129968898Y-87904774D01*
X129768939Y-87865000D01*
X129565061Y-87865000D01*
X129365102Y-87904774D01*
X129176744Y-87982795D01*
X129159000Y-87994651D01*
X129141256Y-87982795D01*
X128952898Y-87904774D01*
X128752939Y-87865000D01*
X128549061Y-87865000D01*
X128349102Y-87904774D01*
X128160744Y-87982795D01*
X128143000Y-87994651D01*
X128125256Y-87982795D01*
X127936898Y-87904774D01*
X127736939Y-87865000D01*
X127533061Y-87865000D01*
X127333102Y-87904774D01*
X127144744Y-87982795D01*
X126975226Y-88096063D01*
X126831063Y-88240226D01*
X126717795Y-88409744D01*
X126639774Y-88598102D01*
X126600000Y-88798061D01*
X126600000Y-89001939D01*
X126639774Y-89201898D01*
X126717795Y-89390256D01*
X126831063Y-89559774D01*
X126900000Y-89628711D01*
X126900001Y-94945552D01*
X126822554Y-95023000D01*
X120305094Y-95023000D01*
X120268999Y-95019445D01*
X120232904Y-95023000D01*
X120232895Y-95023000D01*
X120124915Y-95033635D01*
X119986367Y-95075663D01*
X119858680Y-95143913D01*
X119746762Y-95235762D01*
X119723746Y-95263807D01*
X118832430Y-96155123D01*
X118825510Y-96155805D01*
X118658686Y-96206412D01*
X118504941Y-96288589D01*
X118465107Y-96321280D01*
X118383260Y-96305000D01*
X118090740Y-96305000D01*
X117803842Y-96362068D01*
X117533589Y-96474010D01*
X117290368Y-96636525D01*
X117158513Y-96768380D01*
X117136502Y-96695820D01*
X117077537Y-96585506D01*
X116998185Y-96488815D01*
X116901494Y-96409463D01*
X116791180Y-96350498D01*
X116671482Y-96314188D01*
X116547000Y-96301928D01*
X114847000Y-96301928D01*
X114722518Y-96314188D01*
X114602820Y-96350498D01*
X114492506Y-96409463D01*
X114395815Y-96488815D01*
X114316463Y-96585506D01*
X114257498Y-96695820D01*
X114221188Y-96815518D01*
X114208928Y-96940000D01*
X99872000Y-96940000D01*
X99872000Y-82909044D01*
X99982476Y-83464446D01*
X100218799Y-84034979D01*
X100561886Y-84548446D01*
X100998554Y-84985114D01*
X101512021Y-85328201D01*
X102082554Y-85564524D01*
X102688229Y-85685000D01*
X103305771Y-85685000D01*
X103911446Y-85564524D01*
X104481979Y-85328201D01*
X104995446Y-84985114D01*
X105432114Y-84548446D01*
X105775201Y-84034979D01*
X106011524Y-83464446D01*
X106132000Y-82858771D01*
X106132000Y-82241229D01*
X106011524Y-81635554D01*
X105916854Y-81407000D01*
X114283593Y-81407000D01*
X114257498Y-81455820D01*
G36*
X156218001Y-96863133D02*
G01*
X156218000Y-103830248D01*
X156212509Y-103886000D01*
X156234423Y-104108499D01*
X156299324Y-104322447D01*
X156404716Y-104519623D01*
X156546551Y-104692449D01*
X156719377Y-104834284D01*
X156916553Y-104939676D01*
X157130501Y-105004577D01*
X157240898Y-105015450D01*
X157353000Y-105026491D01*
X157408751Y-105021000D01*
X162928505Y-105021000D01*
X162789226Y-105114063D01*
X162645063Y-105258226D01*
X162531795Y-105427744D01*
X162453774Y-105616102D01*
X162414000Y-105816061D01*
X162414000Y-105945000D01*
X155802000Y-105945000D01*
X155802000Y-96810105D01*
X155805556Y-96774000D01*
X155791365Y-96629914D01*
X155768975Y-96556105D01*
X155749337Y-96491367D01*
X155681087Y-96363680D01*
X155589238Y-96251762D01*
X155561193Y-96228746D01*
X155057446Y-95725000D01*
X155079869Y-95725000D01*
X156218001Y-96863133D01*
G37*
X156218001Y-96863133D02*
X156218000Y-103830248D01*
X156212509Y-103886000D01*
X156234423Y-104108499D01*
X156299324Y-104322447D01*
X156404716Y-104519623D01*
X156546551Y-104692449D01*
X156719377Y-104834284D01*
X156916553Y-104939676D01*
X157130501Y-105004577D01*
X157240898Y-105015450D01*
X157353000Y-105026491D01*
X157408751Y-105021000D01*
X162928505Y-105021000D01*
X162789226Y-105114063D01*
X162645063Y-105258226D01*
X162531795Y-105427744D01*
X162453774Y-105616102D01*
X162414000Y-105816061D01*
X162414000Y-105945000D01*
X155802000Y-105945000D01*
X155802000Y-96810105D01*
X155805556Y-96774000D01*
X155791365Y-96629914D01*
X155768975Y-96556105D01*
X155749337Y-96491367D01*
X155681087Y-96363680D01*
X155589238Y-96251762D01*
X155561193Y-96228746D01*
X155057446Y-95725000D01*
X155079869Y-95725000D01*
X156218001Y-96863133D01*
G36*
X177929509Y-95526998D02*
G01*
X177935001Y-95582759D01*
X177935000Y-99830000D01*
X172560000Y-99830000D01*
X172560000Y-96931741D01*
X172565490Y-96875999D01*
X172560000Y-96820257D01*
X172560000Y-96820248D01*
X172543577Y-96653501D01*
X172478676Y-96439553D01*
X172373284Y-96242377D01*
X172231449Y-96069551D01*
X172188135Y-96034004D01*
X171578143Y-95424012D01*
X171520859Y-95377000D01*
X177944282Y-95377000D01*
X177929509Y-95526998D01*
G37*
X177929509Y-95526998D02*
X177935001Y-95582759D01*
X177935000Y-99830000D01*
X172560000Y-99830000D01*
X172560000Y-96931741D01*
X172565490Y-96875999D01*
X172560000Y-96820257D01*
X172560000Y-96820248D01*
X172543577Y-96653501D01*
X172478676Y-96439553D01*
X172373284Y-96242377D01*
X172231449Y-96069551D01*
X172188135Y-96034004D01*
X171578143Y-95424012D01*
X171520859Y-95377000D01*
X177944282Y-95377000D01*
X177929509Y-95526998D01*
G04 #@! TO.N,+5V*
G36*
X166243000Y-80518000D02*
G01*
X115062000Y-80518000D01*
X115062000Y-79425000D01*
X166243000Y-79425000D01*
X166243000Y-80518000D01*
G37*
X166243000Y-80518000D02*
X115062000Y-80518000D01*
X115062000Y-79425000D01*
X166243000Y-79425000D01*
X166243000Y-80518000D01*
G04 #@! TO.N,GNDPWR*
G36*
X114173000Y-81788000D02*
G01*
X106041847Y-81788000D01*
X106011524Y-81635554D01*
X105775201Y-81065021D01*
X105432114Y-80551554D01*
X104995446Y-80114886D01*
X104481979Y-79771799D01*
X103911446Y-79535476D01*
X103356044Y-79425000D01*
X114173000Y-79425000D01*
X114173000Y-81788000D01*
G37*
X114173000Y-81788000D02*
X106041847Y-81788000D01*
X106011524Y-81635554D01*
X105775201Y-81065021D01*
X105432114Y-80551554D01*
X104995446Y-80114886D01*
X104481979Y-79771799D01*
X103911446Y-79535476D01*
X103356044Y-79425000D01*
X114173000Y-79425000D01*
X114173000Y-81788000D01*
G04 #@! TD*
M02*
