<?xml version="1.0" encoding="utf-8"?>
<!-- Generator: Adobe Illustrator 24.2.0, SVG Export Plug-In . SVG Version: 6.00 Build 0)  -->
<svg version="1.1" xmlns="http://www.w3.org/2000/svg" xmlns:xlink="http://www.w3.org/1999/xlink" x="0px" y="0px"
	 viewBox="0 0 1237 781" style="enable-background:new 0 0 1237 781;" xml:space="preserve">
<style type="text/css">
	.st0{display:none;}
	.st1{fill:#F5EEF0;}
	.st2{fill:#333333;}
	.st3{fill:#FFFFFF;}
	.st4{fill:#FFFFFF;stroke:#333333;stroke-width:2;stroke-miterlimit:10;}
	.st5{fill:#FFFFFF;stroke:#333333;stroke-width:2;stroke-linecap:round;stroke-linejoin:round;stroke-miterlimit:10;}
	.st6{opacity:0.95;fill:#FFFFFF;}
</style>
<g id="レイヤー_1" class="st0">
	
		<image style="display:inline;overflow:visible;" width="1709" height="982" xlink:href="name_card_keyboard.png"  transform="matrix(1 0 0 1 -232 -101)">
	</image>
</g>
<g id="レイヤー_3">
	<g>
		<path class="st1" d="M29,749.5c-0.6,0-1-0.4-1-1V31.1c0-0.6,0.4-1,1-1h1187c0.6,0,1,0.4,1,1v717.4c0,0.6-0.4,1-1,1H29z"/>
		<path class="st2" d="M1216,31.1v717.4H29V31.1H1216 M1216,29.1H29c-1.1,0-2,0.9-2,2v717.4c0,1.1,0.9,2,2,2h1187c1.1,0,2-0.9,2-2
			V31.1C1218,30,1217.1,29.1,1216,29.1L1216,29.1z"/>
	</g>
</g>
<g id="レイヤー_2">
	<g>
		<path class="st3" d="M138,629.8c-0.6,0-1-0.4-1-1v-216c0-0.6,0.4-1,1-1h216c0.6,0,1,0.4,1,1v216c0,0.6-0.4,1-1,1H138z"/>
		<path class="st2" d="M354,412.8v216H138v-216H354 M354,410.8H138c-1.1,0-2,0.9-2,2v216c0,1.1,0.9,2,2,2h216c1.1,0,2-0.9,2-2v-216
			C356,411.6,355.1,410.8,354,410.8L354,410.8z"/>
	</g>
	<g>
		<path class="st3" d="M389.3,629.8c-0.6,0-1-0.4-1-1v-216c0-0.6,0.4-1,1-1h216c0.6,0,1,0.4,1,1v216c0,0.6-0.4,1-1,1H389.3z"/>
		<path class="st2" d="M605.3,412.8v216h-216v-216H605.3 M605.3,410.8h-216c-1.1,0-2,0.9-2,2v216c0,1.1,0.9,2,2,2h216
			c1.1,0,2-0.9,2-2v-216C607.3,411.6,606.4,410.8,605.3,410.8L605.3,410.8z"/>
	</g>
	<g>
		<path class="st3" d="M640.7,629.8c-0.6,0-1-0.4-1-1v-216c0-0.6,0.4-1,1-1h216c0.6,0,1,0.4,1,1v216c0,0.6-0.4,1-1,1H640.7z"/>
		<path class="st2" d="M856.7,412.8v216h-216v-216H856.7 M856.7,410.8h-216c-1.1,0-2,0.9-2,2v216c0,1.1,0.9,2,2,2h216
			c1.1,0,2-0.9,2-2v-216C858.7,411.6,857.8,410.8,856.7,410.8L856.7,410.8z"/>
	</g>
	<g>
		<path class="st3" d="M892,629.8c-0.6,0-1-0.4-1-1v-216c0-0.6,0.4-1,1-1h216c0.6,0,1,0.4,1,1v216c0,0.6-0.4,1-1,1H892z"/>
		<path class="st2" d="M1108,412.8v216H892v-216H1108 M1108,410.8H892c-1.1,0-2,0.9-2,2v216c0,1.1,0.9,2,2,2h216c1.1,0,2-0.9,2-2
			v-216C1110,411.6,1109.1,410.8,1108,410.8L1108,410.8z"/>
	</g>
	<g>
		<path class="st3" d="M136,292.8c-0.6,0-1-0.4-1-1v-38c0-0.6,0.4-1,1-1h416c0.6,0,1,0.4,1,1v38c0,0.6-0.4,1-1,1H136z"/>
		<path class="st2" d="M552,253.8v38H136v-38H552 M552,251.8H136c-1.1,0-2,0.9-2,2v38c0,1.1,0.9,2,2,2h416c1.1,0,2-0.9,2-2v-38
			C554,252.7,553.1,251.8,552,251.8L552,251.8z"/>
	</g>
	<g>
		<path class="st3" d="M851.1,92.7c-0.6,0-1-0.4-1-1v-38c0-0.6,0.4-1,1-1h212c0.6,0,1,0.4,1,1v38c0,0.6-0.4,1-1,1H851.1z"/>
		<path class="st2" d="M1063.1,53.7v38h-212v-38H1063.1 M1063.1,51.7h-212c-1.1,0-2,0.9-2,2v38c0,1.1,0.9,2,2,2h212c1.1,0,2-0.9,2-2
			v-38C1065.1,52.6,1064.2,51.7,1063.1,51.7L1063.1,51.7z"/>
	</g>
	<g>
		<g>
			<circle class="st3" cx="156.5" cy="272.8" r="6.5"/>
			<path class="st2" d="M156.5,267.3c3,0,5.5,2.5,5.5,5.5s-2.5,5.5-5.5,5.5s-5.5-2.5-5.5-5.5S153.5,267.3,156.5,267.3 M156.5,265.3
				c-4.1,0-7.5,3.4-7.5,7.5s3.4,7.5,7.5,7.5s7.5-3.4,7.5-7.5S160.6,265.3,156.5,265.3L156.5,265.3z"/>
		</g>
		<g>
			<circle class="st3" cx="190.6" cy="272.8" r="6.5"/>
			<path class="st2" d="M190.6,267.3c3,0,5.5,2.5,5.5,5.5s-2.5,5.5-5.5,5.5c-3,0-5.5-2.5-5.5-5.5S187.6,267.3,190.6,267.3
				 M190.6,265.3c-4.1,0-7.5,3.4-7.5,7.5s3.4,7.5,7.5,7.5s7.5-3.4,7.5-7.5S194.7,265.3,190.6,265.3L190.6,265.3z"/>
		</g>
		<g>
			<circle class="st3" cx="224.7" cy="272.8" r="6.5"/>
			<path class="st2" d="M224.7,267.3c3,0,5.5,2.5,5.5,5.5s-2.5,5.5-5.5,5.5c-3,0-5.5-2.5-5.5-5.5S221.6,267.3,224.7,267.3
				 M224.7,265.3c-4.1,0-7.5,3.4-7.5,7.5s3.4,7.5,7.5,7.5s7.5-3.4,7.5-7.5S228.8,265.3,224.7,265.3L224.7,265.3z"/>
		</g>
		<g>
			<circle class="st3" cx="258.8" cy="272.8" r="6.5"/>
			<path class="st2" d="M258.8,267.3c3,0,5.5,2.5,5.5,5.5s-2.5,5.5-5.5,5.5c-3,0-5.5-2.5-5.5-5.5S255.7,267.3,258.8,267.3
				 M258.8,265.3c-4.1,0-7.5,3.4-7.5,7.5s3.4,7.5,7.5,7.5s7.5-3.4,7.5-7.5S262.9,265.3,258.8,265.3L258.8,265.3z"/>
		</g>
		<g>
			<circle class="st3" cx="292.9" cy="272.8" r="6.5"/>
			<path class="st2" d="M292.9,267.3c3,0,5.5,2.5,5.5,5.5s-2.5,5.5-5.5,5.5c-3,0-5.5-2.5-5.5-5.5S289.8,267.3,292.9,267.3
				 M292.9,265.3c-4.1,0-7.5,3.4-7.5,7.5s3.4,7.5,7.5,7.5s7.5-3.4,7.5-7.5S297,265.3,292.9,265.3L292.9,265.3z"/>
		</g>
		<g>
			<circle class="st3" cx="327" cy="272.8" r="6.5"/>
			<path class="st2" d="M327,267.3c3,0,5.5,2.5,5.5,5.5s-2.5,5.5-5.5,5.5c-3,0-5.5-2.5-5.5-5.5S323.9,267.3,327,267.3 M327,265.3
				c-4.1,0-7.5,3.4-7.5,7.5s3.4,7.5,7.5,7.5s7.5-3.4,7.5-7.5S331.1,265.3,327,265.3L327,265.3z"/>
		</g>
		<g>
			<circle class="st3" cx="361" cy="272.8" r="6.5"/>
			<path class="st2" d="M361,267.3c3,0,5.5,2.5,5.5,5.5s-2.5,5.5-5.5,5.5c-3,0-5.5-2.5-5.5-5.5S358,267.3,361,267.3 M361,265.3
				c-4.1,0-7.5,3.4-7.5,7.5s3.4,7.5,7.5,7.5s7.5-3.4,7.5-7.5S365.2,265.3,361,265.3L361,265.3z"/>
		</g>
		<g>
			<circle class="st3" cx="395.1" cy="272.8" r="6.5"/>
			<path class="st2" d="M395.1,267.3c3,0,5.5,2.5,5.5,5.5s-2.5,5.5-5.5,5.5c-3,0-5.5-2.5-5.5-5.5S392.1,267.3,395.1,267.3
				 M395.1,265.3c-4.1,0-7.5,3.4-7.5,7.5s3.4,7.5,7.5,7.5s7.5-3.4,7.5-7.5S399.3,265.3,395.1,265.3L395.1,265.3z"/>
		</g>
		<g>
			<circle class="st3" cx="429.2" cy="272.8" r="6.5"/>
			<path class="st2" d="M429.2,267.3c3,0,5.5,2.5,5.5,5.5s-2.5,5.5-5.5,5.5c-3,0-5.5-2.5-5.5-5.5S426.2,267.3,429.2,267.3
				 M429.2,265.3c-4.1,0-7.5,3.4-7.5,7.5s3.4,7.5,7.5,7.5s7.5-3.4,7.5-7.5S433.4,265.3,429.2,265.3L429.2,265.3z"/>
		</g>
		<g>
			<circle class="st3" cx="463.3" cy="272.8" r="6.5"/>
			<path class="st2" d="M463.3,267.3c3,0,5.5,2.5,5.5,5.5s-2.5,5.5-5.5,5.5c-3,0-5.5-2.5-5.5-5.5S460.3,267.3,463.3,267.3
				 M463.3,265.3c-4.1,0-7.5,3.4-7.5,7.5s3.4,7.5,7.5,7.5s7.5-3.4,7.5-7.5S467.5,265.3,463.3,265.3L463.3,265.3z"/>
		</g>
		<g>
			<circle class="st3" cx="497.4" cy="272.8" r="6.5"/>
			<path class="st2" d="M497.4,267.3c3,0,5.5,2.5,5.5,5.5s-2.5,5.5-5.5,5.5c-3,0-5.5-2.5-5.5-5.5S494.4,267.3,497.4,267.3
				 M497.4,265.3c-4.1,0-7.5,3.4-7.5,7.5s3.4,7.5,7.5,7.5s7.5-3.4,7.5-7.5S501.5,265.3,497.4,265.3L497.4,265.3z"/>
		</g>
		<g>
			<circle class="st3" cx="531.5" cy="272.8" r="6.5"/>
			<path class="st2" d="M531.5,267.3c3,0,5.5,2.5,5.5,5.5s-2.5,5.5-5.5,5.5s-5.5-2.5-5.5-5.5S528.5,267.3,531.5,267.3 M531.5,265.3
				c-4.1,0-7.5,3.4-7.5,7.5s3.4,7.5,7.5,7.5s7.5-3.4,7.5-7.5S535.6,265.3,531.5,265.3L531.5,265.3z"/>
		</g>
	</g>
	<g>
		<path class="st3" d="M135.5,92.7c-0.6,0-1-0.4-1-1v-38c0-0.6,0.4-1,1-1h416c0.6,0,1,0.4,1,1v38c0,0.6-0.4,1-1,1H135.5z"/>
		<path class="st2" d="M551.5,53.7v38h-416v-38H551.5 M551.5,51.7h-416c-1.1,0-2,0.9-2,2v38c0,1.1,0.9,2,2,2h416c1.1,0,2-0.9,2-2
			v-38C553.5,52.6,552.6,51.7,551.5,51.7L551.5,51.7z"/>
	</g>
	<g>
		<g>
			<circle class="st3" cx="156" cy="72.7" r="6.5"/>
			<path class="st2" d="M156,67.2c3,0,5.5,2.5,5.5,5.5s-2.5,5.5-5.5,5.5s-5.5-2.5-5.5-5.5S153,67.2,156,67.2 M156,65.2
				c-4.1,0-7.5,3.4-7.5,7.5s3.4,7.5,7.5,7.5s7.5-3.4,7.5-7.5S160.1,65.2,156,65.2L156,65.2z"/>
		</g>
		<g>
			<circle class="st3" cx="190.1" cy="72.7" r="6.5"/>
			<path class="st2" d="M190.1,67.2c3,0,5.5,2.5,5.5,5.5s-2.5,5.5-5.5,5.5c-3,0-5.5-2.5-5.5-5.5S187.1,67.2,190.1,67.2 M190.1,65.2
				c-4.1,0-7.5,3.4-7.5,7.5s3.4,7.5,7.5,7.5s7.5-3.4,7.5-7.5S194.2,65.2,190.1,65.2L190.1,65.2z"/>
		</g>
		<g>
			<circle class="st3" cx="224.2" cy="72.7" r="6.5"/>
			<path class="st2" d="M224.2,67.2c3,0,5.5,2.5,5.5,5.5s-2.5,5.5-5.5,5.5c-3,0-5.5-2.5-5.5-5.5S221.1,67.2,224.2,67.2 M224.2,65.2
				c-4.1,0-7.5,3.4-7.5,7.5s3.4,7.5,7.5,7.5s7.5-3.4,7.5-7.5S228.3,65.2,224.2,65.2L224.2,65.2z"/>
		</g>
		<g>
			<circle class="st3" cx="258.3" cy="72.7" r="6.5"/>
			<path class="st2" d="M258.3,67.2c3,0,5.5,2.5,5.5,5.5s-2.5,5.5-5.5,5.5c-3,0-5.5-2.5-5.5-5.5S255.2,67.2,258.3,67.2 M258.3,65.2
				c-4.1,0-7.5,3.4-7.5,7.5s3.4,7.5,7.5,7.5s7.5-3.4,7.5-7.5S262.4,65.2,258.3,65.2L258.3,65.2z"/>
		</g>
		<g>
			<circle class="st3" cx="292.4" cy="72.7" r="6.5"/>
			<path class="st2" d="M292.4,67.2c3,0,5.5,2.5,5.5,5.5s-2.5,5.5-5.5,5.5c-3,0-5.5-2.5-5.5-5.5S289.3,67.2,292.4,67.2 M292.4,65.2
				c-4.1,0-7.5,3.4-7.5,7.5s3.4,7.5,7.5,7.5s7.5-3.4,7.5-7.5S296.5,65.2,292.4,65.2L292.4,65.2z"/>
		</g>
		<g>
			<circle class="st3" cx="326.5" cy="72.7" r="6.5"/>
			<path class="st2" d="M326.5,67.2c3,0,5.5,2.5,5.5,5.5s-2.5,5.5-5.5,5.5c-3,0-5.5-2.5-5.5-5.5S323.4,67.2,326.5,67.2 M326.5,65.2
				c-4.1,0-7.5,3.4-7.5,7.5s3.4,7.5,7.5,7.5s7.5-3.4,7.5-7.5S330.6,65.2,326.5,65.2L326.5,65.2z"/>
		</g>
		<g>
			<circle class="st3" cx="360.5" cy="72.7" r="6.5"/>
			<path class="st2" d="M360.5,67.2c3,0,5.5,2.5,5.5,5.5s-2.5,5.5-5.5,5.5c-3,0-5.5-2.5-5.5-5.5S357.5,67.2,360.5,67.2 M360.5,65.2
				c-4.1,0-7.5,3.4-7.5,7.5s3.4,7.5,7.5,7.5s7.5-3.4,7.5-7.5S364.7,65.2,360.5,65.2L360.5,65.2z"/>
		</g>
		<g>
			<circle class="st3" cx="394.6" cy="72.7" r="6.5"/>
			<path class="st2" d="M394.6,67.2c3,0,5.5,2.5,5.5,5.5s-2.5,5.5-5.5,5.5c-3,0-5.5-2.5-5.5-5.5S391.6,67.2,394.6,67.2 M394.6,65.2
				c-4.1,0-7.5,3.4-7.5,7.5s3.4,7.5,7.5,7.5s7.5-3.4,7.5-7.5S398.8,65.2,394.6,65.2L394.6,65.2z"/>
		</g>
		<g>
			<circle class="st3" cx="428.7" cy="72.7" r="6.5"/>
			<path class="st2" d="M428.7,67.2c3,0,5.5,2.5,5.5,5.5s-2.5,5.5-5.5,5.5c-3,0-5.5-2.5-5.5-5.5S425.7,67.2,428.7,67.2 M428.7,65.2
				c-4.1,0-7.5,3.4-7.5,7.5s3.4,7.5,7.5,7.5s7.5-3.4,7.5-7.5S432.9,65.2,428.7,65.2L428.7,65.2z"/>
		</g>
		<g>
			<circle class="st3" cx="462.8" cy="72.7" r="6.5"/>
			<path class="st2" d="M462.8,67.2c3,0,5.5,2.5,5.5,5.5s-2.5,5.5-5.5,5.5c-3,0-5.5-2.5-5.5-5.5S459.8,67.2,462.8,67.2 M462.8,65.2
				c-4.1,0-7.5,3.4-7.5,7.5s3.4,7.5,7.5,7.5s7.5-3.4,7.5-7.5S467,65.2,462.8,65.2L462.8,65.2z"/>
		</g>
		<g>
			<circle class="st3" cx="496.9" cy="72.7" r="6.5"/>
			<path class="st2" d="M496.9,67.2c3,0,5.5,2.5,5.5,5.5s-2.5,5.5-5.5,5.5c-3,0-5.5-2.5-5.5-5.5S493.9,67.2,496.9,67.2 M496.9,65.2
				c-4.1,0-7.5,3.4-7.5,7.5s3.4,7.5,7.5,7.5s7.5-3.4,7.5-7.5S501,65.2,496.9,65.2L496.9,65.2z"/>
		</g>
		<g>
			<circle class="st3" cx="531" cy="72.7" r="6.5"/>
			<path class="st2" d="M531,67.2c3,0,5.5,2.5,5.5,5.5s-2.5,5.5-5.5,5.5c-3,0-5.5-2.5-5.5-5.5S528,67.2,531,67.2 M531,65.2
				c-4.1,0-7.5,3.4-7.5,7.5s3.4,7.5,7.5,7.5s7.5-3.4,7.5-7.5S535.1,65.2,531,65.2L531,65.2z"/>
		</g>
	</g>
	<g>
		<g>
			<circle class="st3" cx="871.9" cy="72.7" r="6.5"/>
			<path class="st2" d="M871.9,67.2c3,0,5.5,2.5,5.5,5.5s-2.5,5.5-5.5,5.5c-3,0-5.5-2.5-5.5-5.5S868.8,67.2,871.9,67.2 M871.9,65.2
				c-4.1,0-7.5,3.4-7.5,7.5s3.4,7.5,7.5,7.5s7.5-3.4,7.5-7.5S876,65.2,871.9,65.2L871.9,65.2z"/>
		</g>
		<g>
			<circle class="st3" cx="906" cy="72.7" r="6.5"/>
			<path class="st2" d="M906,67.2c3,0,5.5,2.5,5.5,5.5s-2.5,5.5-5.5,5.5s-5.5-2.5-5.5-5.5S902.9,67.2,906,67.2 M906,65.2
				c-4.1,0-7.5,3.4-7.5,7.5s3.4,7.5,7.5,7.5s7.5-3.4,7.5-7.5S910.1,65.2,906,65.2L906,65.2z"/>
		</g>
		<g>
			<circle class="st3" cx="940.1" cy="72.7" r="6.5"/>
			<path class="st2" d="M940.1,67.2c3,0,5.5,2.5,5.5,5.5s-2.5,5.5-5.5,5.5c-3,0-5.5-2.5-5.5-5.5S937,67.2,940.1,67.2 M940.1,65.2
				c-4.1,0-7.5,3.4-7.5,7.5s3.4,7.5,7.5,7.5s7.5-3.4,7.5-7.5S944.2,65.2,940.1,65.2L940.1,65.2z"/>
		</g>
		<g>
			<circle class="st3" cx="974.1" cy="72.7" r="6.5"/>
			<path class="st2" d="M974.1,67.2c3,0,5.5,2.5,5.5,5.5s-2.5,5.5-5.5,5.5c-3,0-5.5-2.5-5.5-5.5S971.1,67.2,974.1,67.2 M974.1,65.2
				c-4.1,0-7.5,3.4-7.5,7.5s3.4,7.5,7.5,7.5s7.5-3.4,7.5-7.5S978.3,65.2,974.1,65.2L974.1,65.2z"/>
		</g>
		<g>
			<circle class="st3" cx="1008.2" cy="72.7" r="6.5"/>
			<path class="st2" d="M1008.2,67.2c3,0,5.5,2.5,5.5,5.5s-2.5,5.5-5.5,5.5s-5.5-2.5-5.5-5.5S1005.2,67.2,1008.2,67.2 M1008.2,65.2
				c-4.1,0-7.5,3.4-7.5,7.5s3.4,7.5,7.5,7.5s7.5-3.4,7.5-7.5S1012.4,65.2,1008.2,65.2L1008.2,65.2z"/>
		</g>
		<g>
			<circle class="st3" cx="1042.3" cy="72.7" r="6.5"/>
			<path class="st2" d="M1042.3,67.2c3,0,5.5,2.5,5.5,5.5s-2.5,5.5-5.5,5.5s-5.5-2.5-5.5-5.5S1039.3,67.2,1042.3,67.2 M1042.3,65.2
				c-4.1,0-7.5,3.4-7.5,7.5s3.4,7.5,7.5,7.5s7.5-3.4,7.5-7.5S1046.5,65.2,1042.3,65.2L1042.3,65.2z"/>
		</g>
	</g>
	<polygon points="136.2,668 136.2,687.5 147,687.5 147,724 162.1,724 162.1,687.5 250.5,687.5 250.5,668 	"/>
	<path d="M166.4,691.8V724h32.3v-32.2H166.4z M190.1,715.4h-8.6v-8.6h8.6V715.4z"/>
	<polygon points="228.9,691.8 228.9,711.1 224.6,711.1 224.6,691.8 203.1,691.8 203.1,724 216,724 216,717.6 220.3,717.6 220.3,724 
		233.2,724 233.2,717.6 237.6,717.6 237.6,724 250.5,724 250.5,691.8 	"/>
	<polygon points="285,711.1 285,691.7 254.8,691.7 254.8,724.1 272.1,724.1 272.1,728.4 254.8,728.4 203,728.4 203,737 285,737 
		285,728.4 285,715.4 276.4,715.4 276.4,711.1 	"/>
	<circle class="st4" cx="74" cy="73" r="32"/>
	<circle class="st4" cx="74" cy="708" r="32"/>
	<circle class="st4" cx="1173" cy="708" r="32"/>
	<circle class="st4" cx="1173" cy="73" r="32"/>
	<path class="st5" d="M1214,136v-5c0-1.1-0.9-2-2-2h-18c-1.1,0-2,0.9-2,2v5h-46v-5c0-1.1-0.9-2-2-2h-18c-1.1,0-2,0.9-2,2v5h-1v144h1
		v5c0,1.1,0.9,2,2,2h18c1.1,0,2-0.9,2-2v-5h46v5c0,1.1,0.9,2,2,2h18c1.1,0,2-0.9,2-2v-5h5V136H1214z"/>
</g>
<g id="レイヤー_4">
	<rect x="600" y="495" class="st6" width="44" height="36"/>
	<g>
		<path d="M461.6,502.8h-4.5v-4.5h13.5v22.5h-9V502.8z"/>
	</g>
	<g>
		<path d="M1177.5,200.2v13.5h-18v4.5h18v4.5h-27v-13.5h18v-4.5h-18v-4.5H1177.5z"/>
	</g>
	<g>
		<path d="M356.2,145.7v22.5h-27v-4.5h18v-4.5h-18v-4.5h18v-4.5h-18v-4.5H356.2z"/>
	</g>
	<g>
		<path d="M971.7,130.8h4.5v4.5h-4.5v4.5h-9v-4.5h-13.5v-18h9v13.5h4.5v-13.5h9V130.8z"/>
	</g>
	<g>
		<path d="M132.6,199.2v10.5h-14v7h-7v-17.5H132.6z M125.6,206.2v-3.5h-7v3.5H125.6z"/>
		<path d="M157.1,202.7v3.5h-14v10.5h-7v-14H157.1z"/>
		<path d="M181.6,202.7v14h-21v-14H181.6z M174.6,213.2v-7h-7v7H174.6z"/>
		<path d="M221.9,202.7v14h-7v-10.5h-3.5v10.5h-7v-10.5h-3.5v10.5h-7v-14H221.9z"/>
		<path d="M232.4,199.2v3.5h-7v-3.5H232.4z M232.4,206.2v10.5h-7v-10.5H232.4z"/>
		<path d="M256.9,202.7v3.5h-14v7h14v3.5h-21v-14H256.9z"/>
		<path d="M281.4,202.7v3.5h-14v10.5h-7v-14H281.4z"/>
		<path d="M305.9,202.7v14h-21v-14H305.9z M298.9,213.2v-7h-7v7H298.9z"/>
		<path d="M339.1,202.7v3.5h-14v7h14v3.5h-21v-14H339.1z"/>
		<path d="M363.6,202.7v14h-21v-14H363.6z M356.6,213.2v-7h-7v7H356.6z"/>
		<path d="M395.1,202.7v14h-7v-10.5h-3.5v10.5h-7v-10.5h-3.5v10.5h-7v-14H395.1z"/>
		<path d="M419.6,202.7v14h-14v3.5h-7v-17.5H419.6z M412.6,213.2v-7h-7v7H412.6z"/>
		<path d="M430.1,202.7h14v14h-21v-10.5h7V202.7z M430.1,206.2v7h7v-7H430.1z"/>
		<path d="M468.6,202.7v3.5h-10.5v7h10.5v3.5h-17.5v-10.5h-3.5v-3.5h3.5v-3.5h7v3.5H468.6z"/>
		<path d="M479.1,199.2v3.5h-7v-3.5H479.1z M479.1,206.2v10.5h-7v-10.5H479.1z"/>
		<path d="M503.6,202.7v14h-21v-17.5h7v3.5H503.6z M496.6,213.2v-7h-7v7H496.6z"/>
		<path d="M514.1,199.2v17.5h-7v-17.5H514.1z"/>
		<path d="M517.6,202.7h21v7h-7v3.5h7v3.5h-21V202.7z M531.6,209.7v-3.5h-7v3.5H531.6z"/>
		<path d="M571.9,199.2v3.5h-7v14h-7v-14h-7v-3.5H571.9z"/>
		<path d="M596.4,199.2v17.5h-7v-7h-7v7h-7v-17.5h7v7h7v-7H596.4z"/>
	</g>
	<g>
		<path d="M928.4,306.8v22.5h-27v-22.5h9v18h9v-18H928.4z"/>
		<path d="M959.9,306.8v4.5h-18v4.5h18v13.5h-27v-4.5h18v-4.5h-18v-13.5H959.9z"/>
		<path d="M986.9,311.3h4.5v13.5h-4.5v4.5h-22.5v-22.5h22.5V311.3z M982.4,311.3h-9v4.5h9V311.3z M982.4,324.8v-4.5h-9v4.5H982.4z"
			/>
		<path d="M1034.2,311.3v4.5h-13.5v9h13.5v4.5h-22.5v-13.5h-4.5v-4.5h4.5v-4.5h9v4.5H1034.2z"/>
		<path d="M1065.7,311.3v27h-18v-4.5h9v-4.5h-18v-18h9v13.5h9v-13.5H1065.7z"/>
		<path d="M1097.2,311.3v18h-18v4.5h-9v-22.5H1097.2z M1088.2,324.8v-9h-9v9H1088.2z"/>
		<path d="M1101.7,311.3h27v9.1h-9v4.4h9v4.5h-27V311.3z M1119.7,320.3v-4.5h-9v4.5H1119.7z"/>
		<path d="M1160.2,315.8v4.5h-27v-4.5H1160.2z"/>
		<path d="M1191.7,306.8v4.5h-18v13.5h18v4.5h-27v-22.5H1191.7z"/>
	</g>
	<g>
		<path d="M916.5,181.5V159h9v22.5H916.5z"/>
		<path d="M957,159v4.5h-18V177h18v4.5h-27V159H957z"/>
		<path d="M988.5,159v4.5h-18v4.5h18v13.5h-27V177h18v-4.5h-18V159H988.5z"/>
		<path d="M1020,159v13.5h-18v9h-9V159H1020z M1011,168v-4.5h-9v4.5H1011z"/>
	</g>
	<g>
		<path d="M548,511.5h4.5v4.5H548v4.5h-9V516h-13.5v-18h9v13.5h4.5V498h9V511.5z"/>
		<path d="M595.3,502.5v4.5h-4.5v9h4.5v4.5h-13.5v-9h-4.5v9h-9V498h9v9h4.5v-4.5H595.3z"/>
		<path d="M599.8,502.5h27v9.1h-9v4.4h9v4.5h-27V502.5z M617.8,511.5V507h-9v4.5H617.8z"/>
		<path d="M658.3,502.5v27h-18V525h9v-4.5h-18v-18h9V516h9v-13.5H658.3z"/>
		<path d="M689.8,502.5v18h-27V498h9v4.5H689.8z M680.8,516v-9h-9v9H680.8z"/>
		<path d="M721.3,502.5v18h-27v-18H721.3z M712.3,516v-9h-9v9H712.3z"/>
		<path d="M734.8,502.5h18v18h-27V507h9V502.5z M734.8,507v9h9v-9H734.8z"/>
		<path d="M784.3,502.5v4.5h-18v13.5h-9v-18H784.3z"/>
		<path d="M815.8,498v22.5h-27v-18h18V498H815.8z M806.8,516v-9h-9v9H806.8z"/>
	</g>
	<g>
	</g>
	<g>
	</g>
	<g>
	</g>
	<g>
	</g>
	<g>
	</g>
	<g>
	</g>
	<g>
	</g>
	<g>
	</g>
	<g>
	</g>
	<g>
	</g>
	<g>
	</g>
	<g>
	</g>
	<g>
	</g>
	<g>
	</g>
	<g>
	</g>
</g>
</svg>
