<?xml version="1.0" encoding="utf-8"?>
<!-- Generator: Adobe Illustrator 24.2.0, SVG Export Plug-In . SVG Version: 6.00 Build 0)  -->
<svg version="1.1" xmlns="http://www.w3.org/2000/svg" xmlns:xlink="http://www.w3.org/1999/xlink" x="0px" y="0px"
	 viewBox="0 0 1920 1080" style="enable-background:new 0 0 1920 1080;" xml:space="preserve">
<style type="text/css">
	.st0{display:none;}
	.st1{fill:#F5EEF0;}
	.st2{fill:#333333;}
	.st3{fill:#FFFFFF;}
	.st4{fill:#FFFFFF;stroke:#333333;stroke-width:2;stroke-miterlimit:10;}
	.st5{fill:#FFFFFF;stroke:#333333;stroke-width:2;stroke-linecap:round;stroke-linejoin:round;stroke-miterlimit:10;}
	.st6{opacity:0.95;fill:#FFFFFF;}
</style>
<g id="レイヤー_1" class="st0">
	
		<image style="display:inline;overflow:visible;" width="1709" height="982" xlink:href="name_card_keyboard.png"  transform="matrix(1 0 0 1 106 49)">
	</image>
</g>
<g id="レイヤー_3">
	<g>
		<path class="st1" d="M367,899.5c-0.6,0-1-0.4-1-1V181.1c0-0.6,0.4-1,1-1h1187c0.6,0,1,0.4,1,1v717.4c0,0.6-0.4,1-1,1H367z"/>
		<path class="st2" d="M1554,181.1v717.4H367V181.1H1554 M1554,179.1H367c-1.1,0-2,0.9-2,2v717.4c0,1.1,0.9,2,2,2h1187
			c1.1,0,2-0.9,2-2V181.1C1556,180,1555.1,179.1,1554,179.1L1554,179.1z"/>
	</g>
</g>
<g id="レイヤー_2">
	<g>
		<path class="st3" d="M476,779.8c-0.6,0-1-0.4-1-1v-216c0-0.6,0.4-1,1-1h216c0.6,0,1,0.4,1,1v216c0,0.6-0.4,1-1,1H476z"/>
		<path class="st2" d="M692,562.8v216H476v-216H692 M692,560.8H476c-1.1,0-2,0.9-2,2v216c0,1.1,0.9,2,2,2h216c1.1,0,2-0.9,2-2v-216
			C694,561.6,693.1,560.8,692,560.8L692,560.8z"/>
	</g>
	<g>
		<path class="st3" d="M727.3,779.8c-0.6,0-1-0.4-1-1v-216c0-0.6,0.4-1,1-1h216c0.6,0,1,0.4,1,1v216c0,0.6-0.4,1-1,1H727.3z"/>
		<path class="st2" d="M943.3,562.8v216h-216v-216H943.3 M943.3,560.8h-216c-1.1,0-2,0.9-2,2v216c0,1.1,0.9,2,2,2h216
			c1.1,0,2-0.9,2-2v-216C945.3,561.6,944.4,560.8,943.3,560.8L943.3,560.8z"/>
	</g>
	<g>
		<path class="st3" d="M978.7,779.8c-0.6,0-1-0.4-1-1v-216c0-0.6,0.4-1,1-1h216c0.6,0,1,0.4,1,1v216c0,0.6-0.4,1-1,1H978.7z"/>
		<path class="st2" d="M1194.7,562.8v216h-216v-216H1194.7 M1194.7,560.8h-216c-1.1,0-2,0.9-2,2v216c0,1.1,0.9,2,2,2h216
			c1.1,0,2-0.9,2-2v-216C1196.7,561.6,1195.8,560.8,1194.7,560.8L1194.7,560.8z"/>
	</g>
	<g>
		<path class="st3" d="M1230,779.8c-0.6,0-1-0.4-1-1v-216c0-0.6,0.4-1,1-1h216c0.6,0,1,0.4,1,1v216c0,0.6-0.4,1-1,1H1230z"/>
		<path class="st2" d="M1446,562.8v216h-216v-216H1446 M1446,560.8h-216c-1.1,0-2,0.9-2,2v216c0,1.1,0.9,2,2,2h216c1.1,0,2-0.9,2-2
			v-216C1448,561.6,1447.1,560.8,1446,560.8L1446,560.8z"/>
	</g>
	<g>
		<path class="st3" d="M474,442.8c-0.6,0-1-0.4-1-1v-38c0-0.6,0.4-1,1-1h416c0.6,0,1,0.4,1,1v38c0,0.6-0.4,1-1,1H474z"/>
		<path class="st2" d="M890,403.8v38H474v-38H890 M890,401.8H474c-1.1,0-2,0.9-2,2v38c0,1.1,0.9,2,2,2h416c1.1,0,2-0.9,2-2v-38
			C892,402.7,891.1,401.8,890,401.8L890,401.8z"/>
	</g>
	<g>
		<path class="st3" d="M1189.1,242.7c-0.6,0-1-0.4-1-1v-38c0-0.6,0.4-1,1-1h212c0.6,0,1,0.4,1,1v38c0,0.6-0.4,1-1,1H1189.1z"/>
		<path class="st2" d="M1401.1,203.7v38h-212v-38H1401.1 M1401.1,201.7h-212c-1.1,0-2,0.9-2,2v38c0,1.1,0.9,2,2,2h212
			c1.1,0,2-0.9,2-2v-38C1403.1,202.6,1402.2,201.7,1401.1,201.7L1401.1,201.7z"/>
	</g>
	<g>
		<g>
			<circle class="st3" cx="494.5" cy="422.8" r="6.5"/>
			<path class="st2" d="M494.5,417.3c3,0,5.5,2.5,5.5,5.5s-2.5,5.5-5.5,5.5s-5.5-2.5-5.5-5.5S491.5,417.3,494.5,417.3 M494.5,415.3
				c-4.1,0-7.5,3.4-7.5,7.5s3.4,7.5,7.5,7.5s7.5-3.4,7.5-7.5S498.6,415.3,494.5,415.3L494.5,415.3z"/>
		</g>
		<g>
			<circle class="st3" cx="528.6" cy="422.8" r="6.5"/>
			<path class="st2" d="M528.6,417.3c3,0,5.5,2.5,5.5,5.5s-2.5,5.5-5.5,5.5c-3,0-5.5-2.5-5.5-5.5S525.6,417.3,528.6,417.3
				 M528.6,415.3c-4.1,0-7.5,3.4-7.5,7.5s3.4,7.5,7.5,7.5s7.5-3.4,7.5-7.5S532.7,415.3,528.6,415.3L528.6,415.3z"/>
		</g>
		<g>
			<circle class="st3" cx="562.7" cy="422.8" r="6.5"/>
			<path class="st2" d="M562.7,417.3c3,0,5.5,2.5,5.5,5.5s-2.5,5.5-5.5,5.5c-3,0-5.5-2.5-5.5-5.5S559.6,417.3,562.7,417.3
				 M562.7,415.3c-4.1,0-7.5,3.4-7.5,7.5s3.4,7.5,7.5,7.5s7.5-3.4,7.5-7.5S566.8,415.3,562.7,415.3L562.7,415.3z"/>
		</g>
		<g>
			<circle class="st3" cx="596.8" cy="422.8" r="6.5"/>
			<path class="st2" d="M596.8,417.3c3,0,5.5,2.5,5.5,5.5s-2.5,5.5-5.5,5.5c-3,0-5.5-2.5-5.5-5.5S593.7,417.3,596.8,417.3
				 M596.8,415.3c-4.1,0-7.5,3.4-7.5,7.5s3.4,7.5,7.5,7.5s7.5-3.4,7.5-7.5S600.9,415.3,596.8,415.3L596.8,415.3z"/>
		</g>
		<g>
			<circle class="st3" cx="630.9" cy="422.8" r="6.5"/>
			<path class="st2" d="M630.9,417.3c3,0,5.5,2.5,5.5,5.5s-2.5,5.5-5.5,5.5c-3,0-5.5-2.5-5.5-5.5S627.8,417.3,630.9,417.3
				 M630.9,415.3c-4.1,0-7.5,3.4-7.5,7.5s3.4,7.5,7.5,7.5s7.5-3.4,7.5-7.5S635,415.3,630.9,415.3L630.9,415.3z"/>
		</g>
		<g>
			<circle class="st3" cx="665" cy="422.8" r="6.5"/>
			<path class="st2" d="M665,417.3c3,0,5.5,2.5,5.5,5.5s-2.5,5.5-5.5,5.5c-3,0-5.5-2.5-5.5-5.5S661.9,417.3,665,417.3 M665,415.3
				c-4.1,0-7.5,3.4-7.5,7.5s3.4,7.5,7.5,7.5s7.5-3.4,7.5-7.5S669.1,415.3,665,415.3L665,415.3z"/>
		</g>
		<g>
			<circle class="st3" cx="699" cy="422.8" r="6.5"/>
			<path class="st2" d="M699,417.3c3,0,5.5,2.5,5.5,5.5s-2.5,5.5-5.5,5.5c-3,0-5.5-2.5-5.5-5.5S696,417.3,699,417.3 M699,415.3
				c-4.1,0-7.5,3.4-7.5,7.5s3.4,7.5,7.5,7.5s7.5-3.4,7.5-7.5S703.2,415.3,699,415.3L699,415.3z"/>
		</g>
		<g>
			<circle class="st3" cx="733.1" cy="422.8" r="6.5"/>
			<path class="st2" d="M733.1,417.3c3,0,5.5,2.5,5.5,5.5s-2.5,5.5-5.5,5.5c-3,0-5.5-2.5-5.5-5.5S730.1,417.3,733.1,417.3
				 M733.1,415.3c-4.1,0-7.5,3.4-7.5,7.5s3.4,7.5,7.5,7.5s7.5-3.4,7.5-7.5S737.3,415.3,733.1,415.3L733.1,415.3z"/>
		</g>
		<g>
			<circle class="st3" cx="767.2" cy="422.8" r="6.5"/>
			<path class="st2" d="M767.2,417.3c3,0,5.5,2.5,5.5,5.5s-2.5,5.5-5.5,5.5c-3,0-5.5-2.5-5.5-5.5S764.2,417.3,767.2,417.3
				 M767.2,415.3c-4.1,0-7.5,3.4-7.5,7.5s3.4,7.5,7.5,7.5s7.5-3.4,7.5-7.5S771.4,415.3,767.2,415.3L767.2,415.3z"/>
		</g>
		<g>
			<circle class="st3" cx="801.3" cy="422.8" r="6.5"/>
			<path class="st2" d="M801.3,417.3c3,0,5.5,2.5,5.5,5.5s-2.5,5.5-5.5,5.5c-3,0-5.5-2.5-5.5-5.5S798.3,417.3,801.3,417.3
				 M801.3,415.3c-4.1,0-7.5,3.4-7.5,7.5s3.4,7.5,7.5,7.5s7.5-3.4,7.5-7.5S805.5,415.3,801.3,415.3L801.3,415.3z"/>
		</g>
		<g>
			<circle class="st3" cx="835.4" cy="422.8" r="6.5"/>
			<path class="st2" d="M835.4,417.3c3,0,5.5,2.5,5.5,5.5s-2.5,5.5-5.5,5.5c-3,0-5.5-2.5-5.5-5.5S832.4,417.3,835.4,417.3
				 M835.4,415.3c-4.1,0-7.5,3.4-7.5,7.5s3.4,7.5,7.5,7.5s7.5-3.4,7.5-7.5S839.5,415.3,835.4,415.3L835.4,415.3z"/>
		</g>
		<g>
			<circle class="st3" cx="869.5" cy="422.8" r="6.5"/>
			<path class="st2" d="M869.5,417.3c3,0,5.5,2.5,5.5,5.5s-2.5,5.5-5.5,5.5s-5.5-2.5-5.5-5.5S866.5,417.3,869.5,417.3 M869.5,415.3
				c-4.1,0-7.5,3.4-7.5,7.5s3.4,7.5,7.5,7.5s7.5-3.4,7.5-7.5S873.6,415.3,869.5,415.3L869.5,415.3z"/>
		</g>
	</g>
	<g>
		<path class="st3" d="M473.5,242.7c-0.6,0-1-0.4-1-1v-38c0-0.6,0.4-1,1-1h416c0.6,0,1,0.4,1,1v38c0,0.6-0.4,1-1,1H473.5z"/>
		<path class="st2" d="M889.5,203.7v38h-416v-38H889.5 M889.5,201.7h-416c-1.1,0-2,0.9-2,2v38c0,1.1,0.9,2,2,2h416c1.1,0,2-0.9,2-2
			v-38C891.5,202.6,890.6,201.7,889.5,201.7L889.5,201.7z"/>
	</g>
	<g>
		<g>
			<circle class="st3" cx="494" cy="222.7" r="6.5"/>
			<path class="st2" d="M494,217.2c3,0,5.5,2.5,5.5,5.5s-2.5,5.5-5.5,5.5s-5.5-2.5-5.5-5.5S491,217.2,494,217.2 M494,215.2
				c-4.1,0-7.5,3.4-7.5,7.5s3.4,7.5,7.5,7.5s7.5-3.4,7.5-7.5S498.1,215.2,494,215.2L494,215.2z"/>
		</g>
		<g>
			<circle class="st3" cx="528.1" cy="222.7" r="6.5"/>
			<path class="st2" d="M528.1,217.2c3,0,5.5,2.5,5.5,5.5s-2.5,5.5-5.5,5.5c-3,0-5.5-2.5-5.5-5.5S525.1,217.2,528.1,217.2
				 M528.1,215.2c-4.1,0-7.5,3.4-7.5,7.5s3.4,7.5,7.5,7.5s7.5-3.4,7.5-7.5S532.2,215.2,528.1,215.2L528.1,215.2z"/>
		</g>
		<g>
			<circle class="st3" cx="562.2" cy="222.7" r="6.5"/>
			<path class="st2" d="M562.2,217.2c3,0,5.5,2.5,5.5,5.5s-2.5,5.5-5.5,5.5c-3,0-5.5-2.5-5.5-5.5S559.1,217.2,562.2,217.2
				 M562.2,215.2c-4.1,0-7.5,3.4-7.5,7.5s3.4,7.5,7.5,7.5s7.5-3.4,7.5-7.5S566.3,215.2,562.2,215.2L562.2,215.2z"/>
		</g>
		<g>
			<circle class="st3" cx="596.3" cy="222.7" r="6.5"/>
			<path class="st2" d="M596.3,217.2c3,0,5.5,2.5,5.5,5.5s-2.5,5.5-5.5,5.5c-3,0-5.5-2.5-5.5-5.5S593.2,217.2,596.3,217.2
				 M596.3,215.2c-4.1,0-7.5,3.4-7.5,7.5s3.4,7.5,7.5,7.5s7.5-3.4,7.5-7.5S600.4,215.2,596.3,215.2L596.3,215.2z"/>
		</g>
		<g>
			<circle class="st3" cx="630.4" cy="222.7" r="6.5"/>
			<path class="st2" d="M630.4,217.2c3,0,5.5,2.5,5.5,5.5s-2.5,5.5-5.5,5.5c-3,0-5.5-2.5-5.5-5.5S627.3,217.2,630.4,217.2
				 M630.4,215.2c-4.1,0-7.5,3.4-7.5,7.5s3.4,7.5,7.5,7.5s7.5-3.4,7.5-7.5S634.5,215.2,630.4,215.2L630.4,215.2z"/>
		</g>
		<g>
			<circle class="st3" cx="664.5" cy="222.7" r="6.5"/>
			<path class="st2" d="M664.5,217.2c3,0,5.5,2.5,5.5,5.5s-2.5,5.5-5.5,5.5c-3,0-5.5-2.5-5.5-5.5S661.4,217.2,664.5,217.2
				 M664.5,215.2c-4.1,0-7.5,3.4-7.5,7.5s3.4,7.5,7.5,7.5s7.5-3.4,7.5-7.5S668.6,215.2,664.5,215.2L664.5,215.2z"/>
		</g>
		<g>
			<circle class="st3" cx="698.5" cy="222.7" r="6.5"/>
			<path class="st2" d="M698.5,217.2c3,0,5.5,2.5,5.5,5.5s-2.5,5.5-5.5,5.5c-3,0-5.5-2.5-5.5-5.5S695.5,217.2,698.5,217.2
				 M698.5,215.2c-4.1,0-7.5,3.4-7.5,7.5s3.4,7.5,7.5,7.5s7.5-3.4,7.5-7.5S702.7,215.2,698.5,215.2L698.5,215.2z"/>
		</g>
		<g>
			<circle class="st3" cx="732.6" cy="222.7" r="6.5"/>
			<path class="st2" d="M732.6,217.2c3,0,5.5,2.5,5.5,5.5s-2.5,5.5-5.5,5.5c-3,0-5.5-2.5-5.5-5.5S729.6,217.2,732.6,217.2
				 M732.6,215.2c-4.1,0-7.5,3.4-7.5,7.5s3.4,7.5,7.5,7.5s7.5-3.4,7.5-7.5S736.8,215.2,732.6,215.2L732.6,215.2z"/>
		</g>
		<g>
			<circle class="st3" cx="766.7" cy="222.7" r="6.5"/>
			<path class="st2" d="M766.7,217.2c3,0,5.5,2.5,5.5,5.5s-2.5,5.5-5.5,5.5c-3,0-5.5-2.5-5.5-5.5S763.7,217.2,766.7,217.2
				 M766.7,215.2c-4.1,0-7.5,3.4-7.5,7.5s3.4,7.5,7.5,7.5s7.5-3.4,7.5-7.5S770.9,215.2,766.7,215.2L766.7,215.2z"/>
		</g>
		<g>
			<circle class="st3" cx="800.8" cy="222.7" r="6.5"/>
			<path class="st2" d="M800.8,217.2c3,0,5.5,2.5,5.5,5.5s-2.5,5.5-5.5,5.5c-3,0-5.5-2.5-5.5-5.5S797.8,217.2,800.8,217.2
				 M800.8,215.2c-4.1,0-7.5,3.4-7.5,7.5s3.4,7.5,7.5,7.5s7.5-3.4,7.5-7.5S805,215.2,800.8,215.2L800.8,215.2z"/>
		</g>
		<g>
			<circle class="st3" cx="834.9" cy="222.7" r="6.5"/>
			<path class="st2" d="M834.9,217.2c3,0,5.5,2.5,5.5,5.5s-2.5,5.5-5.5,5.5c-3,0-5.5-2.5-5.5-5.5S831.9,217.2,834.9,217.2
				 M834.9,215.2c-4.1,0-7.5,3.4-7.5,7.5s3.4,7.5,7.5,7.5s7.5-3.4,7.5-7.5S839,215.2,834.9,215.2L834.9,215.2z"/>
		</g>
		<g>
			<circle class="st3" cx="869" cy="222.7" r="6.5"/>
			<path class="st2" d="M869,217.2c3,0,5.5,2.5,5.5,5.5s-2.5,5.5-5.5,5.5c-3,0-5.5-2.5-5.5-5.5S866,217.2,869,217.2 M869,215.2
				c-4.1,0-7.5,3.4-7.5,7.5s3.4,7.5,7.5,7.5s7.5-3.4,7.5-7.5S873.1,215.2,869,215.2L869,215.2z"/>
		</g>
	</g>
	<g>
		<g>
			<circle class="st3" cx="1209.9" cy="222.7" r="6.5"/>
			<path class="st2" d="M1209.9,217.2c3,0,5.5,2.5,5.5,5.5s-2.5,5.5-5.5,5.5c-3,0-5.5-2.5-5.5-5.5S1206.8,217.2,1209.9,217.2
				 M1209.9,215.2c-4.1,0-7.5,3.4-7.5,7.5s3.4,7.5,7.5,7.5s7.5-3.4,7.5-7.5S1214,215.2,1209.9,215.2L1209.9,215.2z"/>
		</g>
		<g>
			<circle class="st3" cx="1244" cy="222.7" r="6.5"/>
			<path class="st2" d="M1244,217.2c3,0,5.5,2.5,5.5,5.5s-2.5,5.5-5.5,5.5s-5.5-2.5-5.5-5.5S1240.9,217.2,1244,217.2 M1244,215.2
				c-4.1,0-7.5,3.4-7.5,7.5s3.4,7.5,7.5,7.5s7.5-3.4,7.5-7.5S1248.1,215.2,1244,215.2L1244,215.2z"/>
		</g>
		<g>
			<circle class="st3" cx="1278.1" cy="222.7" r="6.5"/>
			<path class="st2" d="M1278.1,217.2c3,0,5.5,2.5,5.5,5.5s-2.5,5.5-5.5,5.5c-3,0-5.5-2.5-5.5-5.5S1275,217.2,1278.1,217.2
				 M1278.1,215.2c-4.1,0-7.5,3.4-7.5,7.5s3.4,7.5,7.5,7.5s7.5-3.4,7.5-7.5S1282.2,215.2,1278.1,215.2L1278.1,215.2z"/>
		</g>
		<g>
			<circle class="st3" cx="1312.1" cy="222.7" r="6.5"/>
			<path class="st2" d="M1312.1,217.2c3,0,5.5,2.5,5.5,5.5s-2.5,5.5-5.5,5.5c-3,0-5.5-2.5-5.5-5.5S1309.1,217.2,1312.1,217.2
				 M1312.1,215.2c-4.1,0-7.5,3.4-7.5,7.5s3.4,7.5,7.5,7.5s7.5-3.4,7.5-7.5S1316.3,215.2,1312.1,215.2L1312.1,215.2z"/>
		</g>
		<g>
			<circle class="st3" cx="1346.2" cy="222.7" r="6.5"/>
			<path class="st2" d="M1346.2,217.2c3,0,5.5,2.5,5.5,5.5s-2.5,5.5-5.5,5.5s-5.5-2.5-5.5-5.5S1343.2,217.2,1346.2,217.2
				 M1346.2,215.2c-4.1,0-7.5,3.4-7.5,7.5s3.4,7.5,7.5,7.5s7.5-3.4,7.5-7.5S1350.4,215.2,1346.2,215.2L1346.2,215.2z"/>
		</g>
		<g>
			<circle class="st3" cx="1380.3" cy="222.7" r="6.5"/>
			<path class="st2" d="M1380.3,217.2c3,0,5.5,2.5,5.5,5.5s-2.5,5.5-5.5,5.5s-5.5-2.5-5.5-5.5S1377.3,217.2,1380.3,217.2
				 M1380.3,215.2c-4.1,0-7.5,3.4-7.5,7.5s3.4,7.5,7.5,7.5s7.5-3.4,7.5-7.5S1384.5,215.2,1380.3,215.2L1380.3,215.2z"/>
		</g>
	</g>
	<polygon points="474.2,818 474.2,837.5 485,837.5 485,874 500.1,874 500.1,837.5 588.5,837.5 588.5,818 	"/>
	<path d="M504.4,841.8V874h32.3v-32.2H504.4z M528.1,865.4h-8.6v-8.6h8.6V865.4z"/>
	<polygon points="566.9,841.8 566.9,861.1 562.6,861.1 562.6,841.8 541.1,841.8 541.1,874 554,874 554,867.6 558.3,867.6 558.3,874 
		571.2,874 571.2,867.6 575.6,867.6 575.6,874 588.5,874 588.5,841.8 	"/>
	<polygon points="623,861.1 623,841.7 592.8,841.7 592.8,874.1 610.1,874.1 610.1,878.4 592.8,878.4 541,878.4 541,887 623,887 
		623,878.4 623,865.4 614.4,865.4 614.4,861.1 	"/>
	<circle class="st4" cx="412" cy="223" r="32"/>
	<circle class="st4" cx="412" cy="858" r="32"/>
	<circle class="st4" cx="1511" cy="858" r="32"/>
	<circle class="st4" cx="1511" cy="223" r="32"/>
	<path class="st5" d="M1552,286v-5c0-1.1-0.9-2-2-2h-18c-1.1,0-2,0.9-2,2v5h-46v-5c0-1.1-0.9-2-2-2h-18c-1.1,0-2,0.9-2,2v5h-1v144h1
		v5c0,1.1,0.9,2,2,2h18c1.1,0,2-0.9,2-2v-5h46v5c0,1.1,0.9,2,2,2h18c1.1,0,2-0.9,2-2v-5h5V286H1552z"/>
</g>
<g id="レイヤー_4">
	<rect x="938" y="645" class="st6" width="44" height="36"/>
	<g>
		<path d="M799.6,652.8h-4.5v-4.5h13.5v22.5h-9V652.8z"/>
	</g>
	<g>
		<path d="M1515.5,350.2v13.5h-18v4.5h18v4.5h-27v-13.5h18v-4.5h-18v-4.5H1515.5z"/>
	</g>
	<g>
		<path d="M694.2,295.7v22.5h-27v-4.5h18v-4.5h-18v-4.5h18v-4.5h-18v-4.5H694.2z"/>
	</g>
	<g>
		<path d="M1309.7,280.8h4.5v4.5h-4.5v4.5h-9v-4.5h-13.5v-18h9v13.5h4.5v-13.5h9V280.8z"/>
	</g>
	<g>
		<path d="M470.6,349.2v10.5h-14v7h-7v-17.5H470.6z M463.6,356.2v-3.5h-7v3.5H463.6z"/>
		<path d="M495.1,352.7v3.5h-14v10.5h-7v-14H495.1z"/>
		<path d="M519.6,352.7v14h-21v-14H519.6z M512.6,363.2v-7h-7v7H512.6z"/>
		<path d="M559.9,352.7v14h-7v-10.5h-3.5v10.5h-7v-10.5h-3.5v10.5h-7v-14H559.9z"/>
		<path d="M570.4,349.2v3.5h-7v-3.5H570.4z M570.4,356.2v10.5h-7v-10.5H570.4z"/>
		<path d="M594.9,352.7v3.5h-14v7h14v3.5h-21v-14H594.9z"/>
		<path d="M619.4,352.7v3.5h-14v10.5h-7v-14H619.4z"/>
		<path d="M643.9,352.7v14h-21v-14H643.9z M636.9,363.2v-7h-7v7H636.9z"/>
		<path d="M677.1,352.7v3.5h-14v7h14v3.5h-21v-14H677.1z"/>
		<path d="M701.6,352.7v14h-21v-14H701.6z M694.6,363.2v-7h-7v7H694.6z"/>
		<path d="M733.1,352.7v14h-7v-10.5h-3.5v10.5h-7v-10.5h-3.5v10.5h-7v-14H733.1z"/>
		<path d="M757.6,352.7v14h-14v3.5h-7v-17.5H757.6z M750.6,363.2v-7h-7v7H750.6z"/>
		<path d="M768.1,352.7h14v14h-21v-10.5h7V352.7z M768.1,356.2v7h7v-7H768.1z"/>
		<path d="M806.6,352.7v3.5h-10.5v7h10.5v3.5h-17.5v-10.5h-3.5v-3.5h3.5v-3.5h7v3.5H806.6z"/>
		<path d="M817.1,349.2v3.5h-7v-3.5H817.1z M817.1,356.2v10.5h-7v-10.5H817.1z"/>
		<path d="M841.6,352.7v14h-21v-17.5h7v3.5H841.6z M834.6,363.2v-7h-7v7H834.6z"/>
		<path d="M852.1,349.2v17.5h-7v-17.5H852.1z"/>
		<path d="M855.6,352.7h21v7h-7v3.5h7v3.5h-21V352.7z M869.6,359.7v-3.5h-7v3.5H869.6z"/>
		<path d="M909.9,349.2v3.5h-7v14h-7v-14h-7v-3.5H909.9z"/>
		<path d="M934.4,349.2v17.5h-7v-7h-7v7h-7v-17.5h7v7h7v-7H934.4z"/>
	</g>
	<g>
		<path d="M1266.4,456.8v22.5h-27v-22.5h9v18h9v-18H1266.4z"/>
		<path d="M1297.9,456.8v4.5h-18v4.5h18v13.5h-27v-4.5h18v-4.5h-18v-13.5H1297.9z"/>
		<path d="M1324.9,461.3h4.5v13.5h-4.5v4.5h-22.5v-22.5h22.5V461.3z M1320.4,461.3h-9v4.5h9V461.3z M1320.4,474.8v-4.5h-9v4.5
			H1320.4z"/>
		<path d="M1372.2,461.3v4.5h-13.5v9h13.5v4.5h-22.5v-13.5h-4.5v-4.5h4.5v-4.5h9v4.5H1372.2z"/>
		<path d="M1403.7,461.3v27h-18v-4.5h9v-4.5h-18v-18h9v13.5h9v-13.5H1403.7z"/>
		<path d="M1435.2,461.3v18h-18v4.5h-9v-22.5H1435.2z M1426.2,474.8v-9h-9v9H1426.2z"/>
		<path d="M1439.7,461.3h27v9.1h-9v4.4h9v4.5h-27V461.3z M1457.7,470.3v-4.5h-9v4.5H1457.7z"/>
		<path d="M1498.2,465.8v4.5h-27v-4.5H1498.2z"/>
		<path d="M1529.7,456.8v4.5h-18v13.5h18v4.5h-27v-22.5H1529.7z"/>
	</g>
	<g>
		<path d="M1254.5,331.5V309h9v22.5H1254.5z"/>
		<path d="M1295,309v4.5h-18V327h18v4.5h-27V309H1295z"/>
		<path d="M1326.5,309v4.5h-18v4.5h18v13.5h-27V327h18v-4.5h-18V309H1326.5z"/>
		<path d="M1358,309v13.5h-18v9h-9V309H1358z M1349,318v-4.5h-9v4.5H1349z"/>
	</g>
	<g>
		<path d="M886,661.5h4.5v4.5H886v4.5h-9V666h-13.5v-18h9v13.5h4.5V648h9V661.5z"/>
		<path d="M933.3,652.5v4.5h-4.5v9h4.5v4.5h-13.5v-9h-4.5v9h-9V648h9v9h4.5v-4.5H933.3z"/>
		<path d="M937.8,652.5h27v9.1h-9v4.4h9v4.5h-27V652.5z M955.8,661.5V657h-9v4.5H955.8z"/>
		<path d="M996.3,652.5v27h-18V675h9v-4.5h-18v-18h9V666h9v-13.5H996.3z"/>
		<path d="M1027.8,652.5v18h-27V648h9v4.5H1027.8z M1018.8,666v-9h-9v9H1018.8z"/>
		<path d="M1059.3,652.5v18h-27v-18H1059.3z M1050.3,666v-9h-9v9H1050.3z"/>
		<path d="M1072.8,652.5h18v18h-27V657h9V652.5z M1072.8,657v9h9v-9H1072.8z"/>
		<path d="M1122.3,652.5v4.5h-18v13.5h-9v-18H1122.3z"/>
		<path d="M1153.8,648v22.5h-27v-18h18V648H1153.8z M1144.8,666v-9h-9v9H1144.8z"/>
	</g>
	<g>
	</g>
	<g>
	</g>
	<g>
	</g>
	<g>
	</g>
	<g>
	</g>
	<g>
	</g>
	<g>
	</g>
	<g>
	</g>
	<g>
	</g>
	<g>
	</g>
	<g>
	</g>
	<g>
	</g>
	<g>
	</g>
	<g>
	</g>
	<g>
	</g>
</g>
</svg>
