<?xml version="1.0" encoding="utf-8"?>
<!-- Generator: Adobe Illustrator 24.2.0, SVG Export Plug-In . SVG Version: 6.00 Build 0)  -->
<svg version="1.1" xmlns="http://www.w3.org/2000/svg" xmlns:xlink="http://www.w3.org/1999/xlink" x="0px" y="0px"
	 viewBox="0 0 800 700" style="enable-background:new 0 0 800 700;" xml:space="preserve">
<style type="text/css">
	.st0{fill:#F5EEF0;}
	.st1{fill:#F5EEF0;stroke:#333333;stroke-width:2;stroke-linejoin:round;stroke-miterlimit:10;}
	.st2{fill:#FFFFFF;}
	.st3{fill:#333333;}
	.st4{fill:#FFFFFF;stroke:#333333;stroke-width:2;stroke-miterlimit:10;}
</style>
<g id="レイヤー_1">
	
		<rect x="79.1" y="198.2" transform="matrix(-1.346889e-10 1 -1 -1.346889e-10 750.7912 -50.3125)" class="st0" width="643" height="304"/>
	<polyline class="st1" points="248.1,28.6 552.8,28.6 552.8,671.2 	"/>
</g>
<g id="レイヤー_2">
	<g>
		<path class="st2" d="M292.1,552.6c-0.6,0-1-0.4-1-1v-416c0-0.6,0.4-1,1-1h38c0.6,0,1,0.4,1,1v416c0,0.6-0.4,1-1,1H292.1z"/>
		<path class="st3" d="M330.1,135.6v416h-38v-416H330.1 M330.1,133.6h-38c-1.1,0-2,0.9-2,2v416c0,1.1,0.9,2,2,2h38c1.1,0,2-0.9,2-2
			v-416C332.1,134.4,331.2,133.6,330.1,133.6L330.1,133.6z"/>
	</g>
	<g>
		<g>
			<circle class="st2" cx="311.1" cy="156.1" r="6.5"/>
			<path class="st3" d="M311.1,150.6c3,0,5.5,2.5,5.5,5.5s-2.5,5.5-5.5,5.5c-3,0-5.5-2.5-5.5-5.5S308.1,150.6,311.1,150.6
				 M311.1,148.6c-4.1,0-7.5,3.4-7.5,7.5s3.4,7.5,7.5,7.5s7.5-3.4,7.5-7.5S315.2,148.6,311.1,148.6L311.1,148.6z"/>
		</g>
		<g>
			<circle class="st2" cx="311.1" cy="190.1" r="6.5"/>
			<path class="st3" d="M311.1,184.6c3,0,5.5,2.5,5.5,5.5s-2.5,5.5-5.5,5.5c-3,0-5.5-2.5-5.5-5.5S308.1,184.6,311.1,184.6
				 M311.1,182.6c-4.1,0-7.5,3.4-7.5,7.5s3.4,7.5,7.5,7.5s7.5-3.4,7.5-7.5S315.2,182.6,311.1,182.6L311.1,182.6z"/>
		</g>
		<g>
			<circle class="st2" cx="311.1" cy="224.2" r="6.5"/>
			<path class="st3" d="M311.1,218.7c3,0,5.5,2.5,5.5,5.5s-2.5,5.5-5.5,5.5c-3,0-5.5-2.5-5.5-5.5S308.1,218.7,311.1,218.7
				 M311.1,216.7c-4.1,0-7.5,3.4-7.5,7.5s3.4,7.5,7.5,7.5s7.5-3.4,7.5-7.5S315.2,216.7,311.1,216.7L311.1,216.7z"/>
		</g>
		<g>
			<circle class="st2" cx="311.1" cy="258.3" r="6.5"/>
			<path class="st3" d="M311.1,252.8c3,0,5.5,2.5,5.5,5.5s-2.5,5.5-5.5,5.5c-3,0-5.5-2.5-5.5-5.5S308.1,252.8,311.1,252.8
				 M311.1,250.8c-4.1,0-7.5,3.4-7.5,7.5s3.4,7.5,7.5,7.5s7.5-3.4,7.5-7.5S315.2,250.8,311.1,250.8L311.1,250.8z"/>
		</g>
		<g>
			<circle class="st2" cx="311.1" cy="292.4" r="6.5"/>
			<path class="st3" d="M311.1,286.9c3,0,5.5,2.5,5.5,5.5s-2.5,5.5-5.5,5.5c-3,0-5.5-2.5-5.5-5.5S308.1,286.9,311.1,286.9
				 M311.1,284.9c-4.1,0-7.5,3.4-7.5,7.5s3.4,7.5,7.5,7.5s7.5-3.4,7.5-7.5S315.2,284.9,311.1,284.9L311.1,284.9z"/>
		</g>
		<g>
			<circle class="st2" cx="311.1" cy="326.5" r="6.5"/>
			<path class="st3" d="M311.1,321c3,0,5.5,2.5,5.5,5.5c0,3-2.5,5.5-5.5,5.5c-3,0-5.5-2.5-5.5-5.5C305.6,323.5,308.1,321,311.1,321
				 M311.1,319c-4.1,0-7.5,3.4-7.5,7.5s3.4,7.5,7.5,7.5s7.5-3.4,7.5-7.5S315.2,319,311.1,319L311.1,319z"/>
		</g>
		<g>
			<circle class="st2" cx="311.1" cy="360.6" r="6.5"/>
			<path class="st3" d="M311.1,355.1c3,0,5.5,2.5,5.5,5.5c0,3-2.5,5.5-5.5,5.5c-3,0-5.5-2.5-5.5-5.5
				C305.6,357.6,308.1,355.1,311.1,355.1 M311.1,353.1c-4.1,0-7.5,3.4-7.5,7.5s3.4,7.5,7.5,7.5s7.5-3.4,7.5-7.5
				S315.2,353.1,311.1,353.1L311.1,353.1z"/>
		</g>
		<g>
			<circle class="st2" cx="311.1" cy="394.7" r="6.5"/>
			<path class="st3" d="M311.1,389.2c3,0,5.5,2.5,5.5,5.5c0,3-2.5,5.5-5.5,5.5c-3,0-5.5-2.5-5.5-5.5
				C305.6,391.7,308.1,389.2,311.1,389.2 M311.1,387.2c-4.1,0-7.5,3.4-7.5,7.5s3.4,7.5,7.5,7.5s7.5-3.4,7.5-7.5
				S315.2,387.2,311.1,387.2L311.1,387.2z"/>
		</g>
		<g>
			<circle class="st2" cx="311.1" cy="428.8" r="6.5"/>
			<path class="st3" d="M311.1,423.3c3,0,5.5,2.5,5.5,5.5c0,3-2.5,5.5-5.5,5.5c-3,0-5.5-2.5-5.5-5.5
				C305.6,425.7,308.1,423.3,311.1,423.3 M311.1,421.3c-4.1,0-7.5,3.4-7.5,7.5s3.4,7.5,7.5,7.5s7.5-3.4,7.5-7.5
				S315.2,421.3,311.1,421.3L311.1,421.3z"/>
		</g>
		<g>
			<circle class="st2" cx="311.1" cy="462.9" r="6.5"/>
			<path class="st3" d="M311.1,457.4c3,0,5.5,2.5,5.5,5.5c0,3-2.5,5.5-5.5,5.5c-3,0-5.5-2.5-5.5-5.5
				C305.6,459.8,308.1,457.4,311.1,457.4 M311.1,455.4c-4.1,0-7.5,3.4-7.5,7.5s3.4,7.5,7.5,7.5s7.5-3.4,7.5-7.5
				S315.2,455.4,311.1,455.4L311.1,455.4z"/>
		</g>
		<g>
			<circle class="st2" cx="311.1" cy="497" r="6.5"/>
			<path class="st3" d="M311.1,491.5c3,0,5.5,2.5,5.5,5.5c0,3-2.5,5.5-5.5,5.5c-3,0-5.5-2.5-5.5-5.5
				C305.6,493.9,308.1,491.5,311.1,491.5 M311.1,489.5c-4.1,0-7.5,3.4-7.5,7.5s3.4,7.5,7.5,7.5s7.5-3.4,7.5-7.5
				S315.2,489.5,311.1,489.5L311.1,489.5z"/>
		</g>
		<g>
			<circle class="st2" cx="311.1" cy="531.1" r="6.5"/>
			<path class="st3" d="M311.1,525.6c3,0,5.5,2.5,5.5,5.5c0,3-2.5,5.5-5.5,5.5c-3,0-5.5-2.5-5.5-5.5
				C305.6,528,308.1,525.6,311.1,525.6 M311.1,523.6c-4.1,0-7.5,3.4-7.5,7.5s3.4,7.5,7.5,7.5s7.5-3.4,7.5-7.5
				S315.2,523.6,311.1,523.6L311.1,523.6z"/>
		</g>
	</g>
	<g>
		<path class="st2" d="M492.2,552c-0.6,0-1-0.4-1-1V135c0-0.6,0.4-1,1-1h38c0.6,0,1,0.4,1,1v416c0,0.6-0.4,1-1,1H492.2z"/>
		<path class="st3" d="M530.2,135v416h-38V135H530.2 M530.2,133h-38c-1.1,0-2,0.9-2,2v416c0,1.1,0.9,2,2,2h38c1.1,0,2-0.9,2-2V135
			C532.2,133.9,531.3,133,530.2,133L530.2,133z"/>
	</g>
	<g>
		<g>
			<circle class="st2" cx="511.2" cy="155.5" r="6.5"/>
			<path class="st3" d="M511.2,150c3,0,5.5,2.5,5.5,5.5s-2.5,5.5-5.5,5.5c-3,0-5.5-2.5-5.5-5.5S508.2,150,511.2,150 M511.2,148
				c-4.1,0-7.5,3.4-7.5,7.5s3.4,7.5,7.5,7.5s7.5-3.4,7.5-7.5S515.3,148,511.2,148L511.2,148z"/>
		</g>
		<g>
			<circle class="st2" cx="511.2" cy="189.6" r="6.5"/>
			<path class="st3" d="M511.2,184.1c3,0,5.5,2.5,5.5,5.5s-2.5,5.5-5.5,5.5c-3,0-5.5-2.5-5.5-5.5S508.2,184.1,511.2,184.1
				 M511.2,182.1c-4.1,0-7.5,3.4-7.5,7.5s3.4,7.5,7.5,7.5s7.5-3.4,7.5-7.5S515.3,182.1,511.2,182.1L511.2,182.1z"/>
		</g>
		<g>
			<circle class="st2" cx="511.2" cy="223.7" r="6.5"/>
			<path class="st3" d="M511.2,218.2c3,0,5.5,2.5,5.5,5.5s-2.5,5.5-5.5,5.5c-3,0-5.5-2.5-5.5-5.5S508.2,218.2,511.2,218.2
				 M511.2,216.2c-4.1,0-7.5,3.4-7.5,7.5s3.4,7.5,7.5,7.5s7.5-3.4,7.5-7.5S515.3,216.2,511.2,216.2L511.2,216.2z"/>
		</g>
		<g>
			<circle class="st2" cx="511.2" cy="257.8" r="6.5"/>
			<path class="st3" d="M511.2,252.3c3,0,5.5,2.5,5.5,5.5s-2.5,5.5-5.5,5.5c-3,0-5.5-2.5-5.5-5.5S508.2,252.3,511.2,252.3
				 M511.2,250.3c-4.1,0-7.5,3.4-7.5,7.5s3.4,7.5,7.5,7.5s7.5-3.4,7.5-7.5S515.3,250.3,511.2,250.3L511.2,250.3z"/>
		</g>
		<g>
			<circle class="st2" cx="511.2" cy="291.9" r="6.5"/>
			<path class="st3" d="M511.2,286.4c3,0,5.5,2.5,5.5,5.5s-2.5,5.5-5.5,5.5c-3,0-5.5-2.5-5.5-5.5S508.2,286.4,511.2,286.4
				 M511.2,284.4c-4.1,0-7.5,3.4-7.5,7.5s3.4,7.5,7.5,7.5s7.5-3.4,7.5-7.5S515.3,284.4,511.2,284.4L511.2,284.4z"/>
		</g>
		<g>
			<circle class="st2" cx="511.2" cy="326" r="6.5"/>
			<path class="st3" d="M511.2,320.5c3,0,5.5,2.5,5.5,5.5c0,3-2.5,5.5-5.5,5.5c-3,0-5.5-2.5-5.5-5.5
				C505.7,323,508.2,320.5,511.2,320.5 M511.2,318.5c-4.1,0-7.5,3.4-7.5,7.5s3.4,7.5,7.5,7.5s7.5-3.4,7.5-7.5
				S515.3,318.5,511.2,318.5L511.2,318.5z"/>
		</g>
		<g>
			<circle class="st2" cx="511.2" cy="360.1" r="6.5"/>
			<path class="st3" d="M511.2,354.6c3,0,5.5,2.5,5.5,5.5c0,3-2.5,5.5-5.5,5.5c-3,0-5.5-2.5-5.5-5.5
				C505.7,357.1,508.2,354.6,511.2,354.6 M511.2,352.6c-4.1,0-7.5,3.4-7.5,7.5s3.4,7.5,7.5,7.5s7.5-3.4,7.5-7.5
				S515.3,352.6,511.2,352.6L511.2,352.6z"/>
		</g>
		<g>
			<circle class="st2" cx="511.2" cy="394.2" r="6.5"/>
			<path class="st3" d="M511.2,388.7c3,0,5.5,2.5,5.5,5.5c0,3-2.5,5.5-5.5,5.5c-3,0-5.5-2.5-5.5-5.5
				C505.7,391.1,508.2,388.7,511.2,388.7 M511.2,386.7c-4.1,0-7.5,3.4-7.5,7.5s3.4,7.5,7.5,7.5s7.5-3.4,7.5-7.5
				S515.3,386.7,511.2,386.7L511.2,386.7z"/>
		</g>
		<g>
			<circle class="st2" cx="511.2" cy="428.3" r="6.5"/>
			<path class="st3" d="M511.2,422.8c3,0,5.5,2.5,5.5,5.5c0,3-2.5,5.5-5.5,5.5c-3,0-5.5-2.5-5.5-5.5
				C505.7,425.2,508.2,422.8,511.2,422.8 M511.2,420.8c-4.1,0-7.5,3.4-7.5,7.5s3.4,7.5,7.5,7.5s7.5-3.4,7.5-7.5
				S515.3,420.8,511.2,420.8L511.2,420.8z"/>
		</g>
		<g>
			<circle class="st2" cx="511.2" cy="462.4" r="6.5"/>
			<path class="st3" d="M511.2,456.9c3,0,5.5,2.5,5.5,5.5c0,3-2.5,5.5-5.5,5.5c-3,0-5.5-2.5-5.5-5.5
				C505.7,459.3,508.2,456.9,511.2,456.9 M511.2,454.9c-4.1,0-7.5,3.4-7.5,7.5s3.4,7.5,7.5,7.5s7.5-3.4,7.5-7.5
				S515.3,454.9,511.2,454.9L511.2,454.9z"/>
		</g>
		<g>
			<circle class="st2" cx="511.2" cy="496.5" r="6.5"/>
			<path class="st3" d="M511.2,491c3,0,5.5,2.5,5.5,5.5c0,3-2.5,5.5-5.5,5.5c-3,0-5.5-2.5-5.5-5.5C505.7,493.4,508.2,491,511.2,491
				 M511.2,489c-4.1,0-7.5,3.4-7.5,7.5s3.4,7.5,7.5,7.5s7.5-3.4,7.5-7.5S515.3,489,511.2,489L511.2,489z"/>
		</g>
		<g>
			<circle class="st2" cx="511.2" cy="530.5" r="6.5"/>
			<path class="st3" d="M511.2,525c3,0,5.5,2.5,5.5,5.5c0,3-2.5,5.5-5.5,5.5c-3,0-5.5-2.5-5.5-5.5C505.7,527.5,508.2,525,511.2,525
				 M511.2,523c-4.1,0-7.5,3.4-7.5,7.5s3.4,7.5,7.5,7.5s7.5-3.4,7.5-7.5S515.3,523,511.2,523L511.2,523z"/>
		</g>
	</g>
	<circle class="st4" cx="510.9" cy="73.6" r="32"/>
</g>
<g id="レイヤー_3">
	<g>
		<path d="M355,153.7v1.5h-3v6h-3v-6h-3v-1.5H355z"/>
		<path d="M365.5,153.7v1.5H364v1.5h-1.5v1.5h1.5v1.5h1.5v1.5h-3v-1.5h-3v1.5h-3v-1.5h1.5v-1.5h1.5v-1.5H358v-1.5h-1.5v-1.5h3v1.5h3
			v-1.5H365.5z"/>
		<path d="M376,153.7v7.5h-9v-7.5H376z M373,159.7v-4.5h-3v4.5H373z"/>
		<path d="M355,187.7v4.5h-1.5v1.5h1.5v1.5h-4.5v-3H349v3h-3v-7.5H355z M352,190.7v-1.5h-3v1.5H352z"/>
		<path d="M365.5,187.7v1.5H364v1.5h-1.5v1.5h1.5v1.5h1.5v1.5h-3v-1.5h-3v1.5h-3v-1.5h1.5v-1.5h1.5v-1.5H358v-1.5h-1.5v-1.5h3v1.5h3
			v-1.5H365.5z"/>
		<path d="M368.9,195.2v-7.5h3v7.5H368.9z"/>
		<path d="M349,227.7h3v-1.5h-1.5v-1.5h4.5v4.5h-9v-7.5h9v1.5h-6V227.7z"/>
		<path d="M365.5,221.7v7.5h-3v-1.5H361v-1.5h-1.5v3h-3v-7.5h3v1.5h1.5v1.5h1.5v-3H365.5z"/>
		<path d="M374.5,223.2h1.5v4.5h-1.5v1.5H367v-7.5h7.5V223.2z M373,223.2h-3v4.5h3V223.2z"/>
		<path d="M349,261.7h3v-1.5h-1.5v-1.5h4.5v4.5h-9v-7.5h9v1.5h-6V261.7z"/>
		<path d="M365.5,255.7v7.5h-3v-1.5H361v-1.5h-1.5v3h-3v-7.5h3v1.5h1.5v1.5h1.5v-3H365.5z"/>
		<path d="M374.5,257.2h1.5v4.5h-1.5v1.5H367v-7.5h7.5V257.2z M373,257.2h-3v4.5h3V257.2z"/>
		<path d="M355,289.7v4.5h-6v1.5h6v1.5h-9v-4.5h6v-1.5h-6v-1.5H355z"/>
		<path d="M355,323.7v7.5h-9v-1.5h6v-1.5h-6v-1.5h6v-1.5h-6v-1.5H355z"/>
		<path d="M353.5,362.2h1.5v1.5h-1.5v1.5h-3v-1.5H346v-6h3v4.5h1.5v-4.5h3V362.2z"/>
		<path d="M355,391.7v1.5h-6v1.5h6v4.5h-9v-1.5h6v-1.5h-6v-4.5H355z"/>
		<path d="M349,427.2v1.5h6v4.5h-9v-7.5h9v1.5H349z M349,430.2v1.5h3v-1.5H349z"/>
		<path d="M355,459.7v3h-1.5v1.5H352v1.5h-1.5v1.5h-3v-1.5h1.5v-1.5h1.5v-1.5h1.5v-1.5h-6v-1.5H355z"/>
		<path d="M355,493.7v7.5h-9v-7.5H355z M349,495.2v1.5h3v-1.5H349z M352,499.7v-1.5h-3v1.5H352z"/>
		<path d="M355,527.7v7.5h-9v-1.5h6v-1.5h-6v-4.5H355z M352,530.7v-1.5h-3v1.5H352z"/>
	</g>
	<g>
		<path d="M450.6,153.7v4.5h-1.5v1.5h1.5v1.5h-4.5v-3h-1.5v3h-3v-7.5H450.6z M447.6,156.7v-1.5h-3v1.5H447.6z"/>
		<path d="M461.1,153.7v7.5h-3v-3h-3v3h-3v-7.5H461.1z M458.1,156.7v-1.5h-3v1.5H458.1z"/>
		<path d="M474.6,153.7v7.5h-12v-7.5h3v6h1.5v-6h3v6h1.5v-6H474.6z"/>
		<path d="M447.6,193.7h3v-1.5h-1.5v-1.5h4.5v4.5h-9v-7.5h9v1.5h-6V193.7z"/>
		<path d="M464.1,187.7v7.5h-3v-1.5h-1.5v-1.5h-1.5v3h-3v-7.5h3v1.5h1.5v1.5h1.5v-3H464.1z"/>
		<path d="M473.1,189.2h1.5v4.5h-1.5v1.5h-7.5v-7.5h7.5V189.2z M471.6,189.2h-3v4.5h3V189.2z"/>
		<path d="M453.6,221.7v4.5h-1.5v1.5h1.5v1.5h-4.5v-3h-1.5v3h-3v-7.5H453.6z M450.6,224.7v-1.5h-3v1.5H450.6z"/>
		<path d="M464.1,221.7v1.5h-6v1.5h6v4.5h-9v-1.5h6v-1.5h-6v-4.5H464.1z"/>
		<path d="M474.6,221.7v1.5h-3v6h-3v-6h-3v-1.5H474.6z"/>
		<path d="M453.6,255.7v4.5h-1.5v1.5h-1.5v1.5h-3v-1.5h-1.5v-1.5h-1.5v-4.5h3v4.5h3v-4.5H453.6z"/>
		<path d="M464.1,255.7v1.5h-6v4.5h6v1.5h-9v-7.5H464.1z"/>
		<path d="M474.6,255.7v1.5h-6v4.5h6v1.5h-9v-7.5H474.6z"/>
		<path d="M464.1,289.7v7.5h-3v-3h-3v3h-3v-7.5H464.1z M461.1,292.7v-1.5h-3v1.5H461.1z"/>
		<path d="M474.6,289.7v7.5h-9v-1.5h6v-1.5h-6v-1.5h6v-1.5h-6v-1.5H474.6z"/>
		<path d="M464.1,323.7v7.5h-3v-3h-3v3h-3v-7.5H464.1z M461.1,326.7v-1.5h-3v1.5H461.1z"/>
		<path d="M474.6,323.7v4.5h-6v1.5h6v1.5h-9v-4.5h6v-1.5h-6v-1.5H474.6z"/>
		<path d="M464.5,357.7v7.5h-3v-3h-3v3h-3v-7.5H464.5z M461.5,360.7v-1.5h-3v1.5H461.5z"/>
		<path d="M469.7,359.2h-1.5v-1.5h4.5v7.5h-3V359.2z"/>
		<path d="M464.1,391.7v7.5h-3v-3h-3v3h-3v-7.5H464.1z M461.1,394.7v-1.5h-3v1.5H461.1z"/>
		<path d="M474.6,391.7v7.5h-9v-7.5H474.6z M471.6,397.7v-4.5h-3v4.5H471.6z"/>
		<path d="M461.1,427.2h-1.5v-1.5h4.5v7.5h-3V427.2z"/>
		<path d="M474.6,425.7v1.5h-6v1.5h6v4.5h-9v-1.5h6v-1.5h-6v-4.5H474.6z"/>
		<path d="M461.1,461.2h-1.5v-1.5h4.5v7.5h-3V461.2z"/>
		<path d="M473.1,464.2h1.5v1.5h-1.5v1.5h-3v-1.5h-4.5v-6h3v4.5h1.5v-4.5h3V464.2z"/>
		<path d="M461.1,495.2h-1.5v-1.5h4.5v7.5h-3V495.2z"/>
		<path d="M468.6,495.2v1.5h6v4.5h-9v-7.5h9v1.5H468.6z M468.6,498.2v1.5h3v-1.5H468.6z"/>
		<path d="M461.1,529.2h-1.5v-1.5h4.5v7.5h-3V529.2z"/>
		<path d="M474.6,527.7v7.5h-9v-7.5H474.6z M471.6,533.7v-4.5h-3v4.5H471.6z"/>
	</g>
	<g>
		<path d="M272.4,114.3h2.2v6.8h-2.2v2.2h-11.2v-11.2h11.2V114.3z M270.1,114.3h-4.5v6.8h4.5V114.3z"/>
		<path d="M290.4,114.3v9h-13.5v-9H290.4z M285.9,121.1v-4.5h-4.5v4.5H285.9z"/>
		<path d="M310.6,114.3v9h-18v-9h4.5v6.8h2.2v-6.8h4.5v6.8h2.2v-6.8H310.6z"/>
		<path d="M326.4,114.3v9h-4.5v-6.8h-4.5v6.8h-4.5v-9H326.4z"/>
		<path d="M342.1,116.6v2.2h-13.5v-2.2H342.1z"/>
		<path d="M351.1,116.6v2.2h-6.8v-4.5h13.5v2.2H351.1z M351.1,121.1v-2.2h6.8v4.5h-13.5v-2.2H351.1z"/>
		<path d="M364.6,112.1v2.2h-4.5v-2.2H364.6z M364.6,116.6v6.8h-4.5v-6.8H364.6z"/>
		<path d="M380.4,112.1v11.2h-13.5v-9h9v-2.2H380.4z M375.9,121.1v-4.5h-4.5v4.5H375.9z"/>
		<path d="M382.6,114.3h13.5v4.5h-4.5v2.2h4.5v2.2h-13.5V114.3z M391.6,118.8v-2.2h-4.5v2.2H391.6z"/>
	</g>
	<g>
		<path d="M449.4,112.1v11.2h-13.5v-11.2h4.5v9h4.5v-9H449.4z"/>
		<path d="M465.1,114.3v9h-9v2.2h-4.5v-11.2H465.1z M460.6,121.1v-4.5h-4.5v4.5H460.6z"/>
		<path d="M480.9,116.6v2.2h-13.5v-2.2H480.9z"/>
		<path d="M489.9,116.6v2.2h-6.8v-4.5h13.5v2.2H489.9z M489.9,121.1v-2.2h6.8v4.5h-13.5v-2.2H489.9z"/>
		<path d="M503.4,112.1v2.2h-4.5v-2.2H503.4z M503.4,116.6v6.8h-4.5v-6.8H503.4z"/>
		<path d="M519.1,112.1v11.2h-13.5v-9h9v-2.2H519.1z M514.6,121.1v-4.5h-4.5v4.5H514.6z"/>
		<path d="M521.4,114.3h13.5v4.5h-4.5v2.2h4.5v2.2h-13.5V114.3z M530.4,118.8v-2.2h-4.5v2.2H530.4z"/>
	</g>
	<g>
	</g>
	<g>
	</g>
	<g>
	</g>
	<g>
	</g>
	<g>
	</g>
	<g>
	</g>
	<g>
	</g>
	<g>
	</g>
	<g>
	</g>
	<g>
	</g>
	<g>
	</g>
	<g>
	</g>
	<g>
	</g>
	<g>
	</g>
	<g>
	</g>
</g>
</svg>
